<svg width="142" height="142" viewBox="0 0 142 142" fill="none" xmlns="http://www.w3.org/2000/svg">
<path d="M121.209 83.9128H112.592C112.481 83.9128 112.375 83.9568 112.298 84.0349C112.22 84.1123 112.176 84.2188 112.176 84.3288V86.9715C112.176 87.0254 112.186 87.0794 112.208 87.1298C112.228 87.1802 112.259 87.2256 112.298 87.264C112.336 87.3023 112.382 87.3329 112.433 87.3534C112.483 87.374 112.537 87.3847 112.592 87.384H113.153C112.945 87.7503 112.628 88.3418 112.707 88.3418C113.196 88.0528 113.665 87.7333 114.113 87.384H121.209C121.318 87.384 121.424 87.3407 121.502 87.2633C121.58 87.1859 121.624 87.0808 121.624 86.9715V84.3288C121.624 84.2188 121.58 84.1137 121.502 84.0356C121.424 83.9575 121.319 83.9135 121.209 83.9128Z" stroke="#1F2723" stroke-width="0.8" stroke-linecap="round" stroke-linejoin="round"/>
<path d="M118.991 88.9395H127.608C127.663 88.9388 127.718 88.9495 127.768 88.9701C127.818 88.9914 127.865 89.0219 127.904 89.0602C127.942 89.0993 127.973 89.1454 127.993 89.1959C128.014 89.247 128.024 89.3009 128.024 89.3556V91.9982C128.024 92.0529 128.014 92.1069 127.993 92.158C127.973 92.2084 127.942 92.2545 127.904 92.2936C127.865 92.3319 127.818 92.3625 127.768 92.3831C127.718 92.4044 127.663 92.4143 127.608 92.4143H127.047C127.252 92.7806 127.572 93.3721 127.493 93.3721C127.004 93.0831 126.535 92.7629 126.087 92.4143H118.991C118.881 92.4143 118.775 92.3703 118.697 92.2922C118.619 92.2141 118.575 92.1083 118.575 91.9982V89.3556C118.575 89.2456 118.619 89.1398 118.697 89.0617C118.775 88.9836 118.881 88.9395 118.991 88.9395Z" stroke="#1F2723" stroke-width="0.8" stroke-linecap="round" stroke-linejoin="round"/>
<path d="M118.991 78.4827H127.608C127.663 78.4827 127.718 78.4926 127.768 78.5132C127.818 78.5345 127.865 78.565 127.904 78.6034C127.942 78.6424 127.973 78.6886 127.993 78.739C128.014 78.7901 128.024 78.8441 128.024 78.8987V81.5413C128.024 81.596 128.014 81.65 127.992 81.6997C127.972 81.7501 127.941 81.7962 127.902 81.8346C127.863 81.8729 127.818 81.9027 127.767 81.9233C127.717 81.9439 127.663 81.9546 127.608 81.9539H127.047C127.252 82.3209 127.572 82.9116 127.493 82.9116C127.004 82.6227 126.535 82.3032 126.087 81.9539H118.991C118.881 81.9539 118.776 81.9105 118.698 81.8332C118.62 81.7558 118.576 81.6507 118.575 81.5413V78.8987C118.575 78.7887 118.619 78.6829 118.697 78.6048C118.775 78.5267 118.881 78.4827 118.991 78.4827Z" stroke="#1F2723" stroke-width="0.8" stroke-linecap="round" stroke-linejoin="round"/>
<path d="M16.1709 63.0089C16.2318 62.7158 16.2256 62.4127 16.1527 62.1223C16.0798 61.8319 15.9421 61.5618 15.75 61.3323C15.5578 61.1029 15.3162 60.9199 15.0433 60.7973C14.7703 60.6747 14.4732 60.6155 14.1741 60.6243C12.9926 60.6243 11.9496 62.606 11.9496 62.606C11.9496 62.606 10.5503 61.2023 9.30937 61.0801C8.06843 60.9579 6.94957 62.2955 7.52713 64.0526C8.35882 66.5694 12.1939 68.2274 12.1939 68.2274C12.1939 68.2274 15.6989 65.8097 16.1709 63.0089Z" stroke="#1F2723" stroke-width="0.8" stroke-linecap="round" stroke-linejoin="round"/>
<path d="M7.85388 67.9203C7.82186 67.7647 7.75533 67.6183 7.65919 67.492C7.56306 67.3656 7.4398 67.2625 7.29844 67.1902C7.15715 67.1179 7.00145 67.0783 6.8428 67.0743C6.68416 67.0704 6.52665 67.1021 6.3819 67.1672C5.80764 67.4149 5.69872 68.5841 5.69872 68.5841C5.69872 68.5841 4.7086 68.1878 4.09803 68.3794C3.48746 68.5709 3.19373 69.4561 3.83731 70.1959C4.76471 71.2627 6.97927 71.289 6.97927 71.289C6.97927 71.289 8.19709 69.4033 7.85388 67.9203Z" stroke="#1F2723" stroke-width="0.8" stroke-linecap="round" stroke-linejoin="round"/>
<path d="M9.96938 69.5552C6.66903 72.9603 8.82749 77.7031 12.3061 77.6442C16.2434 77.581 15.9365 71.1804 14.0718 74.1261C12.2071 77.0726 16.8606 82.0533 19.2897 79.1828" stroke="#1F2723" stroke-width="0.8" stroke-linecap="round" stroke-linejoin="round"/>
<path d="M86.4524 38.591C86.4524 30.6014 77.8515 24.1245 67.2442 24.1245C56.6368 24.1245 48.0327 30.6014 48.0327 38.591C48.0327 46.1215 55.6764 52.3077 65.439 52.9914L67.2442 57.7045L69.0463 52.9914C78.7958 52.3077 86.4524 46.1215 86.4524 38.591Z" fill="white" stroke="#1F2723" stroke-width="0.8" stroke-linecap="round" stroke-linejoin="round"/>
<path d="M68.5843 36.355V34.043L67.3235 33.9406C67.2019 33.4585 67.0107 32.9968 66.7559 32.5699L67.5777 31.6088L65.9506 29.9805L65 30.8161C64.5728 30.5625 64.1116 30.3712 63.6304 30.248L63.5314 28.9863H61.2211L61.1221 30.248C60.6408 30.3712 60.1796 30.5625 59.7524 30.8161L58.792 29.9937L57.165 31.622L57.9867 32.5831C57.7319 33.01 57.5407 33.4718 57.4191 33.9538L56.1583 34.0562V36.3682L57.4191 36.4672C57.5407 36.9493 57.7319 37.4111 57.9867 37.838L57.165 38.8024L58.792 40.4274L59.7524 39.605C60.1783 39.8614 60.6399 40.0528 61.1221 40.1731L61.2211 41.4348H63.5314L63.6304 40.1731C64.1126 40.0528 64.5742 39.8614 65 39.605L65.9604 40.4274L67.5876 38.8024L66.7657 37.838C67.0205 37.4111 67.2118 36.9493 67.3334 36.4672L68.5843 36.355ZM62.3597 37.4185C61.9225 37.4179 61.4953 37.2875 61.1322 37.044C60.7689 36.8004 60.486 36.4545 60.3191 36.0501C60.1523 35.6457 60.109 35.2009 60.1947 34.7718C60.2804 34.3428 60.4912 33.9488 60.8006 33.6397C61.11 33.3305 61.504 33.1201 61.9328 33.035C62.3617 32.9498 62.8061 32.9939 63.21 33.1615C63.6139 33.329 63.959 33.6127 64.2018 33.9765C64.4447 34.3404 64.5743 34.7681 64.5743 35.2056C64.5743 35.4965 64.517 35.7845 64.4057 36.0532C64.2944 36.3219 64.1311 36.566 63.9254 36.7715C63.7198 36.977 63.4757 37.14 63.207 37.251C62.9383 37.362 62.6504 37.4189 62.3597 37.4185Z" fill="#03B104" stroke="#1F2723" stroke-width="0.8" stroke-linecap="round" stroke-linejoin="round"/>
<path d="M78.2939 39.1789V37.3987L77.3205 37.3227C77.226 36.95 77.0776 36.5929 76.8817 36.2625L77.515 35.5194L76.2611 34.261L75.5149 34.8952C75.1862 34.6983 74.8305 34.5504 74.4592 34.4559L74.3796 33.4815H72.5911L72.5152 34.4559C72.1424 34.5505 71.786 34.6984 71.4559 34.8952L70.713 34.261L69.4556 35.5194L70.0892 36.2625C69.8926 36.5929 69.7448 36.95 69.6503 37.3227L68.6602 37.3987V39.1789L69.6503 39.2549C69.7436 39.628 69.8915 39.9853 70.0892 40.3151L69.4556 41.0615L70.713 42.3166L71.4559 41.6825C71.786 41.8792 72.1424 42.0271 72.5152 42.1217L72.5911 43.0961H74.3697L74.4492 42.1217C74.8205 42.0272 75.1763 41.8793 75.505 41.6825L76.2512 42.3166L77.5051 41.0615L76.8817 40.3151C77.0783 39.9849 77.226 39.6277 77.3205 39.2549L78.2939 39.1789ZM73.4921 40.0079C73.1535 40.0079 72.8233 39.9076 72.5422 39.7196C72.261 39.5316 72.0416 39.2644 71.9124 38.9518C71.7832 38.6391 71.7491 38.2951 71.8151 37.9633C71.8811 37.6314 72.0437 37.3266 72.283 37.0873C72.5223 36.848 72.8269 36.6851 73.1584 36.619C73.49 36.553 73.8336 36.5869 74.146 36.7164C74.4584 36.8459 74.7254 37.0652 74.9136 37.3466C75.101 37.6279 75.2018 37.9587 75.2018 38.297C75.2018 38.5218 75.1578 38.7445 75.0726 38.9523C74.9867 39.1601 74.8603 39.3488 74.702 39.5078C74.5429 39.6668 74.3541 39.7927 74.1468 39.8786C73.9387 39.9644 73.7165 40.0084 73.4921 40.0079Z" fill="#03B104"/>
<mask id="mask0_32_75" style="mask-type:luminance" maskUnits="userSpaceOnUse" x="68" y="33" width="11" height="11">
<path d="M78.2939 39.1789V37.3987L77.3205 37.3227C77.226 36.95 77.0776 36.5929 76.8817 36.2625L77.515 35.5194L76.2611 34.261L75.5149 34.8952C75.1862 34.6983 74.8305 34.5504 74.4592 34.4559L74.3796 33.4815H72.5911L72.5152 34.4559C72.1424 34.5505 71.786 34.6984 71.4559 34.8952L70.713 34.261L69.4556 35.5194L70.0892 36.2625C69.8926 36.5929 69.7448 36.95 69.6503 37.3227L68.6602 37.3987V39.1789L69.6503 39.2549C69.7436 39.628 69.8915 39.9853 70.0892 40.3151L69.4556 41.0615L70.713 42.3166L71.4559 41.6825C71.786 41.8792 72.1424 42.0271 72.5152 42.1217L72.5911 43.0961H74.3697L74.4492 42.1217C74.8205 42.0272 75.1763 41.8793 75.505 41.6825L76.2512 42.3166L77.5051 41.0615L76.8817 40.3151C77.0783 39.9849 77.226 39.6277 77.3205 39.2549L78.2939 39.1789ZM73.4921 40.0079C73.1535 40.0079 72.8233 39.9076 72.5422 39.7196C72.261 39.5316 72.0416 39.2644 71.9124 38.9518C71.7832 38.6391 71.7491 38.2951 71.8151 37.9633C71.8811 37.6314 72.0437 37.3266 72.283 37.0873C72.5223 36.848 72.8269 36.6851 73.1584 36.619C73.49 36.553 73.8336 36.5869 74.146 36.7164C74.4584 36.8459 74.7254 37.0652 74.9136 37.3466C75.101 37.6279 75.2018 37.9587 75.2018 38.297C75.2018 38.5218 75.1578 38.7445 75.0726 38.9523C74.9867 39.1601 74.8603 39.3488 74.702 39.5078C74.5429 39.6668 74.3541 39.7927 74.1468 39.8786C73.9387 39.9644 73.7165 40.0084 73.4921 40.0079Z" fill="white"/>
</mask>
<g mask="url(#mask0_32_75)">
<path opacity="0.5" d="M78.2939 39.1789V37.3987L77.3205 37.3227C77.226 36.95 77.0776 36.5929 76.8817 36.2625L77.515 35.5194L76.2611 34.261L75.5149 34.8952C75.1862 34.6983 74.8305 34.5504 74.4592 34.4559L74.3796 33.4815H72.5911L72.5152 34.4559C72.1424 34.5505 71.786 34.6984 71.4559 34.8952L70.713 34.261L69.4556 35.5194L70.0892 36.2625C69.8926 36.5929 69.7448 36.95 69.6503 37.3227L68.6602 37.3987V39.1789L69.6503 39.2549C69.7436 39.628 69.8915 39.9853 70.0892 40.3151L69.4556 41.0615L70.713 42.3166L71.4559 41.6825C71.786 41.8792 72.1424 42.0271 72.5152 42.1217L72.5911 43.0961H74.3697L74.4492 42.1217C74.8205 42.0272 75.1763 41.8793 75.505 41.6825L76.2512 42.3166L77.5051 41.0615L76.8817 40.3151C77.0783 39.9849 77.226 39.6277 77.3205 39.2549L78.2939 39.1789ZM73.4921 40.0079C73.1535 40.0079 72.8233 39.9076 72.5422 39.7196C72.261 39.5316 72.0416 39.2644 71.9124 38.9518C71.7832 38.6391 71.7491 38.2951 71.8151 37.9633C71.8811 37.6314 72.0437 37.3266 72.283 37.0873C72.5223 36.848 72.8269 36.6851 73.1584 36.619C73.49 36.553 73.8336 36.5869 74.146 36.7164C74.4584 36.8459 74.7254 37.0652 74.9136 37.3466C75.101 37.6279 75.2018 37.9587 75.2018 38.297C75.2018 38.5218 75.1578 38.7445 75.0726 38.9523C74.9867 39.1601 74.8603 39.3488 74.702 39.5078C74.5429 39.6668 74.3541 39.7927 74.1468 39.8786C73.9387 39.9644 73.7165 40.0084 73.4921 40.0079Z" fill="white"/>
</g>
<path d="M78.2939 39.1789V37.3987L77.3205 37.3227C77.226 36.95 77.0776 36.5929 76.8817 36.2625L77.515 35.5194L76.2611 34.261L75.5149 34.8952C75.1862 34.6983 74.8305 34.5504 74.4592 34.4559L74.3796 33.4815H72.5911L72.5152 34.4559C72.1424 34.5505 71.786 34.6984 71.4559 34.8952L70.713 34.261L69.4556 35.5194L70.0892 36.2625C69.8926 36.5929 69.7448 36.95 69.6503 37.3227L68.6602 37.3987V39.1789L69.6503 39.2549C69.7436 39.628 69.8915 39.9853 70.0892 40.3151L69.4556 41.0615L70.713 42.3166L71.4559 41.6825C71.786 41.8792 72.1424 42.0271 72.5152 42.1217L72.5911 43.0961H74.3697L74.4492 42.1217C74.8205 42.0272 75.1763 41.8793 75.505 41.6825L76.2512 42.3166L77.5051 41.0615L76.8817 40.3151C77.0783 39.9849 77.226 39.6277 77.3205 39.2549L78.2939 39.1789ZM73.4921 40.0079C73.1535 40.0079 72.8233 39.9076 72.5422 39.7196C72.261 39.5316 72.0416 39.2644 71.9124 38.9518C71.7832 38.6391 71.7491 38.2951 71.8151 37.9633C71.8811 37.6314 72.0437 37.3266 72.283 37.0873C72.5223 36.848 72.8269 36.6851 73.1584 36.619C73.49 36.553 73.8336 36.5869 74.146 36.7164C74.4584 36.8459 74.7254 37.0652 74.9136 37.3466C75.101 37.6279 75.2018 37.9587 75.2018 38.297C75.2018 38.5218 75.1578 38.7445 75.0726 38.9523C74.9867 39.1601 74.8603 39.3488 74.702 39.5078C74.5429 39.6668 74.3541 39.7927 74.1468 39.8786C73.9387 39.9644 73.7165 40.0084 73.4921 40.0079Z" stroke="#1F2723" stroke-width="0.8" stroke-linecap="round" stroke-linejoin="round"/>
<path d="M69.9176 45.375V44.0968L69.2179 44.0407C69.1461 43.7725 69.0349 43.5165 68.8879 43.281L69.3433 42.746L68.4423 41.841L67.9076 42.2968C67.6712 42.1495 67.4143 42.0382 67.1452 41.9665L67.0892 41.263H65.8251L65.769 41.9665C65.4999 42.0382 65.243 42.1495 65.0066 42.2968L64.472 41.841L63.571 42.746L64.0264 43.281C63.8794 43.5165 63.7681 43.7725 63.6964 44.0407L62.9966 44.0968V45.375L63.6964 45.4312C63.7681 45.7004 63.8794 45.9575 64.0264 46.1942L63.571 46.7292L64.472 47.6342L65 47.1751C65.2365 47.3222 65.4934 47.4335 65.7624 47.5054L65.8185 48.2056H67.0958L67.1518 47.5054C67.4209 47.4335 67.6778 47.3222 67.9142 47.1751L68.4489 47.6342L69.3499 46.7292L68.8945 46.1942C69.0414 45.9575 69.1527 45.7004 69.2245 45.4312L69.9176 45.375ZM66.4653 45.953C66.2216 45.9537 65.9831 45.8819 65.7802 45.7468C65.5773 45.6117 65.4189 45.4193 65.3254 45.1941C65.2318 44.9688 65.2072 44.7208 65.2545 44.4816C65.3019 44.2423 65.4192 44.0225 65.5916 43.85C65.7639 43.6775 65.9836 43.5601 66.2227 43.5126C66.4618 43.4652 66.7096 43.4899 66.9347 43.5836C67.1598 43.6772 67.352 43.8356 67.487 44.0387C67.622 44.2418 67.6938 44.4804 67.6931 44.7244C67.6931 45.0503 67.5638 45.3628 67.3335 45.5931C67.1033 45.8236 66.791 45.953 66.4653 45.953Z" fill="#03B104"/>
<mask id="mask1_32_75" style="mask-type:luminance" maskUnits="userSpaceOnUse" x="62" y="41" width="8" height="8">
<path d="M69.9176 45.375V44.0968L69.2179 44.0407C69.1461 43.7725 69.0349 43.5165 68.8879 43.281L69.3433 42.746L68.4423 41.841L67.9076 42.2968C67.6712 42.1495 67.4143 42.0382 67.1452 41.9665L67.0892 41.263H65.8251L65.769 41.9665C65.4999 42.0382 65.243 42.1495 65.0066 42.2968L64.472 41.841L63.571 42.746L64.0264 43.281C63.8794 43.5165 63.7681 43.7725 63.6964 44.0407L62.9966 44.0968V45.375L63.6964 45.4312C63.7681 45.7004 63.8794 45.9575 64.0264 46.1942L63.571 46.7292L64.472 47.6342L65 47.1751C65.2365 47.3222 65.4934 47.4335 65.7624 47.5054L65.8185 48.2056H67.0958L67.1518 47.5054C67.4209 47.4335 67.6778 47.3222 67.9142 47.1751L68.4489 47.6342L69.3499 46.7292L68.8945 46.1942C69.0414 45.9575 69.1527 45.7004 69.2245 45.4312L69.9176 45.375ZM66.4653 45.953C66.2216 45.9537 65.9831 45.8819 65.7802 45.7468C65.5773 45.6117 65.4189 45.4193 65.3254 45.1941C65.2318 44.9688 65.2072 44.7208 65.2545 44.4816C65.3019 44.2423 65.4192 44.0225 65.5916 43.85C65.7639 43.6775 65.9836 43.5601 66.2227 43.5126C66.4618 43.4652 66.7096 43.4899 66.9347 43.5836C67.1598 43.6772 67.352 43.8356 67.487 44.0387C67.622 44.2418 67.6938 44.4804 67.6931 44.7244C67.6931 45.0503 67.5638 45.3628 67.3335 45.5931C67.1033 45.8236 66.791 45.953 66.4653 45.953Z" fill="white"/>
</mask>
<g mask="url(#mask1_32_75)">
<path opacity="0.7" d="M69.9176 45.375V44.0968L69.2179 44.0407C69.1461 43.7725 69.0349 43.5165 68.8879 43.281L69.3433 42.746L68.4423 41.841L67.9076 42.2968C67.6712 42.1495 67.4143 42.0382 67.1452 41.9665L67.0892 41.263H65.8251L65.769 41.9665C65.4999 42.0382 65.243 42.1495 65.0066 42.2968L64.472 41.841L63.571 42.746L64.0264 43.281C63.8794 43.5165 63.7681 43.7725 63.6964 44.0407L62.9966 44.0968V45.375L63.6964 45.4312C63.7681 45.7004 63.8794 45.9575 64.0264 46.1942L63.571 46.7292L64.472 47.6342L65 47.1751C65.2365 47.3222 65.4934 47.4335 65.7624 47.5054L65.8185 48.2056H67.0958L67.1518 47.5054C67.4209 47.4335 67.6778 47.3222 67.9142 47.1751L68.4489 47.6342L69.3499 46.7292L68.8945 46.1942C69.0414 45.9575 69.1527 45.7004 69.2245 45.4312L69.9176 45.375ZM66.4653 45.953C66.2216 45.9537 65.9831 45.8819 65.7802 45.7468C65.5773 45.6117 65.4189 45.4193 65.3254 45.1941C65.2318 44.9688 65.2072 44.7208 65.2545 44.4816C65.3019 44.2423 65.4192 44.0225 65.5916 43.85C65.7639 43.6775 65.9836 43.5601 66.2227 43.5126C66.4618 43.4652 66.7096 43.4899 66.9347 43.5836C67.1598 43.6772 67.352 43.8356 67.487 44.0387C67.622 44.2418 67.6938 44.4804 67.6931 44.7244C67.6931 45.0503 67.5638 45.3628 67.3335 45.5931C67.1033 45.8236 66.791 45.953 66.4653 45.953Z" fill="white"/>
</g>
<path d="M69.9176 45.375V44.0968L69.2179 44.0407C69.1461 43.7725 69.0349 43.5165 68.8879 43.281L69.3433 42.746L68.4423 41.841L67.9076 42.2968C67.6712 42.1495 67.4143 42.0382 67.1452 41.9665L67.0892 41.263H65.8251L65.769 41.9665C65.4999 42.0382 65.243 42.1495 65.0066 42.2968L64.472 41.841L63.571 42.746L64.0264 43.281C63.8794 43.5165 63.7681 43.7725 63.6964 44.0407L62.9966 44.0968V45.375L63.6964 45.4312C63.7681 45.7004 63.8794 45.9575 64.0264 46.1942L63.571 46.7292L64.472 47.6342L65 47.1751C65.2365 47.3222 65.4934 47.4335 65.7624 47.5054L65.8185 48.2056H67.0958L67.1518 47.5054C67.4209 47.4335 67.6778 47.3222 67.9142 47.1751L68.4489 47.6342L69.3499 46.7292L68.8945 46.1942C69.0414 45.9575 69.1527 45.7004 69.2245 45.4312L69.9176 45.375ZM66.4653 45.953C66.2216 45.9537 65.9831 45.8819 65.7802 45.7468C65.5773 45.6117 65.4189 45.4193 65.3254 45.1941C65.2318 44.9688 65.2072 44.7208 65.2545 44.4816C65.3019 44.2423 65.4192 44.0225 65.5916 43.85C65.7639 43.6775 65.9836 43.5601 66.2227 43.5126C66.4618 43.4652 66.7096 43.4899 66.9347 43.5836C67.1598 43.6772 67.352 43.8356 67.487 44.0387C67.622 44.2418 67.6938 44.4804 67.6931 44.7244C67.6931 45.0503 67.5638 45.3628 67.3335 45.5931C67.1033 45.8236 66.791 45.953 66.4653 45.953Z" stroke="#1F2723" stroke-width="0.8" stroke-linecap="round" stroke-linejoin="round"/>
<path d="M97.8487 86.7726L95.5057 88.5597C91.8556 87.1525 92.0899 86.8358 88.5981 86.3303C86.789 86.0697 83.043 86.1784 79.8949 86.3303C77.0499 86.4758 74.6899 86.6604 74.6899 86.6604C74.6899 86.6604 81.6507 79.7245 83.5649 78.7106C85.479 77.6967 93.8847 74.0863 94.1489 73.9678C94.1489 73.9678 100.489 81.0458 97.8487 86.7726Z" fill="#03B104"/>
<path opacity="0.2" d="M97.8487 86.7726L95.5057 88.5597C91.8556 87.1525 92.0899 86.8358 88.5981 86.3303C86.789 86.0697 83.043 86.1784 79.8949 86.3303C83.812 83.6188 94.4165 85.8418 94.4165 85.8418C94.4165 85.8418 92.7665 83.7509 92.6472 79.5136C92.5222 75.4339 94.0438 74.0736 94.1588 73.9742C94.1588 73.9742 100.489 81.0458 97.8487 86.7726Z" fill="#1F2723"/>
<path d="M74.6899 86.6803C74.6899 86.6803 81.6507 79.7444 83.5649 78.7305C85.479 77.7166 94.1559 73.9841 94.1559 73.9841C94.1559 73.9841 100.489 81.0458 97.8487 86.7726L95.5057 88.5597" stroke="#1F2723" stroke-width="0.8" stroke-linecap="round" stroke-linejoin="round"/>
<path d="M108.143 75.8898L97.5086 85.5507C92.5187 81.3 94.1261 74.8993 94.1261 74.8993L97.9481 72.2141L102.568 68.9706C104.107 69.7019 105.532 70.6544 106.796 71.798C107.994 72.9738 108.819 74.4073 108.143 75.8898Z" fill="white"/>
<mask id="mask2_32_75" style="mask-type:luminance" maskUnits="userSpaceOnUse" x="93" y="68" width="16" height="18">
<path d="M108.143 75.8898L97.5086 85.5507C92.5187 81.3 94.1261 74.8993 94.1261 74.8993L97.9481 72.2141L102.568 68.9706C104.107 69.7019 105.532 70.6544 106.796 71.798C107.994 72.9738 108.819 74.4073 108.143 75.8898Z" fill="white"/>
</mask>
<g mask="url(#mask2_32_75)">
<path opacity="0.2" d="M106.79 71.798C106.576 72.3881 106.193 72.9028 105.691 73.2777C102.251 76.1276 99.4398 73.9714 97.9481 72.2141L102.568 68.9706C104.105 69.7025 105.527 70.6549 106.79 71.798Z" fill="#03B104"/>
</g>
<path d="M108.143 75.8898L97.5086 85.5507C92.5187 81.3 94.1261 74.8993 94.1261 74.8993L97.9481 72.2141L102.568 68.9706C104.107 69.7019 105.532 70.6544 106.796 71.798C107.994 72.9738 108.819 74.4073 108.143 75.8898Z" stroke="#1F2723" stroke-width="0.8" stroke-linecap="round" stroke-linejoin="round"/>
<path d="M103.852 74.8134C103.852 74.8134 102.103 74.4172 100.822 71.94C99.542 69.4627 99.6904 57.797 99.9773 55.4851C100.265 53.1731 104.69 51.9015 104.898 54.2267C104.932 54.5801 105.067 55.2737 105.268 56.2084C105.532 57.4073 105.901 59.0026 106.298 60.7663C107.618 66.6751 109.268 74.4996 108.143 75.8898" fill="white"/>
<mask id="mask3_32_75" style="mask-type:luminance" maskUnits="userSpaceOnUse" x="99" y="52" width="10" height="24">
<path d="M103.852 74.8134C103.852 74.8134 102.103 74.4172 100.822 71.94C99.542 69.4627 99.6904 57.797 99.9773 55.4851C100.265 53.1731 104.69 51.9015 104.898 54.2267C104.932 54.5801 105.067 55.2737 105.268 56.2084C105.532 57.4073 105.901 59.0026 106.298 60.7663C107.618 66.6751 109.268 74.4996 108.143 75.8898" fill="white"/>
</mask>
<g mask="url(#mask3_32_75)">
<path opacity="0.2" d="M106.298 60.7664C104.341 59.3164 102.954 56.5882 102.954 56.5882L105.265 56.2084C105.532 57.4073 105.901 59.0026 106.298 60.7664Z" fill="#03B104"/>
</g>
<path d="M103.852 74.8134C103.852 74.8134 102.103 74.4172 100.822 71.94C99.542 69.4627 99.6904 57.797 99.9773 55.4851C100.265 53.1731 104.69 51.9015 104.898 54.2267C104.932 54.5801 105.067 55.2737 105.268 56.2084C105.532 57.4073 105.901 59.0026 106.298 60.7663C107.618 66.6751 109.268 74.4996 108.143 75.8898" stroke="#1F2723" stroke-width="0.8" stroke-linecap="round" stroke-linejoin="round"/>
<path d="M117.598 40.0079C117.598 40.0079 117.598 40.0343 117.598 40.0707C117.427 41.9434 115.136 41.59 112.116 42.1119C109.806 42.5082 106.81 44.371 104.601 45.9432C102.862 47.1784 101.631 48.232 101.631 48.232C101.631 48.232 99.0961 46.5443 96.8057 41.8509C96.8057 41.8509 105.096 36.6423 106.063 30.1985C106.826 25.1451 114.142 30.0961 116.895 37.0056C117.423 38.3565 117.644 39.3275 117.598 40.0079Z" fill="white"/>
<mask id="mask4_32_75" style="mask-type:luminance" maskUnits="userSpaceOnUse" x="96" y="28" width="22" height="21">
<path d="M117.598 40.0079C117.598 40.0079 117.598 40.0343 117.598 40.0707C117.427 41.9434 115.136 41.59 112.116 42.1119C109.806 42.5082 106.81 44.371 104.601 45.9432C102.862 47.1784 101.631 48.232 101.631 48.232C101.631 48.232 99.0961 46.5443 96.8057 41.8509C96.8057 41.8509 105.096 36.6423 106.063 30.1985C106.826 25.1451 114.142 30.0961 116.895 37.0056C117.423 38.3565 117.644 39.3275 117.598 40.0079Z" fill="white"/>
</mask>
<g mask="url(#mask4_32_75)">
<path opacity="0.15" d="M117.588 40.0641C117.417 41.9368 115.126 41.5834 112.106 42.1053C109.796 42.5016 106.8 44.3644 104.591 45.9366C103.601 45.342 103.03 44.7673 103.271 44.2851C104.291 42.0227 108.126 41.296 108.126 41.296C108.126 41.296 107.796 39.813 108.396 39.0963C108.997 38.3796 111.192 39.813 114.338 40.9294C117.127 41.917 117.536 40.391 117.588 40.0641Z" fill="#1F2723"/>
</g>
<path d="M117.598 40.0079C117.598 40.0079 117.598 40.0343 117.598 40.0707C117.427 41.9434 115.136 41.59 112.116 42.1119C109.806 42.5082 106.81 44.371 104.601 45.9432C102.862 47.1784 101.631 48.232 101.631 48.232C101.631 48.232 99.0961 46.5443 96.8057 41.8509C96.8057 41.8509 105.096 36.6423 106.063 30.1985C106.826 25.1451 114.142 30.0961 116.895 37.0056C117.423 38.3565 117.644 39.3275 117.598 40.0079Z" stroke="#1F2723" stroke-width="0.8" stroke-linecap="round" stroke-linejoin="round"/>
<path d="M108.961 34.3931C110.991 33.6268 111.773 32.2462 112.162 32.5567C112.552 32.8672 113.964 33.8779 113.737 34.4922C113.509 35.1065 111.684 37.2071 111.503 37.587" stroke="#1F2723" stroke-width="0.8" stroke-linecap="round" stroke-linejoin="round"/>
<path d="M108.017 28.9897C106.925 29.092 107.07 31.9622 109.747 35.5062C112.424 39.0501 115.067 40.6586 116.238 40.2556C117.41 39.8527 116.598 38.3102 116.598 38.3102" stroke="#1F2723" stroke-width="0.8" stroke-linecap="round" stroke-linejoin="round"/>
<path d="M105.417 45.953C105.417 45.953 100.324 49.8009 99.2445 49.7645C98.1653 49.7282 96.6835 49.7018 95.2614 47.8027C94.1623 46.3329 94.3242 45.0646 94.6409 44.1695C94.7232 43.9356 94.8176 43.7063 94.9249 43.4825C95.1457 43.0003 99.3567 38.7562 99.3567 38.7562L100.403 39.0336C100.403 39.0336 101.083 42.8417 105.228 45.4841L105.417 45.953Z" fill="#03B104"/>
<mask id="mask5_32_75" style="mask-type:luminance" maskUnits="userSpaceOnUse" x="94" y="38" width="12" height="12">
<path d="M105.417 45.953C105.417 45.953 100.324 49.8009 99.2445 49.7645C98.1653 49.7282 96.6835 49.7018 95.2614 47.8027C94.1623 46.3329 94.3242 45.0646 94.6409 44.1695C94.7232 43.9356 94.8176 43.7063 94.9249 43.4825C95.1457 43.0003 99.3567 38.7562 99.3567 38.7562L100.403 39.0336C100.403 39.0336 101.083 42.8417 105.228 45.4841L105.417 45.953Z" fill="white"/>
</mask>
<g mask="url(#mask5_32_75)">
<path opacity="0.2" d="M105.417 45.9531C105.417 45.9531 100.324 49.8009 99.2445 49.7645C98.1653 49.7282 96.6835 49.7018 95.2614 47.8027C94.1623 46.3329 94.3242 45.0646 94.6409 44.1695C94.905 45.2033 95.4133 46.6863 96.2284 47.2742C97.532 48.2188 102.954 45.1835 102.954 45.1835C102.954 45.1835 99.9446 41.4744 100.403 39.0336C100.403 39.0336 101.083 42.8418 105.228 45.4841L105.417 45.9531Z" fill="#1F2723"/>
</g>
<path d="M105.417 45.953C105.417 45.953 100.324 49.8009 99.2445 49.7645C98.1653 49.7282 96.6835 49.7018 95.2614 47.8027C94.1623 46.3329 94.3242 45.0646 94.6409 44.1695C94.7232 43.9356 94.8176 43.7063 94.9249 43.4825C95.1457 43.0003 99.3567 38.7562 99.3567 38.7562L100.403 39.0336C100.403 39.0336 101.083 42.8417 105.228 45.4841L105.417 45.953Z" stroke="#1F2723" stroke-width="0.8" stroke-linecap="round" stroke-linejoin="round"/>
<path opacity="0.15" d="M108.017 28.9897C106.925 29.092 107.07 31.9622 109.747 35.5062C112.424 39.0501 115.067 40.6586 116.238 40.2556C117.41 39.8527 116.598 38.3102 116.598 38.3102C115.964 36.1352 114.823 34.1418 113.268 32.4939C110.215 29.234 108.017 28.9897 108.017 28.9897Z" fill="#1F2723"/>
<path d="M109.509 51.918C109.39 53.3845 105.479 58.7252 102.954 57.5692L109.509 51.918Z" fill="white"/>
<path d="M109.509 51.918C109.39 53.3845 105.479 58.7252 102.954 57.5692" stroke="#1F2723" stroke-width="0.8" stroke-linecap="round" stroke-linejoin="round"/>
<path d="M100.023 49.3385C100.023 49.3385 102.037 54.9533 103.489 55.9706C104.942 56.9879 108.697 53.8733 108.36 53.3283C108.024 52.7833 104.4 49.4244 103.819 46.6797C103.819 46.6962 102.109 46.9439 100.023 49.3385Z" fill="#03B104"/>
<mask id="mask6_32_75" style="mask-type:luminance" maskUnits="userSpaceOnUse" x="100" y="46" width="9" height="11">
<path d="M100.023 49.3385C100.023 49.3385 102.037 54.9533 103.489 55.9706C104.942 56.9879 108.697 53.8733 108.36 53.3283C108.024 52.7833 104.4 49.4244 103.819 46.6797C103.819 46.6962 102.109 46.9439 100.023 49.3385Z" fill="white"/>
</mask>
<g mask="url(#mask6_32_75)">
<path opacity="0.2" d="M100.023 49.3385C100.023 49.3385 102.037 54.9533 103.489 55.9706C104.942 56.9879 108.697 53.8733 108.36 53.3283C108.024 52.7833 104.4 49.4244 103.819 46.6797C103.819 46.6962 102.109 46.9439 100.023 49.3385Z" fill="#1F2723"/>
</g>
<path d="M100.023 49.3385C100.023 49.3385 102.037 54.9533 103.489 55.9706C104.942 56.9879 108.697 53.8733 108.36 53.3283C108.024 52.7833 104.4 49.4244 103.819 46.6797C103.819 46.6962 102.109 46.9439 100.023 49.3385Z" stroke="#1F2723" stroke-width="0.8" stroke-linecap="round" stroke-linejoin="round"/>
<path d="M109.427 52.387C109.757 51.231 108.932 51.5415 109.067 50.4581C109.202 49.3748 108.502 49.3748 108.281 48.2518C108.06 47.1289 107.37 47.2412 106.961 46.3164C106.552 45.3916 105.549 45.7615 104.572 46.214C103.595 46.6665 102.281 48.81 102.281 48.81C102.089 50.1939 103.245 49.9065 103.245 49.9065C102.476 51.3235 103.757 51.6372 103.757 51.6372C103.687 53.1632 104.608 52.9584 104.608 52.9584C104.594 53.1542 104.654 53.3482 104.776 53.5017C104.899 53.6553 105.074 53.7572 105.268 53.7874C105.707 53.8799 109.083 53.5496 109.427 52.387Z" fill="white" stroke="#1F2723" stroke-width="0.8" stroke-linecap="round" stroke-linejoin="round"/>
<path d="M103.255 49.9165C103.255 49.9165 105.12 47.9348 105.691 47.7201" stroke="#1F2723" stroke-width="0.8" stroke-linecap="round" stroke-linejoin="round"/>
<path d="M103.766 51.6372C104.602 50.7799 105.627 50.1306 106.76 49.7414" stroke="#1F2723" stroke-width="0.8" stroke-linecap="round" stroke-linejoin="round"/>
<path d="M104.604 52.9716C104.604 52.9716 107.08 51.7528 107.446 51.6505" stroke="#1F2723" stroke-width="0.8" stroke-linecap="round" stroke-linejoin="round"/>
<path d="M101.344 57.3083C101.344 57.3083 99.5285 55.6271 99.1984 54.9104C98.8682 54.1937 98.2349 51.1253 98.6872 50.2864C99.1394 49.4475 100.476 48.0868 100.684 47.4262C100.892 46.7656 102.047 48.2122 100.727 50.8545C100.727 50.8545 102.305 52.7635 102.047 54.8575" fill="white"/>
<path d="M101.344 57.3083C101.344 57.3083 99.5285 55.6271 99.1984 54.9104C98.8682 54.1937 98.2349 51.1253 98.6872 50.2864C99.1394 49.4475 100.476 48.0868 100.684 47.4262C100.892 46.7656 102.047 48.2122 100.727 50.8545C100.727 50.8545 102.305 52.7635 102.047 54.8575" stroke="#1F2723" stroke-width="0.8" stroke-linecap="round" stroke-linejoin="round"/>
<path opacity="0.15" d="M117.598 40.0079C117.598 40.0079 117.598 40.0343 117.598 40.0707C117.6 40.0498 117.6 40.0288 117.598 40.0079Z" fill="#1F2723"/>
<path d="M100.265 106.197C100.265 106.197 99.5385 106.491 98.4926 105.183C96.5124 102.693 93.5255 96.7112 91.5616 93.8443C90.7231 92.616 88.4064 91.4068 85.9015 90.393C83.222 89.3457 80.4849 88.4532 77.7031 87.7212C77.7031 87.7212 88.2445 87.0602 90.9212 87.876C93.2315 88.5697 101.443 93.2663 103.793 94.6175L104.42 94.9803C104.42 94.9803 104.77 99.9545 100.265 106.197Z" fill="#03B104"/>
<path opacity="0.2" d="M100.265 106.197C100.265 106.197 99.5385 106.491 98.4926 105.183C96.5124 102.693 93.5255 96.7112 91.5616 93.8443C90.7231 92.616 88.4064 91.4068 85.9015 90.3929C95.4723 92.579 98.8519 102.184 98.8519 102.184C98.8519 102.184 99.3603 96.7311 103.783 94.6174L104.41 94.9802C104.41 94.9802 104.77 99.9545 100.265 106.197Z" fill="#1F2723"/>
<path d="M77.7095 87.7212C77.7095 87.7212 88.2516 87.0602 90.9275 87.876C93.6042 88.6918 104.417 94.9803 104.417 94.9803C104.417 94.9803 104.77 99.9545 100.265 106.21" stroke="#1F2723" stroke-width="0.8" stroke-linecap="round" stroke-linejoin="round"/>
<path d="M117.846 110.484C117.301 110.854 116.258 110.851 114.935 110.607C113.517 110.316 112.121 109.923 110.76 109.43C107.07 108.082 103.455 106.538 99.9282 104.807C99.9282 104.807 99.9446 98.029 103.925 95.4034C103.925 95.4034 109.087 98.9407 112.41 99.8161C115.195 100.566 117.846 110.484 117.846 110.484Z" fill="white"/>
<mask id="mask7_32_75" style="mask-type:luminance" maskUnits="userSpaceOnUse" x="99" y="95" width="19" height="16">
<path d="M117.846 110.484C117.301 110.854 116.258 110.851 114.935 110.607C113.517 110.316 112.121 109.923 110.76 109.43C107.07 108.082 103.455 106.538 99.9282 104.807C99.9282 104.807 99.9446 98.029 103.925 95.4034C103.925 95.4034 109.087 98.9407 112.41 99.8161C115.195 100.566 117.846 110.484 117.846 110.484Z" fill="white"/>
</mask>
<g mask="url(#mask7_32_75)">
<path opacity="0.2" d="M114.935 110.607C113.517 110.316 112.121 109.923 110.76 109.43C110.017 105.999 112.176 102.184 112.176 102.184C112.27 105.198 113.228 108.122 114.935 110.607Z" fill="#03B104"/>
</g>
<path d="M117.846 110.484C117.301 110.854 116.258 110.851 114.935 110.607C113.517 110.316 112.121 109.923 110.76 109.43C107.07 108.082 103.455 106.538 99.9282 104.807C99.9282 104.807 99.9446 98.029 103.925 95.4034C103.925 95.4034 109.087 98.9407 112.41 99.8161C115.195 100.566 117.846 110.484 117.846 110.484Z" stroke="#1F2723" stroke-width="0.8" stroke-linecap="round" stroke-linejoin="round"/>
<path d="M113.093 108.528C112.755 107.67 112.526 106.773 112.41 105.857L113.093 108.528Z" fill="white"/>
<path d="M113.093 108.528C112.755 107.67 112.526 106.773 112.41 105.857" stroke="#1F2723" stroke-width="0.8" stroke-linecap="round" stroke-linejoin="round"/>
<path d="M113.097 97.0811C114.562 97.3126 115.908 100.47 116.816 101.593C116.816 101.593 119.4 102.798 119.842 103.938C120.285 105.077 122.044 109.629 118.549 110.563C116.539 111.101 115.037 111.009 113.994 109.942" fill="white"/>
<path d="M113.097 97.0811C114.562 97.3126 115.908 100.47 116.816 101.593C116.816 101.593 119.4 102.798 119.842 103.938C120.285 105.077 122.044 109.629 118.549 110.563C116.539 111.101 115.037 111.009 113.994 109.942" stroke="#1F2723" stroke-width="0.8" stroke-linecap="round" stroke-linejoin="round"/>
<path d="M113.427 92.5925V92.6983C113.41 93.6696 113.136 95.5951 112.519 99.0067C111.941 102.197 111.833 102.445 111.447 102.607C110.974 102.802 107.591 103.555 106.149 103.865L105.835 103.931C105.627 103.977 105.08 103.69 105.116 103.482C105.288 102.428 106.463 92.9127 106.935 92.5826C107.651 92.114 112.282 91.671 112.796 91.813C112.953 91.8868 113.092 91.9954 113.201 92.1303C113.31 92.2652 113.387 92.4236 113.427 92.5925Z" fill="#999999"/>
<mask id="mask8_32_75" style="mask-type:luminance" maskUnits="userSpaceOnUse" x="105" y="91" width="9" height="13">
<path d="M113.427 92.5925V92.6983C113.41 93.6696 113.136 95.5951 112.519 99.0067C111.941 102.197 111.833 102.445 111.447 102.607C110.974 102.802 107.591 103.555 106.149 103.865L105.835 103.931C105.627 103.977 105.08 103.69 105.116 103.482C105.288 102.428 106.463 92.9127 106.935 92.5826C107.651 92.114 112.282 91.671 112.796 91.813C112.953 91.8868 113.092 91.9954 113.201 92.1303C113.31 92.2652 113.387 92.4236 113.427 92.5925Z" fill="white"/>
</mask>
<g mask="url(#mask8_32_75)">
<path opacity="0.2" d="M113.427 92.6983C113.41 93.6696 113.136 95.5951 112.519 99.0066C111.941 102.197 111.833 102.445 111.447 102.607C110.974 102.802 107.591 103.555 106.149 103.865C106.324 102.488 106.852 98.6403 107.941 93.3685L113.427 92.6983Z" fill="#1F2723"/>
</g>
<path d="M113.427 92.5925V92.6983C113.41 93.6696 113.136 95.5951 112.519 99.0067C111.941 102.197 111.833 102.445 111.447 102.607C110.974 102.802 107.591 103.555 106.149 103.865L105.835 103.931C105.627 103.977 105.08 103.69 105.116 103.482C105.288 102.428 106.463 92.9127 106.935 92.5826C107.651 92.114 112.282 91.671 112.796 91.813C112.953 91.8868 113.092 91.9954 113.201 92.1303C113.31 92.2652 113.387 92.4236 113.427 92.5925Z" stroke="#1F2723" stroke-width="0.8" stroke-linecap="round" stroke-linejoin="round"/>
<path d="M106.083 103.188C106.083 103.188 107.621 94.2177 107.76 93.666C107.899 93.1144 108.037 93.3359 112.658 92.731" stroke="#1F2723" stroke-width="0.8" stroke-linecap="round" stroke-linejoin="round"/>
<path d="M112.41 105.857C112.41 105.857 110.017 106.712 110.182 105.253C110.024 105.138 109.892 104.989 109.797 104.818C109.701 104.647 109.645 104.457 109.631 104.261C109.663 103.816 109.795 103.384 110.017 102.997C110.017 102.997 109.11 104.565 108.338 103.657C108.136 103.419 108.958 101.715 108.958 101.715C108.862 101.778 108.753 101.818 108.639 101.832C108.525 101.845 108.41 101.832 108.302 101.794C108.193 101.756 108.096 101.693 108.017 101.61C107.936 101.528 107.877 101.428 107.843 101.318C107.733 101.058 108.994 98.7128 109.271 98.5374C110.196 97.9566 112.602 96.7148 113.427 97.187C114.252 97.6591 114.526 99.1423 115.021 99.694C115.516 100.246 115.242 102.114 115.021 103.436" fill="white"/>
<path d="M112.41 105.857C112.41 105.857 110.017 106.712 110.182 105.253C110.024 105.138 109.892 104.989 109.797 104.818C109.701 104.647 109.645 104.457 109.631 104.261C109.663 103.816 109.795 103.384 110.017 102.997C110.017 102.997 109.11 104.565 108.338 103.657C108.136 103.419 108.958 101.715 108.958 101.715C108.862 101.778 108.753 101.818 108.639 101.832C108.525 101.845 108.41 101.832 108.302 101.794C108.193 101.756 108.096 101.693 108.017 101.61C107.936 101.528 107.877 101.428 107.843 101.318C107.733 101.058 108.994 98.7128 109.271 98.5374C110.196 97.9566 112.602 96.7148 113.427 97.187C114.252 97.6591 114.526 99.1423 115.021 99.694C115.516 100.246 115.242 102.114 115.021 103.436" stroke="#1F2723" stroke-width="0.8" stroke-linecap="round" stroke-linejoin="round"/>
<path d="M108.958 101.715C108.958 101.715 109.823 100.216 110.07 100.024C110.318 99.8324 112.41 99.2246 112.41 99.2246" fill="white"/>
<path d="M108.958 101.715C108.958 101.715 109.823 100.216 110.07 100.024C110.318 99.8324 112.41 99.2246 112.41 99.2246" stroke="#1F2723" stroke-width="0.8" stroke-linecap="round" stroke-linejoin="round"/>
<path d="M110.017 102.997C110.538 102.418 110.842 101.752 111.06 101.715C111.278 101.678 112.958 101.428 113.097 101.384" fill="white"/>
<path d="M110.017 102.997C110.538 102.418 110.842 101.752 111.06 101.715C111.278 101.678 112.958 101.428 113.097 101.384" stroke="#1F2723" stroke-width="0.8" stroke-linecap="round" stroke-linejoin="round"/>
<path d="M110.093 105.183C110.678 104.523 111.585 103.823 111.776 103.823C111.968 103.823 113.041 103.683 113.097 103.657" fill="white"/>
<path d="M110.093 105.183C110.678 104.523 111.585 103.823 111.776 103.823C111.968 103.823 113.041 103.683 113.097 103.657" stroke="#1F2723" stroke-width="0.8" stroke-linecap="round" stroke-linejoin="round"/>
<path d="M112.796 105.53C112.622 105.665 112.422 105.762 112.208 105.814C111.994 105.866 111.772 105.872 111.555 105.83" fill="white"/>
<path d="M112.796 105.53C112.622 105.665 112.422 105.762 112.208 105.814C111.994 105.866 111.772 105.872 111.555 105.83" stroke="#1F2723" stroke-width="0.8" stroke-linecap="round" stroke-linejoin="round"/>
<path d="M112.41 105.857C112.41 105.857 114.588 107.676 115.578 105.527L112.41 105.857Z" fill="white"/>
<path d="M112.41 105.857C112.41 105.857 114.588 107.676 115.578 105.527" stroke="#1F2723" stroke-width="0.8" stroke-linecap="round" stroke-linejoin="round"/>
<path d="M59.0593 86.5284L56.6995 86.466C53.4849 86.3864 47.97 86.2679 46.663 86.3502C45.0154 86.5086 43.4051 86.9381 41.8973 87.6218L36.5738 80.3557C37.3857 70.2852 43.8017 69.182 43.8017 69.182C43.8017 69.182 48.333 74.3576 49.9833 75.7677C51.6335 77.1785 59.0593 86.5284 59.0593 86.5284Z" fill="#03B104"/>
<path opacity="0.2" d="M56.6995 86.466C53.4849 86.3864 47.97 86.2679 46.663 86.3502C45.0154 86.5086 43.4051 86.9381 41.8973 87.6218L36.5738 80.3557C37.3857 70.2852 43.8017 69.182 43.8017 69.182C43.8017 69.182 44.1779 75.3488 39.257 79.5499C39.257 79.5499 40.7751 83.8169 44.0888 84.6626C47.4024 85.5082 53.8843 84.8145 56.6995 86.466Z" fill="#1F2723"/>
<path d="M59.0593 86.5284C59.0593 86.5284 51.6335 77.1785 49.9833 75.7677C48.333 74.3576 43.8017 69.182 43.8017 69.182C43.8017 69.182 37.3857 70.2852 36.5738 80.3557L41.8973 87.6218" stroke="#1F2723" stroke-width="0.8" stroke-linecap="round" stroke-linejoin="round"/>
<path d="M43.3792 70.3942C43.3792 70.3942 43.2637 75.7975 37.3857 78.7042L27.2106 64.2938C26.4944 60.3964 34.3064 58.9432 34.3064 58.9432L37.9897 63.5903L43.3792 70.3942Z" fill="white"/>
<mask id="mask9_32_75" style="mask-type:luminance" maskUnits="userSpaceOnUse" x="27" y="58" width="17" height="21">
<path d="M43.3792 70.3942C43.3792 70.3942 43.2637 75.7975 37.3857 78.7042L27.2106 64.2938C26.4944 60.3964 34.3064 58.9432 34.3064 58.9432L37.9897 63.5903L43.3792 70.3942Z" fill="white"/>
</mask>
<g mask="url(#mask9_32_75)">
<path opacity="0.2" d="M37.9929 63.5969C34.5572 66.3151 30.7321 63.3822 30.7321 63.3822L34.3064 58.9498L37.9929 63.5969Z" fill="#03B104"/>
</g>
<path d="M43.3792 70.3942C43.3792 70.3942 43.2637 75.7975 37.3857 78.7042L27.2106 64.2938C26.4944 60.3964 34.3064 58.9432 34.3064 58.9432L37.9897 63.5903L43.3792 70.3942Z" stroke="#1F2723" stroke-width="0.8" stroke-linecap="round" stroke-linejoin="round"/>
<path d="M27.2106 64.2938C26.7948 63.402 27.2106 61.2386 27.9499 58.7318C28.7981 55.855 30.0688 52.5191 31.0028 50.1444C31.5176 48.8232 31.9302 47.7894 32.1051 47.2841C32.8774 45.0811 36.8577 47.3931 36.5738 49.7051C36.29 52.0171 37.1184 60.1652 35.2734 62.2559C33.4285 64.3466 31.643 64.3037 31.643 64.3037" fill="white"/>
<mask id="mask10_32_75" style="mask-type:luminance" maskUnits="userSpaceOnUse" x="27" y="46" width="10" height="19">
<path d="M27.2106 64.2938C26.7948 63.402 27.2106 61.2386 27.9499 58.7318C28.7981 55.855 30.0688 52.5191 31.0028 50.1444C31.5176 48.8232 31.9302 47.7894 32.1051 47.2841C32.8774 45.0811 36.8577 47.3931 36.5738 49.7051C36.29 52.0171 37.1184 60.1652 35.2734 62.2559C33.4285 64.3466 31.643 64.3037 31.643 64.3037" fill="white"/>
</mask>
<g mask="url(#mask10_32_75)">
<path opacity="0.2" d="M33.6695 48.8067C33.6695 48.8067 32.1777 57.7244 30.7454 58.2429C29.8323 58.4993 28.8957 58.663 27.95 58.7318C28.7981 55.855 30.0688 52.5191 31.0028 50.1444L33.6695 48.8067Z" fill="#03B104"/>
</g>
<path d="M27.2106 64.2938C26.7948 63.402 27.2106 61.2386 27.9499 58.7318C28.7981 55.855 30.0688 52.5191 31.0028 50.1444C31.5176 48.8232 31.9302 47.7894 32.1051 47.2841C32.8774 45.0811 36.8577 47.3931 36.5738 49.7051C36.29 52.0171 37.1184 60.1652 35.2734 62.2559C33.4286 64.3466 31.643 64.3037 31.643 64.3037" stroke="#1F2723" stroke-width="0.8" stroke-linecap="round" stroke-linejoin="round"/>
<path d="M30.4153 53.9327C30.3442 54.0317 30.2543 54.1156 30.1507 54.1797C30.0471 54.2437 29.9318 54.2866 29.8116 54.306C29.6914 54.3253 29.5685 54.3207 29.4501 54.2923C29.3317 54.2639 29.2201 54.2125 29.1215 54.1408L15.217 44.0869C15.1183 44.0162 15.0345 43.9264 14.9706 43.823C14.9066 43.7197 14.8637 43.6046 14.8444 43.4846C14.825 43.3645 14.8296 43.2418 14.8579 43.1236C14.8862 43.0053 14.9376 42.8939 15.0091 42.7955L28.61 23.9693C28.7541 23.7702 28.9713 23.6365 29.2139 23.5975C29.4564 23.5585 29.7045 23.6174 29.9037 23.7612L43.8083 33.8151C44.0077 33.9589 44.142 34.1759 44.1816 34.4187C44.2212 34.6615 44.1629 34.91 44.0194 35.1098L30.4153 53.9327Z" fill="#BFBFBF" stroke="#1F2723" stroke-width="0.8" stroke-miterlimit="10"/>
<path d="M33.4368 25.8908L32.2287 27.564L39.4569 32.7906L40.665 31.1174L33.4368 25.8908Z" fill="#03B104" stroke="#1F2723" stroke-width="0.8" stroke-linecap="round" stroke-linejoin="round"/>
<path d="M29.4106 24.9122L16.1701 43.2505L29.6127 52.9707L42.8532 34.6323L29.4106 24.9122Z" fill="#03B104"/>
<mask id="mask11_32_75" style="mask-type:luminance" maskUnits="userSpaceOnUse" x="16" y="24" width="27" height="29">
<path d="M29.4106 24.9122L16.1701 43.2505L29.6127 52.9707L42.8532 34.6323L29.4106 24.9122Z" fill="white"/>
</mask>
<g mask="url(#mask11_32_75)">
<path opacity="0.7" d="M29.4106 24.9122L16.1701 43.2505L29.6127 52.9707L42.8532 34.6323L29.4106 24.9122Z" fill="white"/>
</g>
<path d="M29.4106 24.9122L16.1701 43.2505L29.6127 52.9707L42.8532 34.6323L29.4106 24.9122Z" stroke="#1F2723" stroke-width="0.8" stroke-linecap="round" stroke-linejoin="round"/>
<path d="M39.1811 31.2058L38.4484 32.2231C38.3937 32.298 38.3114 32.3479 38.2198 32.3622C38.1283 32.3764 38.0348 32.3538 37.9599 32.2991L36.1283 30.9779C36.1823 30.8294 36.1865 30.6672 36.1401 30.5161C36.0938 30.3649 35.9995 30.2331 35.8715 30.1404C35.7434 30.0478 35.5887 29.9995 35.4308 30.0027C35.2728 30.0061 35.1202 30.0609 34.9962 30.1588L33.1612 28.8377C33.1238 28.8109 33.0922 28.7768 33.068 28.7376C33.0439 28.6983 33.0279 28.6547 33.0208 28.6092C33.0138 28.5637 33.0158 28.5173 33.0269 28.4726C33.038 28.4278 33.0578 28.3858 33.0853 28.3489L33.818 27.3349C33.8727 27.2603 33.9547 27.2102 34.046 27.1953C34.1373 27.1805 34.2309 27.2021 34.3064 27.2556L39.1019 30.7236C39.1753 30.7778 39.2246 30.8585 39.2395 30.9486C39.2542 31.0387 39.2333 31.131 39.1811 31.2058Z" stroke="#1F2723" stroke-width="0.8" stroke-linecap="round" stroke-linejoin="round"/>
<path d="M35.2966 50.9437C35.2966 50.9437 37.3956 49.6225 37.8544 48.9983C38.3131 48.3741 39.5045 45.4609 39.224 44.5626C38.9435 43.6642 37.884 42.0657 37.8049 41.3787C37.7256 40.6917 36.3164 41.8939 37.115 44.7343C37.115 44.7343 35.2074 46.3164 35.0656 48.4203" fill="white"/>
<path d="M35.2966 50.9437C35.2966 50.9437 37.3956 49.6225 37.8544 48.9983C38.3131 48.3741 39.5045 45.4609 39.224 44.5626C38.9435 43.6642 37.884 42.0657 37.8049 41.3787C37.7256 40.6917 36.3164 41.8939 37.115 44.7343C37.115 44.7343 35.2074 46.3164 35.0656 48.4203" stroke="#1F2723" stroke-width="0.8" stroke-linecap="round" stroke-linejoin="round"/>
<path d="M34.1778 38.7661C34.1778 39.6597 33.9129 40.5333 33.4169 41.2763C32.9207 42.0193 32.2156 42.5984 31.3906 42.9404C30.5657 43.2824 29.6578 43.3719 28.782 43.1975C27.9062 43.0232 27.1017 42.5929 26.4703 41.961C25.8389 41.3291 25.4089 40.524 25.2346 39.6475C25.0605 38.7711 25.1498 37.8626 25.4916 37.037C25.8333 36.2113 26.412 35.5058 27.1545 35.0092C27.897 34.5127 28.7698 34.2478 29.6628 34.2478C30.2559 34.2473 30.8431 34.3639 31.3911 34.5908C31.9391 34.8178 32.437 35.1505 32.8563 35.5701C33.2757 35.9898 33.6082 36.4881 33.835 37.0365C34.0617 37.5848 34.1782 38.1726 34.1778 38.7661Z" fill="white" stroke="#1F2723" stroke-width="0.8" stroke-linecap="round" stroke-linejoin="round"/>
<path d="M27.4186 37.1443L27.9698 40.3151L33.016 38.9444" fill="white"/>
<path d="M27.4186 37.1443L27.9698 40.3151L33.016 38.9444" stroke="#1F2723" stroke-width="0.8" stroke-linecap="round" stroke-linejoin="round"/>
<path d="M57.4587 88.0513C57.4587 88.0513 50.98 89.0851 46.1054 91.7242C45.1346 92.2361 44.2208 92.8488 43.3793 93.5538C41.1119 95.4992 39.1316 99.5285 37.4385 102.722C35.993 105.444 34.9006 106.527 34.9006 106.527C30.3988 100.285 30.7486 95.2976 30.7486 95.2976L30.7916 95.2742C31.5242 94.8453 41.63 88.9758 44.2374 88.1933C46.9173 87.4003 57.4587 88.0513 57.4587 88.0513Z" fill="#03B104"/>
<path opacity="0.2" d="M46.1054 91.7242C45.1346 92.2361 44.2208 92.8488 43.3793 93.5539C41.1119 95.4993 39.1316 99.5285 37.4385 102.722C35.993 105.444 34.9006 106.527 34.9006 106.527C30.3988 100.285 30.7486 95.2976 30.7486 95.2976L30.7916 95.2742C31.1216 95.1194 33.4715 94.3434 36.5706 100.295C36.5738 100.308 38.7158 93.3096 46.1054 91.7242Z" fill="#1F2723"/>
<path d="M24.3426 80.9102C24.3426 80.9102 21.5108 80.1774 22.3623 82.8328C23.2138 85.4882 26.2469 85.4023 26.2469 85.4023" fill="white"/>
<path d="M24.3426 80.9102C24.3426 80.9102 21.5108 80.1774 22.3623 82.8328C23.2138 85.4882 26.2469 85.4023 26.2469 85.4023" stroke="#1F2723" stroke-width="0.8" stroke-linecap="round" stroke-linejoin="round"/>
<path d="M57.4587 88.0514C57.4587 88.0514 46.9172 87.3904 44.2406 88.2061C41.564 89.0219 30.7519 95.3111 30.7519 95.3111C30.7519 95.3111 30.4021 100.285 34.9038 106.54" stroke="#1F2723" stroke-width="0.8" stroke-linecap="round" stroke-linejoin="round"/>
<path d="M35.2437 105.15C35.2437 105.15 19.5636 110.834 17.0025 107.746C17.7325 105.744 18.6496 103.816 19.7418 101.986C20.59 100.645 21.5636 99.525 22.5406 99.268C23.9858 98.8498 25.4043 98.345 26.7881 97.755C29.1644 96.7638 31.2469 95.7471 31.2469 95.7471C35.2239 98.3727 35.2437 105.15 35.2437 105.15Z" fill="white"/>
<mask id="mask12_32_75" style="mask-type:luminance" maskUnits="userSpaceOnUse" x="17" y="95" width="19" height="14">
<path d="M35.2437 105.15C35.2437 105.15 19.5636 110.834 17.0025 107.746C17.7325 105.744 18.6496 103.816 19.7418 101.986C20.59 100.645 21.5636 99.525 22.5406 99.268C23.9858 98.8498 25.4043 98.345 26.7881 97.755C29.1644 96.7638 31.2469 95.7471 31.2469 95.7471C35.2239 98.3727 35.2437 105.15 35.2437 105.15Z" fill="white"/>
</mask>
<g mask="url(#mask12_32_75)">
<path opacity="0.2" d="M26.7881 97.7549C26.3393 99.8786 25.0785 103.839 21.9135 103.581C20.6858 103.482 20.0389 102.848 19.7418 101.986C20.5901 100.645 21.5637 99.525 22.5406 99.268C23.9858 98.8498 25.4043 98.345 26.7881 97.7549Z" fill="#03B104"/>
</g>
<path d="M35.2437 105.15C35.2437 105.15 19.5636 110.834 17.0025 107.746C17.7325 105.744 18.6496 103.816 19.7418 101.986C20.59 100.645 21.5636 99.525 22.5406 99.268C23.9858 98.8498 25.4043 98.345 26.7881 97.755C29.1644 96.7638 31.2469 95.7471 31.2469 95.7471C35.2239 98.3727 35.2437 105.15 35.2437 105.15Z" stroke="#1F2723" stroke-width="0.8" stroke-linecap="round" stroke-linejoin="round"/>
<path d="M18.2072 108.426C14.5173 108.592 14.283 99.8984 16.1378 86.9878C16.1378 86.9878 18.9828 81.3362 20.2963 81.2602C20.6494 81.2403 21.1379 81.2311 21.6593 81.2311C23.0752 81.2311 24.7518 81.2602 24.7518 81.2602C24.7518 81.2602 25.5109 84.5333 25.5175 85.6466C25.5175 87.3144 24.7947 87.5025 24.7947 87.5025C24.8343 89.0752 23.5637 89.2335 22.2006 89.0191C22.1767 89.0886 22.1446 89.1554 22.1049 89.2172C21.9234 89.521 21.4448 90.0855 20.2435 90.2374C20.2237 95.2742 25.1115 102.901 22.524 104.565" fill="white"/>
<mask id="mask13_32_75" style="mask-type:luminance" maskUnits="userSpaceOnUse" x="15" y="81" width="11" height="28">
<path d="M18.2072 108.426C14.5173 108.592 14.283 99.8984 16.1378 86.9878C16.1378 86.9878 18.9828 81.3362 20.2963 81.2602C20.6494 81.2403 21.1379 81.2311 21.6593 81.2311C23.0752 81.2311 24.7518 81.2602 24.7518 81.2602C24.7518 81.2602 25.5109 84.5333 25.5175 85.6466C25.5175 87.3144 24.7947 87.5025 24.7947 87.5025C24.8343 89.0752 23.5637 89.2335 22.2006 89.0191C22.1767 89.0886 22.1446 89.1554 22.1049 89.2172C21.9234 89.521 21.4448 90.0855 20.2435 90.2374C20.2237 95.2742 25.1115 102.901 22.524 104.565" fill="white"/>
</mask>
<g mask="url(#mask13_32_75)">
<path opacity="0.2" d="M25.5174 85.6466C25.5174 87.3144 24.7946 87.5025 24.7946 87.5025C24.8343 89.0752 23.5636 89.2335 22.2006 89.0191C22.1767 89.0886 22.1446 89.1554 22.1049 89.2172L22.524 87.9519C22.7451 88.0506 22.9931 88.0698 23.227 88.008C24.0521 87.6019 23.6197 86.1784 23.6197 86.1784C23.7811 86.1166 23.9224 86.0108 24.0283 85.8745C24.1342 85.7374 24.2006 85.5741 24.2204 85.4023C24.3491 84.742 22.9002 84.3125 22.9002 84.3125C23.3524 83.5556 22.3458 82.8328 22.3458 82.8328C22.7055 82.2911 22.2369 81.6961 21.6494 81.2311C23.0653 81.2311 24.7419 81.2602 24.7419 81.2602C24.7419 81.2602 25.5109 84.5333 25.5174 85.6466Z" fill="#03B104"/>
</g>
<path d="M18.2072 108.426C14.5173 108.592 14.283 99.8984 16.1378 86.9878C16.1378 86.9878 18.9828 81.3362 20.2963 81.2602C20.6494 81.2403 21.1379 81.2311 21.6593 81.2311C23.0752 81.2311 24.7518 81.2602 24.7518 81.2602C24.7518 81.2602 25.5109 84.5333 25.5175 85.6466C25.5175 87.3144 24.7947 87.5025 24.7947 87.5025C24.8343 89.0752 23.5637 89.2335 22.2006 89.0191C22.1767 89.0886 22.1446 89.1554 22.1049 89.2172C21.9234 89.521 21.4448 90.0855 20.2435 90.2374C20.2237 95.2742 25.1115 102.901 22.524 104.565" stroke="#1F2723" stroke-width="0.8" stroke-linecap="round" stroke-linejoin="round"/>
<path d="M24.7684 85.1645C24.3129 84.3253 23.874 84.8109 21.6825 84.2792C22.5167 84.3565 23.3577 84.3168 24.1809 84.1606" stroke="#1F2723" stroke-width="0.8" stroke-linecap="round" stroke-linejoin="round"/>
<path d="M21.435 82.6511C21.732 82.7832 23.0225 82.6873 23.6264 82.6511" stroke="#1F2723" stroke-width="0.8" stroke-linecap="round" stroke-linejoin="round"/>
<path d="M22.2006 86.1919C22.2006 86.1287 24.0456 86.2842 24.3459 86.5021C24.6462 86.7201 24.8343 87.5395 24.8343 87.5395" stroke="#1F2723" stroke-width="0.8" stroke-linecap="round" stroke-linejoin="round"/>
<path d="M23.6198 87.952C23.4812 88.0776 22.5241 87.952 22.5241 87.952C22.4824 88.3254 22.3704 88.6875 22.194 89.0191" stroke="#1F2723" stroke-width="0.8" stroke-linecap="round" stroke-linejoin="round"/>
<path d="M33.6695 79.8601C33.6695 82.5687 32.5638 84.9266 30.9334 86.1649H25.7023C24.0522 84.9266 22.963 82.5687 22.963 79.8601C22.963 79.7479 22.963 79.6385 22.963 79.5299H33.6464C33.6629 79.6421 33.6695 79.7479 33.6695 79.8601Z" fill="#757575"/>
<mask id="mask14_32_75" style="mask-type:luminance" maskUnits="userSpaceOnUse" x="22" y="79" width="12" height="8">
<path d="M33.6695 79.8601C33.6695 82.5687 32.5638 84.9266 30.9334 86.1649H25.7023C24.0522 84.9266 22.963 82.5687 22.963 79.8601C22.963 79.7479 22.963 79.6385 22.963 79.5299H33.6464C33.6629 79.6421 33.6695 79.7479 33.6695 79.8601Z" fill="white"/>
</mask>
<g mask="url(#mask14_32_75)">
<path opacity="0.2" d="M29.6628 85.8546L29.6397 86.1649H25.7023C24.0522 84.9266 22.963 82.5687 22.963 79.8601C22.963 79.7479 22.963 79.6385 22.963 79.5299H24.1247C24.9399 81.5016 26.7155 84.884 29.6628 85.8546Z" fill="#1F2723"/>
</g>
<path d="M33.6695 79.8601C33.6695 82.5687 32.5638 84.9266 30.9334 86.1649H25.7023C24.0522 84.9266 22.963 82.5687 22.963 79.8601C22.963 79.7479 22.963 79.6385 22.963 79.5299H33.6464C33.6629 79.6421 33.6695 79.7479 33.6695 79.8601Z" stroke="#1F2723" stroke-width="0.8" stroke-linecap="round" stroke-linejoin="round"/>
<path d="M31.3493 85.8546H25.2865L25.0026 86.6676H31.6331L31.3493 85.8546Z" fill="#757575" stroke="#1F2723" stroke-width="0.8" stroke-linecap="round" stroke-linejoin="round"/>
<path opacity="0.2" d="M31.6331 86.6676L31.3493 85.8546H25.2865L25.0026 86.6676" fill="#1F2723"/>
<path d="M26.6 72.9404C25.6792 74.523 28.1479 76.0126 26.9301 78.1824" stroke="#1F2723" stroke-width="0.8" stroke-linecap="round" stroke-linejoin="round"/>
<path d="M28.1809 72.9404C27.2601 74.5259 29.7288 76.0126 28.511 78.1824" stroke="#1F2723" stroke-width="0.8" stroke-linecap="round" stroke-linejoin="round"/>
<path d="M29.874 72.9404C28.9532 74.5259 31.4219 76.0126 30.204 78.1824" stroke="#1F2723" stroke-width="0.8" stroke-linecap="round" stroke-linejoin="round"/>
<path d="M91.8321 96.1958C89.4855 92.1899 79.7791 88.7053 68.9967 88.2693H68.9109L67.8515 88.2395H66.7756L65.7162 88.2693H65.6237C54.8447 88.6982 45.1416 92.1864 42.795 96.1958C40.29 100.474 36.5804 107.356 36.5804 107.356C38.6596 110.725 46.6466 111.177 46.6466 111.177L47.0723 120.241H87.555L87.9803 111.177C87.9803 111.177 95.9678 110.725 98.0467 107.356C98.0467 107.356 94.337 100.474 91.8321 96.1958Z" fill="#03B104" stroke="#1F2723" stroke-width="0.8" stroke-linecap="round" stroke-linejoin="round"/>
<path d="M55.4091 116.964C55.4091 116.964 36.7454 120.099 35.4022 117.539C35.2595 117.253 35.1679 116.945 35.1315 116.627C34.6926 113.539 37.3692 107.449 37.3692 107.449C39.4451 107.25 41.6234 107.779 43.366 108.44C44.5847 108.866 45.7523 109.427 46.8479 110.111L46.7093 110.415L46.6631 110.511L51.0229 110.649L54.924 110.775H55.0131L55.4091 116.964Z" fill="white"/>
<mask id="mask15_32_75" style="mask-type:luminance" maskUnits="userSpaceOnUse" x="35" y="107" width="21" height="12">
<path d="M55.4091 116.964C55.4091 116.964 36.7454 120.099 35.4022 117.539C35.2595 117.253 35.1679 116.945 35.1315 116.627C34.6926 113.539 37.3692 107.449 37.3692 107.449C39.4451 107.25 41.6234 107.779 43.366 108.44C44.5847 108.866 45.7523 109.427 46.8479 110.111L46.7093 110.415L46.6631 110.511L51.0229 110.649L54.924 110.775H55.0131L55.4091 116.964Z" fill="white"/>
</mask>
<g mask="url(#mask15_32_75)">
<path opacity="0.2" d="M46.7093 110.415C42.4386 110.497 40.8181 111.075 40.8181 111.075C41.4965 110.044 42.3605 109.148 43.366 108.433C44.5849 108.862 45.7526 109.425 46.8479 110.111L46.7093 110.415Z" fill="#03B104"/>
<path opacity="0.2" d="M55.4091 116.964C55.4091 116.964 36.7454 120.099 35.4022 117.539C35.2595 117.253 35.1679 116.945 35.1315 116.627C35.5911 116.816 36.0783 116.927 36.5738 116.958C39.0161 117.044 51.3332 115.521 51.3332 115.521L51.0229 110.653V110.494C52.2044 110.553 53.5048 110.643 54.9339 110.778H55.023L55.4091 116.964Z" fill="#03B104"/>
</g>
<path d="M55.4091 116.964C55.4091 116.964 36.7454 120.099 35.4022 117.539C35.2595 117.253 35.1679 116.945 35.1315 116.627C34.6926 113.539 37.3692 107.449 37.3692 107.449C39.4451 107.25 41.6234 107.779 43.366 108.44C44.5847 108.866 45.7523 109.427 46.8479 110.111L46.7093 110.415L46.6631 110.511L51.0229 110.649L54.924 110.775H55.0131L55.4091 116.964Z" stroke="#1F2723" stroke-width="0.8" stroke-linecap="round" stroke-linejoin="round"/>
<path d="M46.663 110.511C46.663 110.511 42.2537 110.392 40.3759 111.253" stroke="#1F2723" stroke-width="0.8" stroke-linecap="round" stroke-linejoin="round"/>
<path d="M86.3367 109.259C86.3367 109.259 84.6079 101.259 87.9576 97.3885" stroke="#1F2723" stroke-width="0.8" stroke-linecap="round" stroke-linejoin="round"/>
<path d="M89.2711 101.372C89.2711 101.372 87.0034 103.023 86.5909 105.695" stroke="#1F2723" stroke-width="0.8" stroke-linecap="round" stroke-linejoin="round"/>
<path d="M46.6631 96.457C48.5334 100.609 48.9869 105.262 47.9536 109.698" stroke="#1F2723" stroke-width="0.8" stroke-linecap="round" stroke-linejoin="round"/>
<path d="M44.4419 99.2246C44.4419 99.2246 46.8611 100.698 47.9536 102.997" stroke="#1F2723" stroke-width="0.8" stroke-linecap="round" stroke-linejoin="round"/>
<path d="M74.6899 89.22C74.6899 89.22 71.1122 98.3592 60.4653 93.4048" stroke="#1F2723" stroke-width="0.8" stroke-linecap="round" stroke-linejoin="round"/>
<path d="M91.2776 95.4162C89.7199 96.45 88.5441 97.9665 87.9314 99.733" stroke="#1F2723" stroke-width="0.8" stroke-linecap="round" stroke-linejoin="round"/>
<path d="M43.3429 95.4162C44.6086 96.1873 45.6056 97.3303 46.1977 98.6893" stroke="#1F2723" stroke-width="0.8" stroke-linecap="round" stroke-linejoin="round"/>
<path d="M59.0593 88.9232C59.0593 88.9232 60.2441 93.7881 67.0495 93.9003" stroke="#1F2723" stroke-width="0.8" stroke-linecap="round" stroke-linejoin="round"/>
<path d="M81.2283 93.9003C81.2283 93.9003 68.5744 106.266 59.6105 106.716" stroke="#1F2723" stroke-width="0.8" stroke-linecap="round" stroke-linejoin="round"/>
<path d="M52.5146 95.9913C52.5146 95.9913 54.2671 99.9282 57.4652 101.372" stroke="#1F2723" stroke-width="0.8" stroke-linecap="round" stroke-linejoin="round"/>
<path d="M79.307 116.964C79.307 116.964 97.9708 120.099 99.3141 117.539C99.4568 117.253 99.5484 116.945 99.5846 116.627C100.023 113.539 97.3474 107.449 97.3474 107.449C95.2714 107.25 93.0931 107.779 91.35 108.44C90.1324 108.868 88.9658 109.429 87.8717 110.114L88.0102 110.418L88.0563 110.514L83.6969 110.653L79.7955 110.778H79.7067L79.307 116.964Z" fill="white"/>
<mask id="mask16_32_75" style="mask-type:luminance" maskUnits="userSpaceOnUse" x="79" y="107" width="21" height="12">
<path d="M79.307 116.964C79.307 116.964 97.9708 120.099 99.3141 117.539C99.4568 117.253 99.5484 116.945 99.5846 116.627C100.023 113.539 97.3474 107.449 97.3474 107.449C95.2714 107.25 93.0931 107.779 91.35 108.44C90.1324 108.868 88.9658 109.429 87.8717 110.114L88.0102 110.418L88.0563 110.514L83.6969 110.653L79.7955 110.778H79.7067L79.307 116.964Z" fill="white"/>
</mask>
<g mask="url(#mask16_32_75)">
<path opacity="0.2" d="M88.0074 110.415C92.278 110.497 93.8982 111.075 93.8982 111.075C93.2195 110.044 92.3561 109.148 91.3501 108.433C90.1324 108.861 88.9659 109.423 87.8718 110.108L88.0074 110.415Z" fill="#03B104"/>
<path opacity="0.2" d="M79.307 116.964C79.307 116.964 97.9708 120.099 99.3141 117.539C99.4568 117.253 99.5484 116.945 99.5846 116.627C99.1252 116.816 98.6382 116.927 98.1426 116.958C95.7002 117.044 83.3831 115.521 83.3831 115.521L83.6934 110.653V110.494C82.5119 110.553 81.2112 110.643 79.7827 110.778H79.6933L79.307 116.964Z" fill="#03B104"/>
</g>
<path d="M79.307 116.964C79.307 116.964 97.9708 120.099 99.3141 117.539C99.4568 117.253 99.5484 116.945 99.5846 116.627C100.023 113.539 97.3474 107.449 97.3474 107.449C95.2714 107.25 93.0931 107.779 91.35 108.44C90.1324 108.868 88.9658 109.429 87.8717 110.114L88.0102 110.418L88.0563 110.514L83.6969 110.653L79.7955 110.778H79.7067L79.307 116.964Z" stroke="#1F2723" stroke-width="0.8" stroke-linecap="round" stroke-linejoin="round"/>
<path d="M88.0535 110.511C88.0535 110.511 92.4626 110.392 94.3242 111.253" stroke="#1F2723" stroke-width="0.8" stroke-linecap="round" stroke-linejoin="round"/>
<path d="M73.6341 89.2399C72.9263 90.3603 71.9301 91.2683 70.7493 91.8683C69.5689 92.4682 68.2484 92.738 66.9275 92.6486C63.0891 92.4569 60.4653 89.5438 60.4653 89.5438C61.8449 88.4241 62.0495 85.7161 61.9538 83.9291C61.9538 83.8865 61.9538 83.8496 61.9538 83.8105C61.9538 83.6948 61.9373 83.579 61.9307 83.4796C61.8699 82.7221 61.7519 81.9702 61.5775 81.2311L73.0661 81.8055C72.6444 82.9187 72.3909 84.0888 72.3135 85.2767C72.2844 85.7971 72.3142 86.3189 72.403 86.8323V86.882C72.7232 88.5895 73.6341 89.2399 73.6341 89.2399Z" fill="white" stroke="#1F2723" stroke-width="0.8" stroke-miterlimit="10"/>
<path d="M47.9536 115.422V116.65C47.9536 116.836 48.0272 117.014 48.1585 117.146C48.2897 117.277 48.4677 117.351 48.6532 117.351H85.6374C85.8227 117.351 86.0009 117.277 86.1322 117.146C86.2636 117.014 86.3367 116.836 86.3367 116.65V115.422H47.9536Z" fill="#757575" stroke="#1F2723" stroke-width="0.8" stroke-linecap="round" stroke-linejoin="round"/>
<path d="M90.8786 97.3453L86.1223 115.154C86.0662 115.337 85.9703 115.504 85.8411 115.645C85.7119 115.785 85.5536 115.895 85.3768 115.967C85.2547 116.016 85.1247 116.042 84.9934 116.043H49.3066C49.1754 116.042 49.0454 116.016 48.9238 115.967C48.747 115.895 48.5883 115.785 48.4593 115.645C48.3302 115.504 48.2341 115.337 48.178 115.154L43.4122 97.3453C43.374 97.2423 43.3622 97.1316 43.3779 97.0222C43.3935 96.9136 43.436 96.8106 43.5015 96.7219C43.5671 96.6338 43.6536 96.5636 43.7533 96.5174C43.8529 96.4706 43.9626 96.45 44.0722 96.4571H90.2282C90.3368 96.4521 90.4455 96.4741 90.5434 96.521C90.6421 96.5678 90.7273 96.6388 90.7912 96.7261C90.8558 96.8142 90.8977 96.9171 90.9126 97.0251C90.9276 97.133 90.9162 97.243 90.8786 97.3453Z" fill="#BFBFBF" stroke="#1F2723" stroke-width="0.8" stroke-miterlimit="10"/>
<path d="M90.0997 98.2768L85.3669 115.974C85.2455 116.023 85.1148 116.049 84.9842 116.05H49.3067C49.1754 116.049 49.0455 116.023 48.9238 115.974L44.1878 98.2832C44.1497 98.1802 44.1379 98.0695 44.1535 97.9601C44.1691 97.8515 44.2116 97.7486 44.2772 97.6598C44.3427 97.5718 44.4293 97.5015 44.5289 97.4553C44.6286 97.4085 44.7382 97.3879 44.8479 97.395H89.4529C89.5601 97.3907 89.6673 97.4135 89.7646 97.4603C89.8619 97.5072 89.9457 97.5775 90.0096 97.6641C90.0735 97.7514 90.1153 97.8522 90.131 97.9594C90.1466 98.0659 90.1359 98.1753 90.0997 98.2768Z" fill="#999999" stroke="#1F2723" stroke-width="0.8" stroke-linecap="round" stroke-linejoin="round"/>
<path d="M69.5611 108.232C68.505 108.232 67.6502 107.598 67.6502 106.818C67.6514 106.641 67.6955 106.466 67.779 106.309C67.5699 106.271 67.3579 106.251 67.1453 106.25C65.6667 106.25 64.4654 107.138 64.4654 108.232C64.4654 109.325 65.6667 110.213 67.1453 110.213C68.6239 110.213 69.8252 109.328 69.8252 108.232C69.7393 108.225 69.6502 108.232 69.5611 108.232Z" fill="#BFBFBF" stroke="#1F2723" stroke-width="0.8" stroke-miterlimit="10"/>
<path d="M73.0597 81.8019C72.638 82.9152 72.3845 84.0853 72.3071 85.2731C71.0597 86.5256 69.5314 87.4535 67.845 87.1894C65.406 86.806 63.3762 85.0026 61.9241 83.4768C61.8633 82.7192 61.7452 81.9674 61.5709 81.2275L73.0597 81.8019Z" fill="#1F2723"/>
<path d="M75.3998 73.4324C75.3998 73.4324 76.3271 72.4257 76.7822 72.7558C77.0896 73.0079 77.3218 73.3394 77.4532 73.7143C77.5852 74.0899 77.6108 74.4939 77.5284 74.883C77.2806 75.7378 76.2078 77.2274 76.1191 78.0964C76.0296 78.9648 75.4787 79.9524 74.8681 79.378C74.2575 78.8029 75.3998 73.4324 75.3998 73.4324Z" fill="white" stroke="#1F2723" stroke-width="0.8" stroke-miterlimit="10"/>
<path d="M58.891 73.4324C58.891 73.4324 57.9636 72.4257 57.5082 72.7558C57.2008 73.0079 56.9686 73.3394 56.8371 73.7143C56.7055 74.0899 56.6796 74.4939 56.7623 74.883C57.0131 75.7378 58.0824 77.2274 58.1715 78.0964C58.2606 78.9648 58.8118 79.9524 59.4224 79.378C60.033 78.8029 58.891 73.4324 58.891 73.4324Z" fill="white" stroke="#1F2723" stroke-width="0.8" stroke-miterlimit="10"/>
<path d="M66.9505 61.7869C78.6005 61.7869 75.8315 77.3105 73.6866 82.3011C72.934 84.0548 69.0331 86.3502 67.1453 86.3502C65.3894 86.3502 61.3761 83.6053 60.6633 81.961C58.495 76.9505 55.8448 61.7869 66.9505 61.7869Z" fill="white" stroke="#1F2723" stroke-width="0.8" stroke-miterlimit="10"/>
<path d="M68.9242 74.1759C68.9242 74.1759 71.8946 73.6277 72.8844 74.7999" stroke="#1F2723" stroke-width="0.8" stroke-linecap="round" stroke-linejoin="round"/>
<path d="M71.1718 76.4152C71.1718 76.7752 70.9902 77.0755 70.7658 77.0755C70.5414 77.0755 70.3599 76.7851 70.3599 76.4152C70.3599 76.0453 70.5414 75.7549 70.7658 75.7549C70.9902 75.7549 71.1718 76.0588 71.1718 76.4152Z" fill="#1F2723"/>
<path d="M65.3663 74.1758C65.3663 74.1758 62.627 73.9316 61.4059 74.7999" stroke="#1F2723" stroke-width="0.8" stroke-linecap="round" stroke-linejoin="round"/>
<path d="M63.1188 76.4152C63.1188 76.7752 63.3003 77.0755 63.5248 77.0755C63.7492 77.0755 63.9307 76.7851 63.9307 76.4152C63.9307 76.0453 63.7492 75.7549 63.5248 75.7549C63.3003 75.7549 63.1188 76.0588 63.1188 76.4152Z" fill="#1F2723"/>
<path d="M71.7725 65.7702C68.853 66.7051 65.7148 66.7051 62.7954 65.7702C62.7954 65.7702 61.2211 65.681 60.6006 66.4704C59.9802 67.2597 60.6006 69.7038 60.7656 70.698C60.9306 71.6923 59.4026 72.3824 59.6072 74.8958L59.0164 75.7613C59.0164 75.7613 57.3662 71.7185 57.7853 68.2407C58.2045 64.7628 60.3927 63.4119 60.3927 63.4119C60.3927 63.4119 61.3828 60.4063 67.2574 60.4393C73.5745 60.4658 74.2149 63.8875 74.2149 63.8875C74.2149 63.8875 78.5054 66.7445 75.3303 76.0616L74.6402 74.9057C74.8042 73.6703 74.5209 72.4165 73.8414 71.3721C73.2905 70.5658 74.1716 68.1416 73.9635 66.8997C73.7562 65.6578 71.7725 65.7702 71.7725 65.7702Z" fill="#1F2723"/>
<path d="M67.8384 75.7676C67.8384 75.7676 68.0133 78.4103 68.5282 79.4277C69.0431 80.4444 67.2443 80.6063 66.4753 80.0085" stroke="#1F2723" stroke-width="0.8" stroke-linecap="round" stroke-linejoin="round"/>
<path d="M64.9043 82.1356C64.9043 82.5389 66.2245 83.0473 67.5446 83.0473C68.8648 83.0473 69.835 82.4991 69.6404 82.2975" stroke="#1F2723" stroke-width="0.8" stroke-linecap="round" stroke-linejoin="round"/>
<path d="M75.2607 67.4579C75.2607 67.4579 73.551 69.7699 69.6701 71.3919V70.2819C69.6701 70.2819 66.1617 72.31 63 71.999L63.7161 70.5593C63.7161 70.5593 61.0495 73.3835 58.7953 73.2741C56.5411 73.1655 55.8876 60.4163 67.2575 60.4163C76.4982 60.4163 75.2607 67.4579 75.2607 67.4579Z" fill="#1F2723"/>
<path d="M73.3466 68.2274C73.3466 68.2274 72.7395 71.5999 75.9175 74.07C75.9175 74.07 77.799 72.0423 77.0726 68.2274C76.347 64.4127 74.6899 64.2938 74.6899 64.2938L73.3466 68.2274Z" fill="#1F2723"/>
<path opacity="0.2" d="M71.9308 62.9627C71.9308 62.9627 70.746 67.9996 66.3895 70.5593" stroke="white" stroke-width="0.8" stroke-miterlimit="10"/>
<path opacity="0.2" d="M69.1585 62.9627C69.1585 62.9627 67.2278 67.917 60.0494 68.7427" stroke="white" stroke-width="0.8" stroke-miterlimit="10"/>
<path opacity="0.2" d="M73.6341 64.8156C73.6341 64.8156 73.6632 67.4216 71.9308 68.7427" stroke="white" stroke-width="0.8" stroke-miterlimit="10"/>
<path d="M115.298 25.8916L118.575 19.5302" stroke="#1F2723" stroke-width="0.8" stroke-linecap="round" stroke-linejoin="round"/>
<path d="M118.575 29.3431L125.948 24.914" stroke="#1F2723" stroke-width="0.8" stroke-linecap="round" stroke-linejoin="round"/>
<path d="M121.624 34.654L128.024 34.2478" stroke="#1F2723" stroke-width="0.8" stroke-linecap="round" stroke-linejoin="round"/>
<path d="M16.6494 122.47H11.5338V118.081C11.5338 117.887 11.6106 117.702 11.7475 117.565C11.8843 117.428 12.0698 117.351 12.2632 117.351H122.018C122.211 117.351 122.396 117.428 122.533 117.565C122.67 117.702 122.747 117.887 122.747 118.081V122.47" fill="white"/>
<path d="M16.6494 122.47H11.5338V118.081C11.5338 117.887 11.6106 117.702 11.7475 117.565C11.8843 117.428 12.0698 117.351 12.2632 117.351H122.018C122.211 117.351 122.396 117.428 122.533 117.565C122.67 117.702 122.747 117.887 122.747 118.081V122.47" stroke="#1F2723" stroke-width="0.8" stroke-miterlimit="10"/>
<path d="M116.816 122.47H71.1718" stroke="#1F2723" stroke-width="0.8" stroke-miterlimit="10"/>
<path d="M67.9011 122.47H64.6238" stroke="#1F2723" stroke-width="0.8" stroke-miterlimit="10"/>
<path d="M43.3793 122.47H19.2897" stroke="#1F2723" stroke-width="0.8" stroke-miterlimit="10"/>
</svg>
