<svg width="142" height="142" viewBox="0 0 142 142" fill="none" xmlns="http://www.w3.org/2000/svg">
<path d="M24.85 12.78V75.5966H47.8321V12.78H24.85ZM46.6737 14.1748V23.4454H37.1161V14.1748H46.6737ZM35.6808 14.1748V23.4454H26.0083V14.1748H35.6808ZM26.0083 24.9178H35.6808V34.1174H26.0083V24.9178ZM46.6737 74.1986H26.0083V35.698H46.6737V74.1986ZM37.1161 34.1174V24.9178H46.6737V34.1174H37.1161Z" stroke="#1F2723" stroke-opacity="0.12" stroke-width="0.8" stroke-linecap="round" stroke-linejoin="round"/>
<path d="M47.7409 12.78V75.5966H70.723V12.78H47.7409ZM69.5647 14.1748V23.4454H60.0003V14.1748H69.5647ZM58.5717 14.1748V23.4454H48.8993V14.1748H58.5717ZM48.8993 24.9178H58.5717V34.1174H48.8993V24.9178ZM69.5647 74.1986H48.8993V35.698H69.5647V74.1986ZM60.0003 34.1174V24.9178H69.5647V34.1174H60.0003Z" stroke="#1F2723" stroke-opacity="0.12" stroke-width="0.8" stroke-linecap="round" stroke-linejoin="round"/>
<path d="M41.5302 46.137L35.7619 52.5133" stroke="#1F2723" stroke-opacity="0.12" stroke-width="0.8" stroke-linecap="round" stroke-linejoin="round"/>
<path d="M42.9622 44.5565L42.0436 45.5696" stroke="#1F2723" stroke-opacity="0.12" stroke-width="0.8" stroke-linecap="round" stroke-linejoin="round"/>
<path d="M29.4869 57.1636L28.3049 58.3963" stroke="#1F2723" stroke-opacity="0.12" stroke-width="0.8" stroke-linecap="round" stroke-linejoin="round"/>
<path d="M37.15 49.1699L30.3718 56.2418" stroke="#1F2723" stroke-opacity="0.12" stroke-width="0.8" stroke-linecap="round" stroke-linejoin="round"/>
<path d="M64.7758 48.0857L59.0074 54.4619" stroke="#1F2723" stroke-opacity="0.12" stroke-width="0.8" stroke-linecap="round" stroke-linejoin="round"/>
<path d="M66.2078 46.5019L65.2891 47.5151" stroke="#1F2723" stroke-opacity="0.12" stroke-width="0.8" stroke-linecap="round" stroke-linejoin="round"/>
<path d="M52.7359 59.1091L51.5539 60.3418" stroke="#1F2723" stroke-opacity="0.12" stroke-width="0.8" stroke-linecap="round" stroke-linejoin="round"/>
<path d="M60.3955 51.1151L53.6174 58.1871" stroke="#1F2723" stroke-opacity="0.12" stroke-width="0.8" stroke-linecap="round" stroke-linejoin="round"/>
<path d="M73.7932 12.78V75.5966H96.7581V12.78H73.7932ZM95.6171 14.1748V23.4454H86.0527V14.1748H95.6171ZM84.6242 14.1748V23.4454H74.9412V14.1748H84.6242ZM74.9412 24.9178H84.6136V34.1174H74.9412V24.9178ZM95.6065 74.1986H74.9412V35.698H95.6065V74.1986ZM86.0527 34.1174V24.9178H95.6171V34.1174H86.0527Z" stroke="#1F2723" stroke-opacity="0.12" stroke-width="0.8" stroke-linecap="round" stroke-linejoin="round"/>
<path d="M96.6843 12.78V75.5966H119.649V12.78H96.6843ZM118.508 14.1748V23.4454H108.943V14.1748H118.508ZM107.515 14.1748V23.4454H97.8423V14.1748H107.515ZM97.8423 24.9178H107.515V34.1174H97.8423V24.9178ZM118.508 74.1986H97.8423V35.698H118.508V74.1986ZM108.943 34.1174V24.9178H118.508V34.1174H108.943Z" stroke="#1F2723" stroke-opacity="0.12" stroke-width="0.8" stroke-linecap="round" stroke-linejoin="round"/>
<path d="M90.4732 46.137L84.7051 52.5133" stroke="#1F2723" stroke-opacity="0.12" stroke-width="0.8" stroke-linecap="round" stroke-linejoin="round"/>
<path d="M91.9053 44.5565L90.9865 45.5696" stroke="#1F2723" stroke-opacity="0.12" stroke-width="0.8" stroke-linecap="round" stroke-linejoin="round"/>
<path d="M78.4301 57.1636L77.248 58.3963" stroke="#1F2723" stroke-opacity="0.12" stroke-width="0.8" stroke-linecap="round" stroke-linejoin="round"/>
<path d="M86.0932 49.1699L79.3148 56.2418" stroke="#1F2723" stroke-opacity="0.12" stroke-width="0.8" stroke-linecap="round" stroke-linejoin="round"/>
<path d="M113.719 48.0857L107.951 54.4619" stroke="#1F2723" stroke-opacity="0.12" stroke-width="0.8" stroke-linecap="round" stroke-linejoin="round"/>
<path d="M115.151 46.5019L114.232 47.5151" stroke="#1F2723" stroke-opacity="0.12" stroke-width="0.8" stroke-linecap="round" stroke-linejoin="round"/>
<path d="M101.679 59.1091L100.497 60.3418" stroke="#1F2723" stroke-opacity="0.12" stroke-width="0.8" stroke-linecap="round" stroke-linejoin="round"/>
<path d="M109.339 51.1151L102.56 58.1871" stroke="#1F2723" stroke-opacity="0.12" stroke-width="0.8" stroke-linecap="round" stroke-linejoin="round"/>
<path d="M12.4349 85.1894C12.4349 85.1894 11.7542 82.0327 8.03365 82.0327C4.31305 82.0327 0 84.2479 0 84.2479C0 84.2479 4.01681 85.4294 6.08341 86.346C8.15002 87.2633 11.3416 87.5523 12.4349 85.1894Z" fill="#03B104"/>
<path d="M16.9736 86.7443C16.9383 86.7443 14.5296 85.2213 15.1503 83.0061C15.771 80.7916 18.7263 78.0688 18.9626 76.3903C18.9626 76.3903 22.9054 85.9931 16.9736 86.7443Z" fill="#03B104"/>
<path d="M22.8771 90.0734C22.8771 90.0734 21.8509 87.8412 24.0973 86.1343C26.3438 84.4275 33.4005 84.2479 33.4005 84.2479C33.4005 84.2479 30.477 86.314 29.5001 87.8802C28.5233 89.4458 24.912 92.0344 22.8771 90.0734Z" fill="#03B104"/>
<path d="M27.6451 79.0493C27.6451 79.0493 26.8163 76.6615 30.1137 75.5227C33.4111 74.3839 37.1423 74.7822 38.9726 73.7768C38.9549 73.7633 32.2226 83.8034 27.6451 79.0493Z" fill="#03B104"/>
<path d="M12.0893 80.7242C12.0893 80.7242 13.2742 74.4045 6.34088 71.8371C6.34088 71.8371 7.51878 73.0824 7.39886 75.664C7.27894 78.2456 7.28249 81.0351 12.0893 80.7242Z" fill="#03B104"/>
<path opacity="0.2" d="M12.4349 85.1894C12.4349 85.1894 11.7542 82.0327 8.03365 82.0327C4.31305 82.0327 0 84.2479 0 84.2479C0 84.2479 4.01681 85.4294 6.08341 86.346C8.15002 87.2633 11.3416 87.5523 12.4349 85.1894Z" fill="#1F2723"/>
<path opacity="0.2" d="M16.9736 86.7443C16.9383 86.7443 14.5296 85.2213 15.1503 83.0061C15.771 80.7916 18.7263 78.0688 18.9626 76.3903C18.9626 76.3903 22.9054 85.9931 16.9736 86.7443Z" fill="#1F2723"/>
<path opacity="0.2" d="M22.8771 90.0734C22.8771 90.0734 21.8509 87.8412 24.0973 86.1343C26.3438 84.4275 33.4005 84.2479 33.4005 84.2479C33.4005 84.2479 30.477 86.314 29.5001 87.8802C28.5233 89.4458 24.912 92.0344 22.8771 90.0734Z" fill="#1F2723"/>
<path opacity="0.2" d="M27.6451 79.0493C27.6451 79.0493 26.8163 76.6615 30.1137 75.5227C33.4111 74.3839 37.1423 74.7822 38.9726 73.7768C38.9549 73.7633 32.2226 83.8034 27.6451 79.0493Z" fill="#1F2723"/>
<path opacity="0.2" d="M12.0893 80.7242C12.0893 80.7242 13.2742 74.4045 6.34088 71.8371C6.34088 71.8371 7.51878 73.0824 7.39886 75.664C7.27894 78.2456 7.28249 81.0351 12.0893 80.7242Z" fill="#1F2723"/>
<path d="M13.9408 94.3547H23.907L22.2636 101.979H15.8346L13.9408 94.3547Z" fill="#1F2723"/>
<path d="M20.003 94.6756L23.1876 83.7502L27.497 75.5085" stroke="#1F2723" stroke-width="0.8" stroke-linecap="round" stroke-linejoin="round"/>
<path d="M24.4994 89.1817L21.0504 91.0859" stroke="#1F2723" stroke-width="0.8" stroke-linecap="round" stroke-linejoin="round"/>
<path d="M11.3275 78.8164L17.7565 94.6757" stroke="#1F2723" stroke-width="0.8" stroke-linecap="round" stroke-linejoin="round"/>
<path d="M17.7565 84.2479L15.9156 90.1338" stroke="#1F2723" stroke-width="0.8" stroke-linecap="round" stroke-linejoin="round"/>
<path d="M10.5763 84.2479L14.2934 86.1343" stroke="#1F2723" stroke-width="0.8" stroke-linecap="round" stroke-linejoin="round"/>
<path d="M24.4993 81.2396L30.4558 77.9772" stroke="#1F2723" stroke-width="0.8" stroke-linecap="round" stroke-linejoin="round"/>
<path d="M82.3323 133.063C85.0182 132.84 87.6914 132.48 90.3411 131.984C98.0503 130.524 106.211 127.879 111.751 122.057C118.268 115.225 119.634 104.342 116.124 95.73C113.405 89.0652 107.53 83.6692 100.54 81.9304C95.7016 80.7249 90.486 81.2077 85.8269 79.427C78.6119 76.6686 74.3619 69.1784 67.8414 65.0346C61.3207 60.8909 52.677 60.5029 45.5285 63.4935C38.3801 66.4841 32.734 72.6025 29.7082 79.7372C26.6823 86.8713 26.1568 94.9405 27.571 102.547C29.0346 110.45 32.3037 117.955 38.9937 122.772C44.7069 126.888 53.2271 131.321 59.8572 132.259C67.2957 133.362 74.834 133.632 82.3323 133.063Z" fill="#03B104"/>
<path opacity="0.1" d="M70.3312 93.9529C70.3312 93.9529 82.2797 100.258 82.7412 97.0279C83.2035 93.7981 94.785 84.4772 94.785 84.4772C89.4138 91.5936 92.7324 100.28 92.7324 100.28C100.361 95.434 107.057 95.9842 107.057 95.9842C98.8476 98.1 90.405 107.904 90.405 107.904L74.1573 113.127C74.1573 113.127 55.2514 111.555 53.3118 101.842C51.3722 92.1296 39.8824 80.9471 39.8824 80.9471L48.9352 87.242C53.2342 83.6444 48.4063 74.0949 48.4063 74.0949C56.5633 76.9512 57.5754 86.0605 57.5754 86.0605L70.3312 93.9529Z" fill="#1F2723"/>
<path d="M36.1655 79.5676C36.1655 79.5676 51.5909 83.4016 56.2072 99.8317" stroke="#1F2723" stroke-width="0.8" stroke-linecap="round" stroke-linejoin="round"/>
<path d="M46.188 72.7651C46.188 72.7651 57.0465 76.9967 53.869 93.9529" stroke="#1F2723" stroke-width="0.8" stroke-linecap="round" stroke-linejoin="round"/>
<path d="M85.9221 106.074C85.9221 106.074 95.9771 94.2142 110.2 96.1993" stroke="#1F2723" stroke-width="0.8" stroke-linecap="round" stroke-linejoin="round"/>
<path d="M86.2785 101.782C86.2785 101.782 87.7915 85.3619 98.9286 82.5865" stroke="#1F2723" stroke-width="0.8" stroke-linecap="round" stroke-linejoin="round"/>
<path d="M65.2388 97.7194C65.2388 97.7194 61.3596 97.8358 55.6958 96.5728C50.0321 95.3104 45.4051 96.2206 44.527 101.158C43.6489 106.095 58.0833 111.124 68.1237 112.961C78.1639 114.798 88.2253 115.592 93.1059 113.667C97.9871 111.741 97.8742 104.73 95.9906 101.521C94.1077 98.3115 87.8341 97.8564 84.5681 98.347C81.3028 98.8369 65.2388 97.7194 65.2388 97.7194Z" fill="#1F2723"/>
<path d="M84.9735 114.943C79.2005 114.943 72.5003 113.931 68.0883 113.124C57.9775 111.279 43.4373 106.19 44.3365 101.133C44.6892 99.2396 45.585 97.8323 47.0309 96.9612C48.9988 95.7655 52.014 95.5859 55.7416 96.4109C61.296 97.6484 65.1929 97.5533 65.2318 97.5498C65.3939 97.5498 81.3163 98.58 84.5191 98.1284C87.4387 97.7159 94.1183 97.9836 96.139 101.422C97.3133 103.425 97.9026 107.019 96.7631 110.017C96.4656 110.866 95.9906 111.643 95.3694 112.294C94.7488 112.946 93.9962 113.458 93.1627 113.797C91.0923 114.63 88.1721 114.943 84.9735 114.943ZM51.545 96.2519C49.7993 96.2519 48.3428 96.6047 47.239 97.2501C45.8812 98.0716 45.0313 99.3979 44.7104 101.193C43.8851 105.823 57.8012 110.906 68.1624 112.799C74.976 114.044 87.2732 115.786 93.0178 113.486C93.8045 113.164 94.5131 112.678 95.0974 112.061C95.6818 111.444 96.1283 110.71 96.4067 109.907C97.5001 107.03 96.915 103.468 95.8074 101.581C93.8819 98.3045 87.4074 98.0546 84.5823 98.46C81.3447 98.9186 65.9935 97.9417 65.2176 97.892C61.99 97.8622 58.7754 97.4766 55.6323 96.7425C54.2918 96.4301 52.9213 96.2639 51.545 96.2483V96.2519Z" fill="#1F2723"/>
<path d="M89.1355 66.2583C88.98 65.3026 88.8529 64.3081 88.7223 63.3453C88.4951 61.171 88.1025 59.0171 87.5479 56.9022C86.8919 54.2996 85.8305 51.6616 83.1928 50.2298C81.6251 49.4021 79.8771 48.9762 78.1042 48.9903C76.3314 49.0045 74.5904 49.4583 73.0363 50.311C71.3074 51.2955 69.946 52.8155 69.1569 54.6416C68.3388 56.5777 68.9841 58.8489 69.0758 60.8767C69.1851 63.5698 68.8806 66.2637 68.173 68.8645C71.8797 70.9028 81.5357 75.0569 89.5196 68.5118L89.1355 66.2583Z" fill="#1F2723"/>
<path d="M76.9434 69.3124C76.9434 69.3124 70.7298 70.0847 67.8098 70.7724C64.8897 71.4601 63.8564 72.437 62.8055 74.2532C61.7546 76.0694 60.1923 82.8229 58.6864 85.6579C57.1806 88.4937 54.4544 89.2449 53.9714 92.2496C53.4882 95.2543 56.1367 96.2873 58.1151 96.6331C59.5798 96.861 61.0563 97.0044 62.5375 97.0634C62.5375 97.0634 65.7396 103.937 71.9535 104.452C78.1675 104.966 82.7803 101.013 85.6054 99.5533C88.4298 98.0929 88.6165 94.7431 88.7117 90.8779C88.8075 87.0126 91.311 78.3158 90.6514 75.9103C89.9925 73.5056 89.0049 73.1108 84.7271 71.1001C82.8968 70.2504 79.5782 69.1396 76.9434 69.3124Z" fill="white"/>
<path d="M88.0457 72.9837C88.0457 72.9837 86.106 75.1627 85.9789 77.3992C85.8518 79.635 85.6083 92.2389 85.6083 92.2389C85.6083 92.2389 82.6461 83.895 81.4718 82.2904C81.4718 82.2904 84.5646 76.5522 84.6455 71.2485C85.9121 71.5169 87.0851 72.1154 88.0457 72.9837Z" fill="#03B104"/>
<path d="M73.0718 104.663C72.6948 104.67 72.3178 104.656 71.9429 104.621C66.1028 104.134 62.8478 98.0894 62.4211 97.2154C60.9695 97.1543 59.5225 97.0116 58.0869 96.7886C56.2636 96.4713 53.2871 95.4553 53.7914 92.2035C54.0736 90.4157 55.128 89.3826 56.2424 88.3247C57.1509 87.5331 57.9219 86.5959 58.5242 85.5529C59.3212 84.0505 60.1535 81.3838 60.8941 79.0244C61.5394 76.9619 62.153 74.9938 62.6574 74.1368C63.6942 72.3348 64.7733 71.2911 67.7886 70.5786C70.6804 69.8909 76.8767 69.1221 76.9399 69.115C79.525 68.9422 82.8087 69.9896 84.8258 70.9312L85.1993 71.1037C89.1284 72.9412 90.1863 73.4353 90.8424 75.8436C91.2194 77.2544 90.5953 80.5659 89.9286 84.0924C89.4458 86.6108 88.9516 89.2129 88.9097 90.8708C88.8245 94.4364 88.733 98.1284 85.7105 99.6869C85.1396 99.9801 84.512 100.375 83.7821 100.819C81.1154 102.473 77.5398 104.663 73.0718 104.663ZM76.9505 69.4782C76.7247 69.5065 70.6804 70.2682 67.8485 70.9347C64.9532 71.6227 63.9692 72.5713 62.9536 74.3164C62.4775 75.1422 61.8744 77.0819 61.229 79.1274C60.4744 81.4931 59.6527 84.1769 58.8381 85.7077C58.2179 86.7826 57.4256 87.7489 56.4928 88.5676C55.3608 89.6503 54.4015 90.5818 54.1406 92.2603C53.6998 95.0811 56.0661 96.09 58.1292 96.45C59.5856 96.6765 61.054 96.8192 62.5269 96.8767C62.5612 96.8774 62.5947 96.8866 62.6238 96.9051C62.653 96.9228 62.6767 96.9484 62.6926 96.9789C62.7244 97.0492 65.9265 103.764 71.95 104.265C76.8447 104.67 80.7135 102.279 83.5421 100.537C84.2969 100.079 84.9139 99.6869 85.4925 99.3872C88.1302 98.0155 88.4049 94.9931 88.5036 90.8601C88.5462 89.1782 89.0432 86.5611 89.5267 84.0292C90.1579 80.7071 90.814 77.2722 90.4469 75.9388C89.8299 73.6781 88.9026 73.2479 84.9984 71.4211L84.6213 71.245C82.6852 70.3387 79.4795 69.3195 76.9612 69.4818L76.9505 69.4782Z" fill="#1F2723"/>
<path d="M64.0434 93.6249C64.0204 93.632 63.9958 93.632 63.9728 93.6249C63.951 93.6185 63.9308 93.6071 63.9136 93.5922C63.8965 93.5773 63.8825 93.5589 63.8729 93.5383C63.8632 93.5177 63.8581 93.4957 63.8576 93.4729C63.8573 93.4502 63.8616 93.4275 63.8705 93.4062C63.8917 93.3643 65.7538 89.1285 65.7538 87.9719C65.7538 87.1603 65.3482 86.3389 64.8756 85.3868C64.6711 84.9742 64.4595 84.5475 64.2585 84.0818C63.6095 82.5517 65.0872 80.1533 65.2918 79.8502C65.3835 79.2261 66.3956 72.3277 67.3725 71.0334C67.4029 70.9963 67.4458 70.9716 67.4932 70.9637C67.5406 70.9559 67.5892 70.9657 67.6299 70.9911C67.6497 71.0029 67.6668 71.0185 67.6802 71.0377C67.6935 71.0561 67.7028 71.0774 67.7075 71.1001C67.7121 71.1229 67.712 71.1463 67.7072 71.1683C67.7023 71.191 67.6928 71.2123 67.6793 71.2308C66.7306 72.4797 65.6656 79.8537 65.6585 79.924C65.6528 79.9474 65.6433 79.9702 65.6303 79.9908C65.6303 80.0156 63.9939 82.5162 64.6111 83.9653C64.8016 84.4204 65.0132 84.8436 65.2177 85.2561C65.7043 86.2402 66.1276 87.0971 66.1276 87.979C66.1276 89.1987 64.3078 93.3643 64.2444 93.5404C64.2243 93.5738 64.194 93.6007 64.1578 93.6157C64.1216 93.6313 64.0815 93.6341 64.0434 93.6249Z" fill="#1F2723"/>
<path d="M62.5374 94.8276C62.5374 94.8276 64.7804 96.0403 66.459 96.3825L62.5374 94.8276Z" fill="white"/>
<path d="M64.798 97.4056C65.5139 97.6492 66.2608 97.7905 67.0163 97.8253L64.798 97.4056Z" fill="white"/>
<path d="M62.8231 95.7023C64.0227 96.467 65.3479 97.0137 66.7376 97.3176L62.8231 95.7023Z" fill="white"/>
<path d="M73.6036 68.2898C73.6036 68.2898 72.7608 72.758 72.6763 75.5085C72.5918 78.2597 74.8631 81.0387 78.0616 77.505C81.2602 73.9713 80.7561 68.1346 80.7561 68.1346C78.4791 69.098 75.9203 69.1534 73.6036 68.2898Z" fill="white"/>
<path d="M74.0729 72.8425L74.0409 70.2047L73.3075 69.778L71.5197 69.9684L71.2166 71.0227L74.0729 72.8425Z" fill="#03B104"/>
<path d="M73.7697 74.07H73.7378C73.7143 74.0679 73.6916 74.0608 73.671 74.0494C73.6504 74.0381 73.6327 74.0232 73.6178 74.0047C73.6036 73.9862 73.5929 73.9649 73.5865 73.9422C73.5809 73.9195 73.5794 73.8954 73.583 73.8726C73.8294 72.5989 73.6675 70.2505 73.6675 70.2258C73.6668 70.2026 73.6703 70.1796 73.6781 70.1578C73.6859 70.136 73.6987 70.1161 73.7143 70.0991C73.73 70.082 73.7484 70.0682 73.7697 70.0585C73.791 70.0488 73.8137 70.0433 73.8365 70.0424C73.8847 70.0393 73.9316 70.0542 73.9692 70.0843C74.0061 70.1143 74.031 70.1573 74.0381 70.2046C74.0381 70.2999 74.2071 72.6095 73.9493 73.9323C73.9415 73.9727 73.9181 74.0097 73.8855 74.0345C73.8521 74.0601 73.8109 74.0721 73.7697 74.07Z" fill="#1F2723"/>
<path d="M54.9411 113.088C54.9411 113.088 53.0615 114.005 49.5454 114.118C46.0294 114.231 43.1446 112.514 44.7739 111.138C45.6615 110.414 46.687 109.879 47.788 109.564C48.889 109.25 50.0424 109.163 51.1782 109.307C53.4353 109.66 56.8208 110.45 56.8208 110.45L54.9411 113.088Z" fill="white"/>
<path d="M49.2174 114.28C46.8652 114.28 44.6998 113.48 44.2166 112.397C44.1116 112.149 44.0972 111.871 44.1758 111.613C44.2545 111.356 44.4212 111.133 44.6469 110.987C45.5553 110.243 46.606 109.693 47.7346 109.371C48.8632 109.047 50.0459 108.959 51.2099 109.11C53.4705 109.463 56.8525 110.253 56.8525 110.26C56.8801 110.267 56.9058 110.279 56.9278 110.296C56.9497 110.314 56.9675 110.337 56.9795 110.362C56.9916 110.388 56.9964 110.416 56.9932 110.444C56.9901 110.472 56.9792 110.499 56.9619 110.521L55.0786 113.152C55.0616 113.177 55.0386 113.197 55.0116 113.212C54.9305 113.247 53.0473 114.15 49.5313 114.27L49.2174 114.28ZM50.0991 109.382C48.2055 109.393 46.3728 110.051 44.9044 111.247C44.7293 111.346 44.5966 111.506 44.5316 111.697C44.4666 111.888 44.4737 112.095 44.5517 112.281C44.9255 113.145 46.9533 114.044 49.5207 113.942C52.6664 113.839 54.5038 113.081 54.8106 112.951L56.521 110.546C55.6923 110.355 53.0156 109.748 51.143 109.463C50.7976 109.41 50.4486 109.383 50.0991 109.382Z" fill="#1F2723"/>
<path d="M55.4489 110.207C55.6182 110.207 55.8016 110.235 55.9779 110.242C54.8247 109.981 52.7369 109.537 51.1782 109.29C50.0424 109.146 48.8892 109.234 47.7884 109.549C46.6876 109.863 45.6621 110.398 44.7738 111.121C43.9451 111.808 44.2907 112.612 45.2852 113.205C45.2344 112.705 45.3565 112.203 45.6312 111.782C45.9059 111.362 46.3166 111.049 46.7946 110.895C48.9176 109.995 53.3117 109.995 55.4489 110.207Z" fill="white"/>
<path d="M45.2853 113.378C45.2507 113.376 45.2169 113.366 45.1866 113.349C44.5342 112.965 44.1674 112.514 44.1286 112.048C44.1213 111.842 44.1652 111.638 44.2563 111.453C44.3474 111.268 44.4829 111.109 44.6506 110.99C45.5589 110.247 46.6097 109.696 47.7382 109.374C48.8668 109.051 50.0496 108.963 51.2136 109.114C52.7723 109.35 54.9024 109.802 56.0274 110.066C56.0713 110.075 56.1105 110.099 56.1372 110.135C56.1639 110.171 56.1764 110.215 56.172 110.26C56.1597 110.303 56.1338 110.34 56.0981 110.367C56.0625 110.394 56.0191 110.409 55.9745 110.408C55.7917 110.406 55.6091 110.393 55.4279 110.37C53.1673 110.13 48.8896 110.172 46.8688 111.057C46.4255 111.197 46.0445 111.487 45.7911 111.877C45.5376 112.267 45.4275 112.732 45.4793 113.194C45.4823 113.228 45.4752 113.261 45.4588 113.291C45.4425 113.32 45.4177 113.344 45.3876 113.36C45.3553 113.374 45.3203 113.379 45.2853 113.378ZM50.0992 109.382C48.2056 109.393 46.3729 110.051 44.9045 111.247C44.778 111.333 44.6748 111.449 44.604 111.584C44.5332 111.72 44.4971 111.87 44.4989 112.023C44.5368 112.195 44.6087 112.358 44.7104 112.501C44.8122 112.645 44.9417 112.766 45.0914 112.859C45.117 112.385 45.2844 111.931 45.5718 111.553C45.8591 111.176 46.2533 110.893 46.703 110.743C48.4487 109.992 51.4922 109.861 53.6822 109.925C52.8217 109.752 51.9189 109.572 51.1466 109.463C50.8 109.41 50.4499 109.382 50.0992 109.382Z" fill="#1F2723"/>
<path d="M94.2383 103.563C94.2383 103.563 90.4718 108.715 86.7088 110.778C82.9458 112.842 65.7431 113.088 62.2307 113.088H54.9411V110.683C54.9411 110.683 66.4943 109.177 72.895 105.87C79.2957 102.562 82.6852 98.8831 87.707 97.4056C92.7289 95.9281 97.1195 98.4387 96.996 104.624" fill="#1F2723"/>
<path d="M62.2272 113.244H54.9411C54.9175 113.244 54.8939 113.241 54.8718 113.232C54.8496 113.224 54.8292 113.212 54.8119 113.196C54.7945 113.18 54.7805 113.161 54.7706 113.139C54.7607 113.117 54.7551 113.095 54.7543 113.07V110.659C54.7558 110.615 54.7732 110.574 54.8031 110.543C54.8331 110.512 54.8734 110.492 54.9164 110.49C55.0329 110.49 66.5049 108.962 72.7999 105.7C75.15 104.445 77.4227 103.051 79.6066 101.524C82.343 99.6734 84.7094 98.0858 87.6502 97.2083C90.1721 96.4571 92.5279 96.6964 94.2802 97.8955C96.2128 99.2005 97.2466 101.581 97.1862 104.597C97.1848 104.642 97.1649 104.685 97.1323 104.717C97.0996 104.748 97.0556 104.766 97.0101 104.766C96.9867 104.766 96.9633 104.763 96.9413 104.754C96.9193 104.746 96.8994 104.734 96.8823 104.718C96.8653 104.702 96.8511 104.682 96.8419 104.66C96.8326 104.639 96.827 104.616 96.827 104.593C96.8866 101.69 95.9061 99.4086 94.0722 98.1675C92.4186 97.0528 90.1934 96.827 87.7844 97.5427C84.9032 98.3996 82.5616 99.9801 79.8459 101.81C77.6527 103.344 75.3693 104.744 73.0079 106.003C67.0551 109.097 56.581 110.619 55.1492 110.817V112.901H62.2448C62.4422 112.901 82.5297 112.877 86.6243 110.634C90.3099 108.617 94.0587 103.524 94.097 103.471C94.1268 103.434 94.1694 103.408 94.217 103.399C94.2639 103.39 94.3128 103.398 94.3547 103.422C94.3746 103.432 94.3924 103.447 94.4066 103.465C94.4208 103.483 94.4307 103.503 94.4357 103.525C94.4414 103.547 94.4421 103.571 94.4371 103.593C94.4328 103.615 94.4243 103.636 94.4108 103.654C94.376 103.704 90.5811 108.864 86.8181 110.923C82.6177 113.215 62.4282 113.244 62.2272 113.244Z" fill="#1F2723"/>
<path d="M52.7194 98.8476H52.7017L52.2926 98.8128C52.269 98.8114 52.2458 98.8057 52.2243 98.7965C52.2028 98.7866 52.1835 98.7724 52.1675 98.7546C52.1514 98.7376 52.1389 98.717 52.1308 98.695C52.1226 98.673 52.1189 98.6495 52.1198 98.6254C52.1276 98.5792 52.1525 98.5366 52.1896 98.5075C52.2268 98.4784 52.2736 98.4635 52.3208 98.4671L52.744 98.5054C52.7672 98.5075 52.7898 98.5132 52.8105 98.5239C52.8313 98.5345 52.8499 98.5487 52.8651 98.5658C52.8803 98.5835 52.892 98.6041 52.8994 98.6261C52.9067 98.6481 52.9097 98.6715 52.908 98.6943C52.9064 98.7177 52.9002 98.7404 52.8898 98.761C52.8795 98.7816 52.8651 98.8001 52.8477 98.8157C52.8301 98.8306 52.8098 98.8427 52.7877 98.8498C52.7657 98.8569 52.7425 98.8597 52.7194 98.8583V98.8476Z" fill="#1F2723"/>
<path d="M88.084 113.525C89.9705 112.918 91.9024 112.459 93.8606 112.154C96.4954 111.801 98.6289 112.154 99.3801 113.645C100.131 115.137 99.6336 116.964 96.9959 117.426C94.3583 117.888 89.5899 116.964 89.0894 116.964C88.6542 116.916 88.2303 116.796 87.8341 116.611L88.084 113.525Z" fill="white"/>
<path d="M95.2153 117.712C93.4623 117.669 91.7135 117.511 89.9818 117.239C89.5374 117.176 89.1881 117.127 89.0894 117.127C88.6264 117.083 88.1735 116.964 87.7489 116.774C87.7162 116.762 87.6878 116.738 87.6694 116.708C87.6509 116.679 87.6431 116.643 87.6466 116.608L87.8937 113.515C87.8987 113.481 87.9129 113.45 87.9342 113.423C87.9562 113.397 87.9846 113.378 88.0173 113.367C89.9165 112.757 91.8612 112.296 93.8329 111.992C96.8475 111.596 98.8263 112.147 99.5526 113.579C99.7656 113.959 99.8799 114.387 99.8863 114.823C99.8927 115.259 99.7898 115.689 99.5881 116.075C99.2814 116.622 98.5899 117.328 97.0314 117.599C96.4301 117.687 95.8223 117.725 95.2153 117.712ZM88.0315 116.512C88.3666 116.661 88.7244 116.754 89.0894 116.788C89.4067 116.813 89.7241 116.851 90.0379 116.904C91.6354 117.134 94.954 117.592 96.964 117.257C98.0929 117.059 98.8689 116.598 99.253 115.913C99.4284 115.572 99.5164 115.193 99.5093 114.809C99.5022 114.426 99.3993 114.05 99.2104 113.716C98.3925 112.098 95.8642 112.066 93.8854 112.323C91.9798 112.621 90.1004 113.066 88.2643 113.656L88.0315 116.512Z" fill="#1F2723"/>
<path d="M96.3399 112.069C97.1443 112.351 98.6566 113.127 98.3783 114.908C98.0013 117.313 94.8517 117.313 92.7359 117.313C92.579 117.317 92.4228 117.338 92.2701 117.376C93.8499 117.546 95.6945 117.658 97.003 117.433C99.6407 116.971 100.142 115.141 99.3872 113.653C98.8788 112.661 97.7897 112.182 96.3399 112.069Z" fill="white"/>
<path d="M95.2117 117.712C94.2191 117.704 93.228 117.642 92.2418 117.528C92.1999 117.526 92.1601 117.509 92.1296 117.479C92.0998 117.45 92.0806 117.411 92.0763 117.369C92.0749 117.328 92.0884 117.288 92.1133 117.255C92.1381 117.222 92.1736 117.2 92.2141 117.19C92.3823 117.147 92.5549 117.126 92.7288 117.126C94.8837 117.126 97.8351 117.126 98.1916 114.866C98.4457 113.236 97.0982 112.503 96.2731 112.21C96.2334 112.196 96.2 112.169 96.1787 112.133C96.1567 112.097 96.1496 112.054 96.1567 112.012C96.1688 111.971 96.1958 111.934 96.2327 111.91C96.2696 111.886 96.3143 111.876 96.3576 111.882C97.98 112.012 99.0556 112.57 99.5526 113.561C99.7656 113.942 99.8807 114.37 99.8863 114.806C99.8927 115.243 99.7898 115.674 99.5881 116.061C99.2814 116.608 98.5899 117.31 97.0314 117.581C96.4293 117.678 95.8209 117.722 95.2117 117.712ZM95.1727 117.359C95.7719 117.364 96.3711 117.323 96.964 117.235C98.0929 117.038 98.8689 116.576 99.253 115.892C99.4284 115.551 99.5164 115.171 99.5093 114.788C99.5022 114.404 99.3993 114.029 99.2104 113.695C99.0265 113.366 98.7738 113.08 98.4699 112.856C98.1653 112.633 97.8167 112.477 97.4475 112.401C97.8664 112.656 98.198 113.031 98.4003 113.478C98.6019 113.924 98.6644 114.421 98.5792 114.904C98.3009 116.611 96.795 117.183 95.1727 117.38V117.359Z" fill="#1F2723"/>
<path d="M51.3052 96.1184C51.3052 96.1184 47.0345 95.4304 44.273 97.3736C41.5117 99.3169 41.8891 101.387 44.527 104.367C47.1649 107.347 53.9396 112.612 68.6279 115.017C83.3164 117.423 87.8341 116.622 87.8341 116.622L88.084 113.525C81.8481 113.567 75.7371 111.775 70.5111 108.373C62.2906 102.875 58.6264 99.2601 52.7194 98.6751" fill="#1F2723"/>
<path d="M85.298 116.925C82.5758 116.925 77.4376 116.632 68.6068 115.187C53.058 112.641 46.4949 106.846 44.3931 104.473C42.725 102.589 42.0549 101.189 42.2172 99.9268C42.3406 98.9605 42.9683 98.0794 44.1709 97.2395C46.971 95.2685 51.1713 95.9174 51.3476 95.9487C51.3701 95.9501 51.3922 95.9565 51.4125 95.9664C51.4328 95.9764 51.4508 95.9898 51.4656 96.0069C51.4804 96.0239 51.4916 96.0438 51.4986 96.0658C51.5056 96.0871 51.5082 96.1098 51.5062 96.1326C51.4953 96.1787 51.4668 96.2192 51.4269 96.2455C51.3868 96.2717 51.3383 96.2817 51.2912 96.2731C51.2523 96.2731 47.0592 95.6207 44.4107 97.4972C43.3034 98.2803 42.7109 99.084 42.598 99.9658C42.4499 101.112 43.1165 102.473 44.6929 104.251C46.7665 106.596 53.2555 112.316 68.6738 114.848C81.7579 116.989 86.7968 116.566 87.6715 116.471L87.8937 113.702C81.6905 113.677 75.6242 111.876 70.4125 108.511C68.5504 107.266 66.9034 106.106 65.4505 105.072C60.5132 101.588 57.23 99.2814 52.7159 98.8334C52.6921 98.8327 52.6688 98.8263 52.6474 98.8157C52.6261 98.805 52.607 98.7901 52.5915 98.7723C52.576 98.7539 52.5644 98.7333 52.5573 98.7106C52.5502 98.6871 52.5477 98.6637 52.5502 98.6396C52.558 98.592 52.5842 98.5494 52.6231 98.521C52.662 98.4926 52.7105 98.4812 52.7582 98.4883C57.3781 98.9498 60.6649 101.274 65.6798 104.797C67.1327 105.83 68.7796 106.98 70.617 108.236C75.8166 111.598 81.8815 113.377 88.0741 113.356C88.0996 113.354 88.1252 113.358 88.1493 113.366C88.1735 113.375 88.1962 113.388 88.2147 113.405C88.2331 113.422 88.2473 113.444 88.2565 113.466C88.2651 113.49 88.2693 113.515 88.2679 113.54L88.0208 116.632C88.0144 116.671 87.996 116.708 87.9683 116.735C87.9406 116.763 87.9044 116.781 87.8653 116.788C87.0148 116.901 86.1564 116.948 85.298 116.925Z" fill="#1F2723"/>
<path d="M49.7358 99.0386C49.6933 99.0393 49.6516 99.0265 49.6176 99.001C49.5835 98.9747 49.5593 98.9385 49.549 98.8973C49.5449 98.8746 49.5456 98.8519 49.5507 98.8292C49.5559 98.8071 49.5655 98.7858 49.579 98.7674C49.5926 98.7489 49.6097 98.7333 49.6293 98.7219C49.649 98.7106 49.6709 98.7028 49.6935 98.6999C50.1472 98.6211 50.6054 98.57 51.0654 98.548C51.1135 98.5444 51.1612 98.5594 51.1982 98.5906C51.2351 98.6211 51.2584 98.6659 51.2628 98.7141C51.2629 98.7376 51.2582 98.7603 51.2491 98.7823C51.24 98.8036 51.2268 98.8235 51.21 98.8398C51.1933 98.8561 51.1734 98.8689 51.1516 98.8781C51.1298 98.8867 51.1065 98.8909 51.083 98.8902C50.6397 98.9115 50.198 98.9598 49.7605 99.0351L49.7358 99.0386Z" fill="white"/>
<path d="M86.1798 63.5148C83.8702 64.6292 83.5457 62.3932 83.5635 61.0461C83.5855 61.0337 83.6032 61.0137 83.6125 60.9896C83.7786 60.369 83.6125 57.2832 81.6656 56.0524C79.9482 54.9627 77.674 54.0246 75.5504 54.0211C74.8333 54.0433 74.1311 54.2336 73.5014 54.5766C72.8709 54.9196 72.3299 55.4058 71.9216 55.996C70.9696 57.3114 71.0504 58.8384 70.9732 60.3549C70.8956 61.8713 70.7369 63.5535 71.0682 65.0735C71.5126 67.1013 73.5866 71.3614 76.1078 71.3614C78.3933 71.3614 82.4559 68.2404 83.8453 66.3995C84.157 66.3069 84.4481 66.1548 84.7023 65.9516C85.2206 65.5425 86.2572 64.8689 86.1798 63.5148Z" fill="white"/>
<path d="M76.1078 71.5133C73.3927 71.5133 71.2975 66.9813 70.885 65.0876C70.5888 63.7439 70.6734 62.3191 70.7509 60.9367L70.7862 60.3301L70.8074 59.7271C70.8603 58.4187 70.9097 57.0645 71.7704 55.8796C72.1921 55.2649 72.7537 54.7582 73.4076 54.4004C74.0622 54.0427 74.7914 53.8438 75.5369 53.82C77.4163 53.82 79.6982 54.5747 81.7572 55.8796C83.8169 57.1844 83.9618 60.3477 83.7786 61.0037C83.7715 61.035 83.7566 61.0641 83.736 61.0883C83.736 61.8466 83.8524 63.1091 84.5575 63.4935C84.9359 63.698 85.4379 63.6451 86.0634 63.3348C86.0918 63.3208 86.1237 63.3135 86.155 63.3135C86.1869 63.3135 86.2182 63.3208 86.2473 63.3348C86.2735 63.348 86.2955 63.368 86.3119 63.3929C86.3282 63.4176 86.3374 63.4463 86.3389 63.4759C86.4162 64.809 85.4783 65.5389 84.9281 65.9445L84.801 66.0362C84.5468 66.2436 84.2564 66.4015 83.944 66.5017C82.6142 68.2826 78.5729 71.5133 76.1078 71.5133ZM75.5298 54.1727C74.8439 54.1959 74.1737 54.3798 73.5723 54.7093C72.971 55.0388 72.4548 55.5048 72.0664 56.07C71.2691 57.1738 71.2237 58.4222 71.1704 59.7412L71.1463 60.3477L71.1143 60.9544C71.0334 62.3297 70.952 63.7016 71.2379 65.0241C71.71 67.1682 73.791 71.1711 76.0936 71.1711C78.2342 71.1711 82.2159 68.2156 83.6763 66.2831C83.7012 66.2518 83.736 66.2296 83.775 66.2196C84.0619 66.1347 84.3296 65.9932 84.561 65.8035L84.6881 65.7047C85.1851 65.3273 85.9192 64.7666 85.9789 63.7756C85.729 63.9011 85.4542 63.9687 85.1744 63.9736C84.8947 63.9785 84.6178 63.9205 84.3636 63.8039C83.528 63.3383 83.3554 62.0405 83.3618 61.0319C83.3625 61.0074 83.3689 60.9833 83.3796 60.9613C83.3909 60.9394 83.4066 60.9201 83.4257 60.905C83.577 60.3301 83.376 57.3395 81.5421 56.1722C79.5463 54.9062 77.3531 54.1762 75.5469 54.1727H75.5298Z" fill="#1F2723"/>
<path d="M70.0315 61.6597C70.0034 61.6583 69.9758 61.6514 69.9503 61.6394C69.9248 61.6272 69.9021 61.6102 69.8834 61.5891C69.8687 61.5716 69.8578 61.5511 69.8516 61.5291C69.8454 61.5071 69.8438 61.484 69.8472 61.4613C69.8505 61.4387 69.8586 61.417 69.871 61.3977C69.8832 61.3784 69.8995 61.3619 69.9187 61.3493L70.8074 60.7392C70.8483 60.7125 70.8976 60.7013 70.9461 60.7078C70.9947 60.7142 71.0391 60.738 71.0717 60.7745C71.0859 60.7925 71.0959 60.8132 71.1015 60.8352C71.1072 60.8573 71.1086 60.8803 71.1051 60.9028C71.1008 60.9253 71.093 60.9468 71.0802 60.9661C71.0682 60.9853 71.0518 61.0017 71.0334 61.0143L70.1337 61.6385C70.1021 61.6543 70.0669 61.6616 70.0315 61.6597Z" fill="#1F2723"/>
<path d="M72.9553 55.0438C72.9553 55.0438 75.5894 53.5802 76.5096 54.9662C77.4305 56.3522 81.6514 65.5813 86.1833 63.5147C90.7153 61.4482 86.1514 54.6594 81.7501 52.4976C77.3495 50.3358 73.6604 52.1873 72.9553 55.0438Z" fill="#1F2723"/>
<path d="M84.8329 63.9872C81.3518 63.9872 78.3158 58.5456 76.9264 56.0488C76.6757 55.6044 76.4784 55.2483 76.3477 55.0578C76.2675 54.9356 76.1638 54.8306 76.0431 54.7488C75.9217 54.667 75.7854 54.6102 75.6427 54.5817C74.5841 54.349 73.0817 55.1848 73.0682 55.1918C73.0249 55.2152 72.9752 55.2224 72.9269 55.212C72.8794 55.2017 72.8368 55.1745 72.807 55.1354C72.7949 55.1168 72.7871 55.096 72.7835 55.0741C72.78 55.0523 72.7807 55.0299 72.7857 55.0084C72.9667 54.2948 73.3146 53.6345 73.8017 53.0825C74.2887 52.5304 74.9 52.1026 75.5859 51.8345C77.4163 51.0656 79.6414 51.242 81.8566 52.3317C84.921 53.8411 88.3169 57.7663 88.2608 60.7745C88.2608 61.3984 88.072 62.0078 87.7184 62.5221C87.3655 63.0365 86.8643 63.4318 86.2821 63.6557C85.8298 63.8722 85.3342 63.9854 84.8329 63.9872ZM75.2259 54.1973C75.3907 54.1961 75.5554 54.2126 75.7165 54.2467C75.9082 54.2837 76.0914 54.3585 76.254 54.467C76.4173 54.5753 76.5565 54.715 76.6651 54.8779C76.7993 55.079 77.018 55.4387 77.2572 55.9077C78.788 58.6585 82.3749 65.0769 86.0989 63.3736C86.6193 63.1744 87.0673 62.8213 87.3818 62.3614C87.6971 61.9015 87.8646 61.3566 87.8618 60.7991C87.9115 57.9108 84.6249 54.1233 81.655 52.6597C79.5392 51.63 77.4234 51.4536 75.7201 52.1766C75.1535 52.4033 74.6409 52.7465 74.2156 53.1839C73.791 53.6213 73.4623 54.1432 73.2514 54.7157C73.8691 54.4151 74.5401 54.239 75.2259 54.1973Z" fill="#1F2723"/>
<path d="M82.8293 89.7177C79.9368 89.6716 77.1784 88.4852 75.1557 86.4162C75.1429 86.3971 75.1344 86.3744 75.1308 86.3509C75.1273 86.3282 75.1287 86.3041 75.1351 86.2813C75.1415 86.2586 75.1521 86.2373 75.1677 86.2196C75.1826 86.2018 75.2011 86.1869 75.2224 86.177C75.2586 86.1564 75.2998 86.1471 75.341 86.1514C75.3814 86.155 75.4205 86.1713 75.4517 86.1976C77.3964 88.187 80.0483 89.328 82.8293 89.372C82.8762 89.372 82.9209 89.3904 82.9543 89.4238C82.9877 89.4565 83.0061 89.5012 83.0061 89.5481C83.0061 89.5949 82.9877 89.6396 82.9543 89.673C82.9209 89.7057 82.8762 89.7241 82.8293 89.7241V89.7177Z" fill="#1F2723"/>
<path d="M74.1787 62.6753C73.5517 62.6899 72.9426 62.4655 72.4754 62.0475C72.452 62.0277 72.4328 62.0029 72.4193 61.9748C72.4065 61.9468 72.3994 61.9163 72.3994 61.8853C72.3994 61.8544 72.4065 61.8238 72.4193 61.7958C72.4328 61.7678 72.452 61.7429 72.4754 61.7231C72.5237 61.6798 72.5869 61.6558 72.6515 61.6558C72.7168 61.6558 72.78 61.6798 72.8283 61.7231C73.8613 62.6647 75.2969 61.977 75.3601 61.9488C75.4198 61.9177 75.4893 61.9098 75.5539 61.9267C75.6193 61.9437 75.6761 61.9842 75.713 62.0405C75.7286 62.0675 75.7378 62.0974 75.7414 62.1283C75.7442 62.1593 75.7414 62.1906 75.7314 62.2202C75.7222 62.2497 75.7059 62.277 75.6853 62.3002C75.6647 62.3232 75.6391 62.3417 75.6107 62.3543C75.1627 62.5651 74.6735 62.6748 74.1787 62.6753Z" fill="#1F2723"/>
<path d="M79.6308 63.0915C79.0727 63.0803 78.5296 62.9062 78.0688 62.5907C78.0432 62.5734 78.0212 62.5508 78.0056 62.5245C77.9892 62.4981 77.9786 62.4687 77.9743 62.438C77.9708 62.4073 77.9729 62.3762 77.9822 62.3465C77.9914 62.317 78.0063 62.2896 78.0262 62.2662C78.0702 62.218 78.1298 62.1872 78.1952 62.1795C78.2598 62.1717 78.3251 62.1875 78.379 62.2239C78.4358 62.2628 79.6947 63.1303 80.6958 62.2239C80.7455 62.1826 80.808 62.16 80.8726 62.16C80.9372 62.16 80.9989 62.1826 81.0486 62.2239C81.0721 62.2445 81.0905 62.2697 81.1033 62.298C81.1161 62.3262 81.1225 62.3569 81.1225 62.3879C81.1225 62.419 81.1161 62.4496 81.1033 62.4779C81.0905 62.5062 81.0721 62.5314 81.0486 62.552C80.6631 62.9072 80.1555 63.1004 79.6308 63.0915Z" fill="#1F2723"/>
<path d="M76.7638 66.1914C76.3072 66.1826 75.872 65.9938 75.5539 65.6659C75.5312 65.6451 75.5135 65.6198 75.5007 65.5916C75.4886 65.5633 75.4815 65.5328 75.4815 65.5019C75.4815 65.4711 75.4886 65.4405 75.5007 65.4124C75.5135 65.3841 75.5312 65.3588 75.5539 65.338C75.6036 65.2966 75.6661 65.274 75.7307 65.274C75.7946 65.274 75.8571 65.2966 75.9068 65.338C76.5344 65.941 77.0847 65.6624 77.1443 65.6271C77.2025 65.5946 77.2707 65.5845 77.336 65.5988C77.4006 65.6131 77.4581 65.6508 77.4972 65.7047C77.5149 65.7301 77.527 65.7589 77.5327 65.7893C77.5377 65.8196 77.537 65.8509 77.5299 65.8808C77.5228 65.9108 77.5086 65.9389 77.4901 65.9633C77.4709 65.9876 77.4468 66.0076 77.4198 66.0221C77.2182 66.1319 76.9931 66.1901 76.7638 66.1914Z" fill="#1F2723"/>
<path d="M55.9779 110.475C55.9197 110.477 55.8629 110.458 55.8172 110.421C55.7715 110.385 55.7398 110.335 55.7275 110.278C55.7236 110.246 55.726 110.215 55.7346 110.184C55.7431 110.154 55.7578 110.125 55.7775 110.1C55.7972 110.076 55.8217 110.056 55.8494 110.041C55.8772 110.025 55.9077 110.016 55.9391 110.013C56.0343 110.013 65.4011 108.677 70.3735 106.54C74.0587 104.956 78.0723 102.354 80.7277 100.633C81.7153 99.9943 82.5652 99.4405 83.1573 99.0982C83.2148 99.0642 83.2823 99.0528 83.3476 99.0656C83.4129 99.0784 83.4704 99.1153 83.5102 99.1685C83.5272 99.1948 83.5386 99.2239 83.5443 99.2544C83.5492 99.285 83.5485 99.3162 83.5414 99.346C83.5336 99.3759 83.5208 99.4043 83.5017 99.4291C83.4832 99.454 83.4598 99.4745 83.4328 99.4895C82.8506 99.8246 82.022 100.375 81.0238 101.01C78.3506 102.741 74.3235 105.358 70.5922 106.959C65.5492 109.124 56.1119 110.458 56.0167 110.486L55.9779 110.475Z" fill="white"/>
<path d="M68.7584 107.485C68.7198 107.485 68.6815 107.478 68.6456 107.463C66.6636 106.56 65.1013 105.164 63.5848 103.813C63.1969 103.46 62.8055 103.108 62.4105 102.777C59.75 100.576 56.3783 99.4213 52.9274 99.5285C52.8635 99.5306 52.8011 99.5086 52.7527 99.4667C52.7043 99.4248 52.6735 99.3659 52.6664 99.3027C52.6683 99.2381 52.6951 99.1777 52.7412 99.1323C52.7873 99.0876 52.8491 99.0627 52.9133 99.0627C56.4958 98.9548 59.995 100.156 62.7561 102.442C63.1581 102.794 63.5496 103.147 63.941 103.482C65.4257 104.808 66.9634 106.18 68.8783 107.047C68.9071 107.059 68.9333 107.076 68.9548 107.099C68.9765 107.121 68.9932 107.148 69.0038 107.177C69.0144 107.206 69.0188 107.238 69.0166 107.269C69.0145 107.299 69.0057 107.33 68.9911 107.358C68.9678 107.398 68.9337 107.431 68.8926 107.454C68.8516 107.476 68.8051 107.487 68.7584 107.485Z" fill="white"/>
<path d="M73.3714 60.5559C73.311 60.5566 73.2528 60.5357 73.2067 60.4968C73.1605 60.4579 73.13 60.4038 73.1208 60.3443C73.1186 60.3128 73.1229 60.2812 73.1336 60.2514C73.1442 60.2216 73.1598 60.1941 73.1811 60.1705C73.2017 60.1469 73.2273 60.1277 73.2557 60.1139C73.2841 60.1002 73.3153 60.0922 73.3466 60.0904C74.124 60.0203 74.8667 59.7345 75.4907 59.2652C75.5433 59.2269 75.6079 59.2088 75.6725 59.2139C75.7371 59.2191 75.7975 59.2473 75.8436 59.2934C75.8649 59.3158 75.8813 59.3425 75.8912 59.3718C75.9011 59.401 75.9047 59.4321 75.9018 59.4629C75.899 59.4937 75.8891 59.5235 75.8734 59.5502C75.8578 59.577 75.8372 59.6 75.8117 59.6179C75.1088 60.1494 74.2703 60.4731 73.3927 60.5524L73.3714 60.5559Z" fill="#1F2723"/>
<path d="M80.9677 60.852H80.9215C80.6787 60.8097 80.4352 60.7886 80.1775 60.7639C79.9204 60.7392 79.6556 60.7181 79.395 60.6722C78.8334 60.6064 78.3094 60.3587 77.9026 59.9669C77.8813 59.9444 77.865 59.9176 77.8543 59.8882C77.8437 59.8588 77.8401 59.8275 77.8423 59.7965C77.8451 59.7654 77.8543 59.7353 77.87 59.7081C77.8849 59.681 77.9062 59.6573 77.931 59.6389C77.9836 59.6009 78.0475 59.5826 78.1121 59.5871C78.1767 59.5916 78.237 59.6187 78.2839 59.6636C78.6155 59.9703 79.0372 60.1609 79.4866 60.2067C79.7259 60.249 79.9659 60.2701 80.2236 60.2914C80.4806 60.3125 80.7455 60.3407 81.0096 60.383C81.0415 60.3868 81.0721 60.3971 81.099 60.4129C81.1267 60.4288 81.1509 60.45 81.17 60.4754C81.1892 60.5007 81.2027 60.5296 81.2105 60.5604C81.2183 60.5912 81.2197 60.6232 81.2148 60.6546C81.202 60.7108 81.1707 60.7612 81.126 60.7972C81.0813 60.8332 81.0252 60.8525 80.9677 60.852Z" fill="#1F2723"/>
<path d="M78.7071 68.1628H78.6574C77.6264 67.976 76.5714 67.9652 75.5369 68.1311C75.473 68.1438 75.407 68.1315 75.3523 68.0966C75.2976 68.0617 75.2593 68.0071 75.2437 67.9442C75.2387 67.9131 75.2401 67.8812 75.2479 67.8506C75.2558 67.82 75.2692 67.7914 75.2884 67.7663C75.3076 67.7412 75.3317 67.7203 75.3594 67.7048C75.3864 67.6893 75.4169 67.6795 75.4482 67.6761C76.5451 67.4998 77.6634 67.5105 78.7561 67.7079C78.788 67.7121 78.8185 67.7227 78.8455 67.739C78.8732 67.7553 78.8966 67.7769 78.9151 67.8026C78.9343 67.8283 78.9478 67.8575 78.9549 67.8885C78.962 67.9195 78.9627 67.9516 78.9577 67.9829C78.9414 68.0366 78.9087 68.0834 78.8633 68.116C78.8178 68.1486 78.7632 68.165 78.7071 68.1628Z" fill="#1F2723"/>
<path d="M77.0002 84.2301C76.3477 84.2266 75.6973 84.1463 75.064 83.9901C74.2695 83.8325 73.5169 83.5095 72.8552 83.0423C72.1942 82.5751 71.6376 81.9737 71.2236 81.2779C68.8113 77.1521 71.4068 70.2575 71.5197 69.9683C71.5446 69.908 71.5921 69.8595 71.6518 69.8326C71.7114 69.8058 71.7789 69.8026 71.8406 69.8237C71.8712 69.8317 71.8996 69.8459 71.9244 69.8655C71.9493 69.885 71.9699 69.9094 71.9848 69.9372C71.9997 69.965 72.0082 69.9956 72.011 70.0271C72.0139 70.0585 72.0096 70.0901 71.9997 70.1199C71.9713 70.1905 69.365 77.1131 71.6752 81.0522C72.0572 81.6883 72.5684 82.2364 73.1754 82.6617C73.7832 83.087 74.4733 83.3795 75.2018 83.5208C77.1415 83.983 78.8128 83.7289 80.1739 82.7732C84.321 79.8537 84.3885 71.3152 84.3885 71.2272C84.3956 71.1647 84.4261 71.1072 84.4729 71.0653C84.5198 71.0234 84.5809 71 84.6441 71C84.7073 71 84.7683 71.0234 84.8152 71.0653C84.862 71.1072 84.8926 71.1647 84.8997 71.2272C84.8997 71.58 84.8294 80.0795 80.4842 83.1367C79.4682 83.8602 78.2477 84.2429 77.0002 84.2301Z" fill="#1F2723"/>
<path d="M85.5663 93.752C85.5663 93.752 83.9263 78.6545 70.0209 70.2576C70.0209 70.2576 70.3454 66.4241 69.1181 66.075C67.8908 65.7259 65.5915 69.3618 65.5915 69.3618C65.5915 69.3618 55.322 73.8656 50.8784 81.2077C50.8784 81.2077 48.9635 80.1107 48.1347 81.476C47.1649 83.0664 51.1289 84.791 51.1289 84.791C51.1289 84.791 52.4725 93.5475 62.414 97.3914" fill="white"/>
<path d="M62.4104 97.6101C62.3769 97.6094 62.3435 97.603 62.3117 97.5923C52.9979 93.9884 51.1182 86.0179 50.9031 84.9316C50.3635 84.6817 48.23 83.6337 47.8032 82.4175C47.7391 82.2443 47.7156 82.059 47.7346 81.8758C47.7535 81.6919 47.8144 81.5158 47.9125 81.3596C48.0219 81.1693 48.1695 81.0039 48.3463 80.874C48.5229 80.744 48.7247 80.6525 48.9388 80.6049C49.5672 80.5048 50.2111 80.6049 50.7797 80.8903C55.068 74.0061 64.4841 69.6052 65.3975 69.1784C65.8806 68.4308 67.8661 65.4755 69.1921 65.8493C70.5181 66.2231 70.3489 69.2349 70.2819 70.1377C84.0356 78.5132 85.7993 93.5723 85.8163 93.7236C85.8191 93.7555 85.8149 93.7867 85.8049 93.8173C85.795 93.8471 85.7787 93.8748 85.7574 93.8982C85.7368 93.9224 85.7112 93.9415 85.6821 93.955C85.6537 93.9685 85.6225 93.9763 85.5912 93.9777C85.5266 93.9855 85.4613 93.9685 85.4095 93.9302C85.3576 93.8911 85.3228 93.8336 85.3122 93.7697C85.3122 93.6213 83.5209 78.6865 69.8798 70.4481C69.8427 70.4272 69.8124 70.3963 69.7924 70.3587C69.7724 70.3212 69.7635 70.2788 69.767 70.2365C69.8939 68.72 69.767 66.4947 69.0405 66.2937C68.314 66.0927 66.7164 68.0323 65.7995 69.4676C65.7726 69.508 65.7347 69.5398 65.6902 69.5593C65.5879 69.6051 55.4454 74.119 51.1006 81.3099C51.0828 81.3376 51.0596 81.3617 51.0323 81.3809C51.0051 81.3994 50.9743 81.4129 50.9419 81.4193C50.8753 81.4363 50.8048 81.4271 50.7444 81.3944C50.7444 81.3944 49.8134 80.869 49.0622 81.0422C48.9145 81.0756 48.7755 81.1395 48.654 81.2304C48.5325 81.3206 48.4313 81.4356 48.3569 81.5676C48.2905 81.6713 48.2498 81.7892 48.2382 81.912C48.2265 82.0348 48.2442 82.1584 48.2899 82.2727C48.699 83.447 51.2134 84.5511 51.2382 84.5617C51.2745 84.5773 51.3065 84.6015 51.3317 84.632C51.3568 84.6632 51.3743 84.6995 51.3827 84.7378C51.3827 84.8258 53.1919 93.5546 62.876 97.2998C63.0029 97.3488 62.876 97.4234 62.8231 97.5398C62.7702 97.6555 62.5092 97.6101 62.4104 97.6101Z" fill="#1F2723"/>
<path d="M85.7921 82.4452L85.6047 92.2389C85.6047 92.2389 80.0504 95.0605 76.9434 95.85C75.2231 96.3172 73.453 96.577 71.6716 96.6225C71.3891 96.6225 70.1655 94.8169 69.506 94.217C68.8466 93.6178 68.314 93.6036 67.1115 93.0533C65.4293 92.2886 64.7028 92.1544 64.798 92.5002C64.8932 92.8453 64.9849 93.1839 65.8348 93.6142C66.6847 94.0445 67.2454 94.3902 67.2454 94.3902L67.4359 94.7431C67.4359 94.7431 65.3622 94.4854 64.5158 94.3129C63.6694 94.1396 61.5041 92.7679 61.5041 92.7679C61.5041 92.7679 60.5802 92.7154 61.2396 93.7449C61.8991 94.7744 62.5374 94.8276 62.5374 94.8276C62.6701 95.4581 62.9999 96.0296 63.479 96.4606C63.9001 96.8007 64.3404 97.1159 64.798 97.4056C64.798 97.4056 63.01 96.9753 63.1969 97.4056C63.3838 97.8359 64.5158 98.0084 65.9265 98.6076C67.3372 99.2076 70.5428 99.2956 72.3305 99.5534C75.5816 99.9368 78.8618 99.995 82.1243 99.7259C85.8908 99.373 91.5403 97.0634 92.5769 96.2874C93.6142 95.5113 92.951 86.8394 92.6685 84.8613C92.3866 82.8826 91.8222 79.1906 91.4451 77.4553C91.0674 75.7201 89.5615 73.3331 88.6236 72.8176C87.6857 72.3028 85.9824 73.9501 85.7921 82.4452Z" fill="white"/>
<path d="M85.5976 82.4665C85.7211 76.9193 86.5433 73.3572 87.8582 72.6983C87.9889 72.6252 88.1359 72.5869 88.285 72.5869C88.4348 72.5869 88.5817 72.6252 88.7117 72.6983C89.7241 73.2514 91.2513 75.7378 91.6213 77.4482C91.9919 79.1586 92.5734 82.9216 92.8524 84.8542C92.9759 85.7325 93.9351 95.5085 92.6898 96.4357C91.607 97.243 85.8766 99.5711 82.1456 99.9126C80.8016 100.036 79.4547 100.068 78.1675 100.068C76.2071 100.078 74.2475 99.9602 72.3029 99.7152C71.7633 99.6379 71.0788 99.5747 70.3559 99.5108C68.7196 99.3595 66.8575 99.1863 65.8383 98.756C65.327 98.5409 64.8579 98.3826 64.4453 98.2413C63.673 97.9772 63.1652 97.8039 63.0135 97.4617C62.9876 97.4141 62.9781 97.3595 62.9863 97.3062C62.9946 97.2522 63.0202 97.2033 63.0594 97.1656C63.1969 97.0172 63.5672 97.0137 63.9834 97.0705C63.7964 96.9327 63.5813 96.7709 63.345 96.5806C62.8631 96.1546 62.5244 95.5909 62.3752 94.9653C61.8201 94.7552 61.3594 94.3519 61.0774 93.8293C60.8023 93.3955 60.7424 93.0746 60.8976 92.8453C60.9726 92.7572 61.0679 92.6877 61.1752 92.6436C61.2826 92.5996 61.399 92.5819 61.5147 92.5918C61.5492 92.5911 61.5828 92.6017 61.6099 92.6238C61.6311 92.6238 63.7541 93.9813 64.5582 94.1396C65.1753 94.2667 66.4767 94.4399 67.1044 94.5244C66.9633 94.4364 66.452 94.1361 65.7502 93.7804C64.8298 93.3181 64.7169 92.9127 64.6217 92.5563C64.5996 92.5002 64.5971 92.4385 64.6143 92.3809C64.6316 92.3234 64.6677 92.2737 64.7169 92.2389C64.8438 92.1474 65.0942 91.9606 67.1855 92.9234C67.5946 93.1137 67.9402 93.2372 68.2188 93.343C68.7393 93.4971 69.2204 93.7619 69.6294 94.119C70.0211 94.5138 70.3863 94.9348 70.7227 95.3779C71.0099 95.7769 71.3373 96.1454 71.6994 96.4783C73.4531 96.4215 75.194 96.1624 76.8873 95.7059C79.7082 95.0001 84.6668 92.5315 85.4073 92.1615M63.4085 97.3914C63.7611 97.6491 64.1634 97.8302 64.5899 97.9239C65.0131 98.0652 65.4857 98.2271 66.0005 98.4493C66.9492 98.8547 68.776 99.0244 70.3842 99.1721C71.1108 99.2431 71.7945 99.3027 72.3518 99.3837C75.5866 99.7649 78.8505 99.821 82.0959 99.5534C85.7708 99.2005 91.3884 96.9434 92.4434 96.1539C93.3281 95.4943 92.8204 87.418 92.4711 84.8684C92.1963 82.9429 91.6319 79.2261 91.2513 77.4908C90.8701 75.7556 89.3677 73.4318 88.5143 72.9695C88.4412 72.9277 88.3588 72.9056 88.2743 72.9056C88.1905 72.9056 88.1082 72.9277 88.035 72.9695C87.5977 73.1918 86.1514 74.5287 85.9753 82.4459L85.785 92.2389C85.785 92.2702 85.7765 92.3 85.7595 92.3256C85.7424 92.3518 85.7183 92.3717 85.6899 92.3838C85.6367 92.415 80.0823 95.2401 76.986 96.009C75.2494 96.4798 73.463 96.7425 71.6646 96.7922C71.4423 96.7922 71.213 96.5415 70.4229 95.5539C70.0954 95.1265 69.742 94.719 69.3649 94.3342C68.9874 94.0154 68.5462 93.7803 68.0707 93.6462C67.7745 93.5333 67.4394 93.4097 67.0127 93.2159C65.602 92.5634 65.1295 92.5109 64.9813 92.5109C65.0695 92.8318 65.1753 93.1101 65.9124 93.4836C66.7587 93.9138 67.3231 94.2632 67.3407 94.2667C67.3675 94.2816 67.3895 94.3036 67.4041 94.3306L67.5946 94.6828C67.61 94.7105 67.6181 94.7417 67.6181 94.7729C67.6181 94.8042 67.61 94.8354 67.5946 94.8631C67.5728 94.8894 67.5444 94.91 67.5123 94.9227C67.4801 94.9348 67.4452 94.9384 67.4112 94.9334C67.3301 94.9334 65.327 94.6721 64.4806 94.5031C63.6342 94.3342 61.7898 93.1733 61.4653 92.9582C61.4227 92.9582 61.3805 92.9667 61.3412 92.983C61.3018 92.9994 61.266 93.0235 61.2361 93.0533C61.2043 93.0995 61.1585 93.262 61.4195 93.6781C62.012 94.6018 62.5727 94.6792 62.5762 94.6792C62.6152 94.6806 62.6525 94.6948 62.6825 94.7197C62.7125 94.7445 62.7334 94.7786 62.742 94.8169C62.8706 95.407 63.1785 95.943 63.6236 96.3513C64.0382 96.6871 64.4727 96.9981 64.925 97.2821C64.945 97.2934 64.9625 97.309 64.9762 97.3275C64.9899 97.3467 64.9995 97.368 65.0046 97.39C65.0095 97.4127 65.0097 97.4361 65.0051 97.4589C65.0005 97.4816 64.9912 97.5029 64.9779 97.522C64.9544 97.5533 64.9219 97.5767 64.8848 97.5895C64.8476 97.6023 64.8075 97.603 64.7698 97.5923C64.3211 97.466 63.857 97.4014 63.3909 97.4021L63.4085 97.3914Z" fill="#1F2723"/>
<path d="M66.459 96.5522H66.4166C64.731 96.1993 62.5374 95.0285 62.4457 94.9788C62.4247 94.9689 62.406 94.9547 62.3909 94.9369C62.3757 94.9199 62.3644 94.8993 62.3578 94.8766C62.3511 94.8546 62.3492 94.8311 62.3522 94.8077C62.3552 94.785 62.363 94.763 62.3752 94.7431C62.4029 94.7033 62.444 94.6756 62.4908 94.665C62.5376 94.6536 62.5867 94.66 62.6291 94.6827C62.6502 94.6827 64.8649 95.8855 66.5084 96.217C66.532 96.2185 66.5552 96.2242 66.5765 96.2348C66.5978 96.2447 66.6168 96.2596 66.6325 96.2767C66.6482 96.2944 66.6603 96.315 66.668 96.3377C66.6758 96.3598 66.6791 96.3839 66.6776 96.4073C66.6698 96.4549 66.6436 96.4975 66.6047 96.5259C66.5657 96.5543 66.5172 96.5664 66.4695 96.5593L66.459 96.5522Z" fill="#1F2723"/>
<path d="M67.0162 97.9977C66.2376 97.9637 65.468 97.8174 64.731 97.5639C64.7092 97.5575 64.6889 97.5462 64.6715 97.5313C64.6542 97.5164 64.6399 97.4986 64.6297 97.478C64.6194 97.4574 64.6135 97.4354 64.6121 97.4127C64.6108 97.39 64.614 97.3665 64.6217 97.3452C64.6419 97.3005 64.6781 97.2657 64.7232 97.2466C64.7684 97.2274 64.819 97.226 64.865 97.243C65.5593 97.4802 66.2835 97.6179 67.0162 97.652C67.063 97.652 67.1078 97.6711 67.1409 97.7038C67.174 97.7372 67.1925 97.7819 67.1925 97.8288C67.1925 97.8756 67.174 97.9204 67.1409 97.953C67.1078 97.9864 67.063 98.0048 67.0162 98.0048V97.9977Z" fill="#1F2723"/>
<path d="M66.7376 97.4901H66.6918C65.2831 97.1834 63.9406 96.6268 62.7278 95.8465C62.7082 95.8344 62.6916 95.8181 62.6789 95.7989C62.6662 95.7797 62.6579 95.7577 62.6546 95.735C62.6512 95.7123 62.6529 95.6888 62.6595 95.6668C62.666 95.6448 62.6773 95.6242 62.6926 95.6072C62.7252 95.5703 62.7701 95.5468 62.8188 95.5412C62.8676 95.5348 62.9167 95.5476 62.9571 95.5753C64.1347 96.3236 65.4346 96.8596 66.7976 97.1585C66.8203 97.1621 66.8421 97.1699 66.8617 97.182C66.8812 97.1941 66.8981 97.2104 66.9113 97.2288C66.9245 97.2473 66.9337 97.2686 66.9384 97.2913C66.9431 97.314 66.9432 97.3375 66.9386 97.3595C66.9252 97.4014 66.8978 97.4369 66.8613 97.4603C66.8246 97.4844 66.781 97.4944 66.7376 97.4901Z" fill="#1F2723"/>
<path d="M60.3792 86.7549H60.2592C60.6648 85.0978 59.8466 84.7414 59.8466 84.7414L59.3458 83.5457C58.3478 85.4819 55.4665 88.187 55.4665 88.187C55.5935 86.6846 57.2299 85.3654 55.7663 85.9192C54.3028 86.473 51.5344 90.4583 51.5344 90.4583C50.3635 92.0203 51.1041 94.0764 53.7315 94.6409C56.3588 95.2046 59.0884 92.3696 60.365 90.2041C61.6417 88.0386 60.3792 86.7549 60.3792 86.7549Z" fill="white"/>
<path d="M54.4438 94.9476C54.19 94.9483 53.9369 94.9206 53.6891 94.8659C52.3278 94.5734 51.358 93.8861 50.9489 92.9269C50.7754 92.4981 50.7202 92.0309 50.7891 91.5736C50.8579 91.1164 51.0483 90.6861 51.3404 90.3276C51.4533 90.1685 54.1828 86.2792 55.6851 85.7041C56.0166 85.5805 56.3517 85.4747 56.5421 85.6615C56.7326 85.8489 56.5986 86.1201 56.3588 86.561C56.2024 86.8287 56.0645 87.107 55.9461 87.3932C56.8419 86.4836 58.443 84.7697 59.1201 83.447C59.1506 83.3895 59.2025 83.3462 59.2647 83.327C59.3281 83.3021 59.3987 83.3021 59.4622 83.327C59.5997 83.4001 59.7208 83.5002 59.8184 83.6216C59.916 83.743 59.988 83.8829 60.03 84.0327C60.2521 84.7378 59.4305 86.3921 58.644 87.5593C58.6044 87.6125 58.5467 87.6495 58.4817 87.663C58.4167 87.6764 58.349 87.6658 58.2913 87.6331C58.2635 87.6196 58.2389 87.5998 58.2192 87.5756C58.1995 87.5515 58.1852 87.5238 58.1772 87.4933C58.1692 87.4634 58.1677 87.4322 58.1728 87.4017C58.1779 87.3711 58.1894 87.3413 58.2067 87.3158C59.0778 86.0072 59.6596 84.5617 59.5468 84.1698C59.5189 84.0767 59.476 83.9887 59.4199 83.9092C58.3089 85.817 55.7733 88.2217 55.6605 88.3282C55.6229 88.363 55.5757 88.3864 55.525 88.395C55.4743 88.4042 55.4221 88.3978 55.3748 88.3772C55.3281 88.3609 55.2882 88.3296 55.2614 88.2878C55.2346 88.2466 55.2224 88.1976 55.2267 88.1479C55.3203 87.5025 55.5486 86.8834 55.8968 86.3317C55.9461 86.2401 56.0026 86.1379 56.0449 86.0498L55.8756 86.113C54.7471 86.5397 52.5218 89.4706 51.7565 90.5605C51.508 90.858 51.3441 91.2172 51.282 91.5999C51.2199 91.9826 51.2621 92.3752 51.4038 92.7359C51.7565 93.551 52.5923 94.1467 53.7843 94.3938C56.2529 94.9298 58.9367 92.1047 60.1322 90.0734C61.3277 88.0421 60.1781 86.8997 60.1675 86.8997C60.1447 86.8784 60.127 86.8521 60.1153 86.823C60.1038 86.7939 60.0986 86.7627 60.1003 86.7314C60.1019 86.7002 60.1104 86.6697 60.125 86.642C60.1397 86.6143 60.1602 86.5909 60.1851 86.5717C60.2336 86.5284 60.2964 86.5042 60.3615 86.5042C60.4265 86.5042 60.4893 86.5284 60.5378 86.5717C60.5978 86.6278 61.9202 88.0066 60.5731 90.2885C59.6032 92.0096 57.131 94.9476 54.4438 94.9476Z" fill="#1F2723"/>
<path d="M59.4234 88.7933C59.3916 88.7905 59.3606 88.782 59.3317 88.7685C59.3027 88.7564 59.2765 88.7387 59.2549 88.716C59.2333 88.6932 59.2166 88.6662 59.206 88.6364C59.1954 88.6073 59.191 88.5761 59.1932 88.5441C59.1954 88.5129 59.2042 88.4824 59.2188 88.4547C60.4779 86.1628 59.8572 84.9281 59.8501 84.9281C59.8229 84.9139 59.7991 84.894 59.7801 84.8692C59.7611 84.845 59.7473 84.8173 59.7397 84.7875C59.7321 84.7577 59.7308 84.7265 59.7358 84.6959C59.7408 84.6654 59.7522 84.637 59.769 84.6107C59.8064 84.5546 59.8641 84.5156 59.9297 84.5014C59.9955 84.4865 60.0642 84.4985 60.1216 84.5333C60.1781 84.5653 61.1796 85.9441 59.6844 88.6769C59.6579 88.7209 59.6188 88.755 59.5721 88.7763C59.5255 88.7969 59.4736 88.8033 59.4234 88.7933Z" fill="#1F2723"/>
<path d="M67.1854 93.1556C67.1425 93.1563 67.1002 93.1463 67.062 93.1264C67.0238 93.1073 66.9912 93.0782 66.9668 93.0427C66.9104 92.9582 61.3489 84.3672 65.0871 75.3537C65.1149 75.2941 65.1641 75.2472 65.2249 75.2224C65.2857 75.1975 65.3536 75.1961 65.4151 75.2195C65.4452 75.2274 65.4733 75.2423 65.4975 75.2621C65.5217 75.282 65.5414 75.3062 65.5554 75.3346C65.5694 75.3623 65.5773 75.3928 65.5786 75.424C65.58 75.4553 65.5747 75.4865 65.5632 75.5156C61.9132 84.3146 67.3477 92.7218 67.4041 92.7963C67.4207 92.8226 67.4316 92.8517 67.4361 92.8822C67.4407 92.9135 67.4388 92.9447 67.4305 92.9745C67.4221 93.0043 67.4077 93.032 67.3879 93.0562C67.3682 93.0803 67.3437 93.0995 67.3159 93.1137C67.2767 93.1385 67.2318 93.1527 67.1854 93.1556Z" fill="#1F2723"/>
<path d="M71.6646 83.1509C71.6106 83.1516 71.5574 83.1353 71.5126 83.1048C71.4864 83.0884 71.4636 83.0664 71.4466 83.0409C71.4296 83.0146 71.4175 82.9855 71.4125 82.955C71.4076 82.9237 71.4097 82.8925 71.4175 82.8627C71.4253 82.8328 71.4402 82.8044 71.4601 82.7803C72.2787 81.7934 73.2642 80.9577 74.3725 80.3116C74.43 80.2775 74.4975 80.2662 74.5628 80.279C74.6281 80.2925 74.6856 80.3294 74.7254 80.3826C74.7431 80.4082 74.7552 80.4373 74.7609 80.4678C74.7666 80.4984 74.7651 80.5296 74.758 80.5601C74.7509 80.5907 74.7375 80.6191 74.7183 80.6432C74.6991 80.668 74.675 80.6886 74.648 80.7035C73.5873 81.3212 72.6465 82.1235 71.8691 83.0735C71.8421 83.0998 71.8101 83.1204 71.7746 83.1332C71.7398 83.1467 71.7022 83.153 71.6646 83.1509Z" fill="#1F2723"/>
<path d="M68.9135 93.8613C68.8547 93.8627 68.7971 93.8435 68.7512 93.8066C68.7053 93.7704 68.674 93.7179 68.6632 93.6604C68.6385 93.4765 68.046 89.1426 70.0033 85.0871C70.0335 85.0289 70.0844 84.9849 70.1457 84.9629C70.2071 84.9402 70.2745 84.9423 70.3348 84.9671C70.3643 84.9778 70.3914 84.9941 70.4144 85.0154C70.4372 85.0367 70.4554 85.063 70.4677 85.0914C70.48 85.1205 70.4861 85.1517 70.4857 85.183C70.4852 85.2142 70.4783 85.2454 70.4652 85.2738C68.568 89.2058 69.1604 93.5546 69.1675 93.6C69.1708 93.632 69.1678 93.6632 69.1585 93.6937C69.1492 93.7236 69.1339 93.752 69.1134 93.7761C69.093 93.8002 69.0679 93.8194 69.0395 93.8336C69.0112 93.8478 68.9803 93.8556 68.9488 93.8578L68.9135 93.8613Z" fill="#1F2723"/>
<path d="M86.2401 62.4497C84.9991 62.4183 83.8119 61.9341 82.9038 61.0884C81.8736 60.1609 81.2282 58.9935 80.6077 57.7804L80.4806 57.5265C79.985 56.432 79.3418 55.4104 78.5693 54.4901C78.2732 54.1434 77.9047 53.8654 77.4901 53.6754C77.2948 53.5889 77.0833 53.5443 76.8696 53.5443C76.6558 53.5443 76.4443 53.5889 76.249 53.6754C76.1901 53.7092 76.1198 53.7185 76.0538 53.7013C75.9877 53.6842 75.9316 53.642 75.8961 53.5838C75.8798 53.5571 75.8699 53.5274 75.8656 53.4964C75.8621 53.4655 75.8649 53.4342 75.8741 53.4044C75.8841 53.3747 75.8997 53.3473 75.9203 53.3241C75.9409 53.3009 75.9664 53.2824 75.9948 53.2699C76.2618 53.151 76.5508 53.0895 76.8433 53.0895C77.1351 53.0895 77.4241 53.151 77.691 53.2699C78.1731 53.4869 78.602 53.8071 78.947 54.2079C79.7479 55.1607 80.4153 56.2177 80.9322 57.3502L81.0593 57.6006C81.6585 58.7749 82.2798 59.9035 83.2489 60.7745C84.3075 61.7161 85.6721 62.1675 86.8429 61.9488C86.9068 61.9349 86.9736 61.9461 87.0297 61.9804C87.0857 62.0145 87.1262 62.0689 87.1425 62.1322C87.1482 62.1634 87.1475 62.1953 87.1397 62.2261C87.1326 62.2568 87.1191 62.2858 87.1007 62.3112C87.0815 62.3366 87.0581 62.3579 87.0304 62.3739C87.0034 62.3898 86.9729 62.4 86.9416 62.4038C86.7094 62.4397 86.4744 62.4551 86.2401 62.4497Z" fill="white"/>
<path d="M86.194 55.6044C85.1993 55.5484 84.2614 55.1233 83.5628 54.4125C83.2951 54.1691 83.048 53.9046 82.8052 53.6507C82.3856 53.1755 81.912 52.7507 81.3944 52.3847C79.9623 51.4466 77.843 51.3902 76.002 52.2471C75.9416 52.2782 75.8713 52.2849 75.8053 52.2659C75.74 52.2468 75.6839 52.2036 75.6491 52.1448C75.6349 52.1173 75.6264 52.0871 75.6235 52.0561C75.6214 52.025 75.6264 51.9938 75.637 51.9646C75.6477 51.9353 75.664 51.9086 75.6853 51.8862C75.7073 51.8638 75.7336 51.8462 75.762 51.8345C77.7727 50.9 80.0965 50.9705 81.6798 52.0073C82.2287 52.3945 82.7306 52.8442 83.1751 53.3474C83.4115 53.5943 83.6551 53.8517 83.9085 54.0845C84.4027 54.5359 85.3896 55.2729 86.4652 55.1214C86.5298 55.1097 86.5966 55.1234 86.6505 55.1596C86.7052 55.1957 86.7435 55.2515 86.7585 55.3153C86.762 55.3466 86.7599 55.3784 86.7514 55.4088C86.7428 55.4392 86.7279 55.4676 86.7081 55.4922C86.6882 55.5169 86.664 55.5373 86.6363 55.5523C86.6087 55.5674 86.5781 55.5768 86.5469 55.5798C86.4297 55.5962 86.3119 55.6044 86.194 55.6044Z" fill="white"/>
<path d="M69.2733 114.742C67.8996 114.763 66.5268 114.659 65.1718 114.432C65.1404 114.428 65.1103 114.417 65.0833 114.401C65.0562 114.385 65.0329 114.363 65.0147 114.337C64.9964 114.311 64.9838 114.282 64.9774 114.25C64.9711 114.22 64.9712 114.188 64.9778 114.157C64.9952 114.094 65.0362 114.041 65.0921 114.008C65.148 113.976 65.2146 113.966 65.2776 113.981C65.4222 114.009 79.6236 116.625 92.7849 105.298C92.8339 105.255 92.8964 105.232 92.9617 105.232C93.0263 105.232 93.0888 105.255 93.1378 105.298C93.1612 105.318 93.1797 105.343 93.1925 105.371C93.2052 105.399 93.2116 105.429 93.2116 105.46C93.2116 105.491 93.2052 105.522 93.1925 105.549C93.1797 105.577 93.1612 105.603 93.1378 105.622C87.7716 110.314 81.1651 113.357 74.1119 114.386C72.5095 114.618 70.8924 114.737 69.2733 114.742Z" fill="white"/>
<path d="M120.6 111.526C120.6 111.526 120.283 110.257 119.225 110.68C118.166 111.103 118.275 113.907 118.483 115.494C118.692 117.08 120.124 116.34 120.124 116.34V115.388C120.124 115.388 119.595 115.807 119.33 115.229C119.066 114.651 119.119 111.738 119.383 111.79C119.648 111.843 120.177 112.739 120.177 112.739C120.177 112.739 120.335 112.641 120.6 111.526Z" fill="#03B104" stroke="#1F2723" stroke-width="0.8" stroke-linecap="round" stroke-linejoin="round"/>
<path d="M119.838 111.738V118.685C119.838 119.504 121.717 120.166 124.038 120.166C126.359 120.166 128.235 119.504 128.235 118.685V111.738H119.838Z" fill="#03B104" stroke="#1F2723" stroke-width="0.8" stroke-linecap="round" stroke-linejoin="round"/>
<path d="M128.235 111.738C128.235 112.443 126.355 113.014 124.038 113.014C121.721 113.014 119.838 112.443 119.838 111.738C119.838 111.033 121.717 110.461 124.038 110.461C126.359 110.461 128.235 111.036 128.235 111.738Z" fill="white" stroke="#1F2723" stroke-width="0.8" stroke-linecap="round" stroke-linejoin="round"/>
<path d="M127.684 111.738C127.684 112.351 126.052 112.849 124.038 112.849C122.024 112.849 120.388 112.351 120.388 111.738C120.388 111.124 122.024 110.627 124.038 110.627C126.052 110.627 127.684 111.124 127.684 111.738Z" fill="white" stroke="#1F2723" stroke-width="0.8" stroke-linecap="round" stroke-linejoin="round"/>
<path d="M121.224 112.443C123.061 112.979 125.012 112.979 126.849 112.443C125.012 111.907 123.061 111.907 121.224 112.443Z" fill="#1F2723" stroke="#1F2723" stroke-width="0.8" stroke-linecap="round" stroke-linejoin="round"/>
<path d="M122.836 109.897C122.836 109.897 125.776 108.134 124.817 106.109C123.858 104.085 120.614 102.752 120.614 99.6023C120.614 96.8909 123.499 95.8855 125.382 94.7992" stroke="#1F2723" stroke-width="0.8" stroke-linecap="round" stroke-linejoin="round"/>
<path d="M125.551 109.841C125.551 109.841 127.191 108.751 127.191 107.019C127.191 105.859 125.95 105.097 124.31 103.228" stroke="#1F2723" stroke-width="0.8" stroke-linecap="round" stroke-linejoin="round"/>
</svg>
