<svg width="118" height="118" viewBox="0 0 118 118" fill="none" xmlns="http://www.w3.org/2000/svg">
<path d="M94.0625 24.5441C94.0625 24.5441 92.2076 22.4956 90.2039 21.6011C88.2003 20.7067 86.2769 21.6932 85.2479 21.8371C84.219 21.9811 83.3859 21.2943 83.0177 21.4784C82.6496 21.6625 83.6502 23.2036 83.6502 23.2036C83.6502 23.2036 82.2649 23.1776 82.4442 23.8125C82.7995 24.8631 83.3766 25.825 84.1365 26.6329C84.8963 27.4408 85.8211 28.0758 86.848 28.4947C89.7886 29.6889 91.568 28.4546 91.568 28.4546C91.568 28.4546 89.6352 29.8706 89.5715 31.3904C89.5077 32.9103 90.7633 37.4344 91.5539 37.8639C92.3445 38.2934 92.3987 37.5901 92.8967 37.5571C93.3947 37.5241 93.5551 38.4185 93.9776 38.4515C94.4 38.4846 94.2867 37.9489 95.0939 37.0757C95.901 36.2025 99.0492 34.6142 98.8581 31.9592C98.8581 31.9592 99.1177 34.1021 100.982 35.2301C102.846 36.3582 103.649 37.0875 103.953 37.1701C104.258 37.2527 104.496 36.3771 104.496 36.3771C104.496 36.3771 106.212 37.0049 106.533 36.7028C106.854 36.4007 105.905 35.6597 105.782 35.0248C105.66 34.39 105.9 31.8671 105.117 30.2741C104.333 28.6811 102.164 27.7135 102.164 27.7135C102.164 27.7135 104.628 28.8935 106.507 28.4782C108.385 28.0628 109.148 26.9701 109.06 26.6091C108.973 26.248 108.47 26.2621 108.305 25.9341C108.14 25.6061 108.796 25.4928 108.643 25.1364C108.489 24.7801 107.734 24.8815 106.882 24.5228C106.03 24.1641 105.173 23.3428 103.184 22.9935C101.194 22.6443 99.7973 24.8037 99.7973 24.8037C99.7973 24.8037 100.883 23.3051 100.255 21.4997C99.6274 19.6943 97.9565 18.4317 97.3146 17.7992C96.6727 17.1667 96.3116 15.3023 95.875 15.3401C95.4384 15.3778 95.1859 16.2841 94.931 16.3643C94.6761 16.4445 94.2962 15.2551 93.8218 15.1513C93.3474 15.0474 91.9739 17.8393 91.8489 19.2105C91.7238 20.5816 91.6671 22.3139 94.0625 24.5441Z" fill="#EBEBEB"/>
<path d="M97.1777 26.0497C96.9202 25.7718 96.6169 25.5403 96.2809 25.3653C95.8089 25.1576 95.3676 25.3865 95.1269 25.4219C94.8862 25.4573 94.695 25.2945 94.61 25.3393C94.5251 25.3842 94.7564 25.7382 94.7564 25.7382C94.7564 25.7382 94.4354 25.7382 94.4755 25.8798C94.5585 26.1242 94.6932 26.3478 94.8703 26.5355C95.0475 26.7233 95.2629 26.8707 95.5021 26.9677C96.1865 27.2462 96.5972 26.9677 96.5972 26.9677C96.5972 26.9677 96.1464 27.2958 96.1252 27.6521C96.1039 28.0085 96.4036 29.0681 96.5972 29.1554C96.7907 29.2428 96.7954 29.0917 96.911 29.0846C97.0267 29.0776 97.0621 29.2852 97.1612 29.2923C97.2603 29.2994 97.2344 29.1743 97.4208 28.9714C97.6072 28.7684 98.3388 28.4002 98.2964 27.7914C98.3206 27.9453 98.3768 28.0924 98.4614 28.2233C98.5459 28.3542 98.6569 28.4659 98.7872 28.5513C99.2191 28.8132 99.4079 28.9832 99.4787 29.002C99.5495 29.0209 99.6038 28.818 99.6038 28.818C99.6038 28.818 100.003 28.9619 100.076 28.8935C100.149 28.825 99.9295 28.6575 99.9012 28.5041C99.8728 28.3507 99.9295 27.7701 99.7454 27.3996C99.5813 27.1379 99.3431 26.9309 99.061 26.8049C99.3742 26.9555 99.7229 27.0168 100.069 26.9819C100.505 26.8828 100.682 26.6302 100.663 26.5476C100.645 26.465 100.527 26.4674 100.486 26.3895C100.446 26.3116 100.602 26.288 100.567 26.2054C100.531 26.1228 100.354 26.1464 100.156 26.0615C99.8917 25.8959 99.6013 25.7762 99.297 25.7075C98.825 25.6249 98.5088 26.1276 98.5088 26.1276C98.5831 26.0155 98.6314 25.8883 98.6502 25.7552C98.669 25.6221 98.6577 25.4864 98.6173 25.3582C98.4627 25.0203 98.2277 24.7254 97.9329 24.4992C97.7842 24.3528 97.6969 23.9186 97.6002 23.928C97.5034 23.9375 97.442 24.1475 97.3807 24.164C97.3193 24.1806 97.232 23.9068 97.1234 23.8832C97.0149 23.8596 96.6939 24.5062 96.6632 24.8272C96.6326 25.1482 96.6208 25.5328 97.1777 26.0497Z" fill="white"/>
<path d="M97.8975 26.6491C97.6309 26.0969 97.432 25.5144 97.3052 24.9145C97.1754 24.3198 97.0857 23.7156 97.0125 23.1067C96.9394 22.4979 96.8662 21.8819 96.7482 21.2659C96.6302 20.65 96.4627 20.0128 96.0402 19.5408C96.3423 20.0883 96.3989 20.7019 96.4721 21.3084C96.5453 21.9149 96.5807 22.5333 96.6562 23.1516C96.7299 23.7736 96.8579 24.3879 97.0385 24.9877C97.2138 25.5922 97.5056 26.1566 97.8975 26.6491Z" fill="#A6A6A6"/>
<path d="M96.4437 19.4606C96.4281 19.3803 96.3889 19.3064 96.3312 19.2484C96.2735 19.1904 96.1999 19.1508 96.1197 19.1347C96.0395 19.1186 95.9563 19.1266 95.8807 19.1579C95.8051 19.1891 95.7404 19.2421 95.695 19.3101C95.6495 19.3781 95.6253 19.4581 95.6254 19.5399C95.6254 19.6218 95.6498 19.7017 95.6954 19.7697C95.741 19.8376 95.8057 19.8905 95.8814 19.9216C95.957 19.9527 96.0402 19.9606 96.1204 19.9444C96.2272 19.9227 96.3212 19.8597 96.3817 19.7691C96.4423 19.6784 96.4646 19.5675 96.4437 19.4606Z" fill="#A6A6A6"/>
<path d="M97.8668 26.5688C97.6419 27.1389 97.3495 27.6801 96.996 28.1807C96.6491 28.681 96.2668 29.1578 95.8703 29.6274C95.4738 30.097 95.0702 30.5714 94.6903 31.0717C94.3103 31.572 93.9658 32.1337 93.9091 32.7638C94.105 32.1691 94.5156 31.7113 94.9098 31.2464C95.3039 30.7814 95.7358 30.333 96.1346 29.8563C96.5454 29.3779 96.9126 28.8637 97.232 28.32C97.5539 27.7823 97.7694 27.1878 97.8668 26.5688Z" fill="#A6A6A6"/>
<path d="M93.5834 32.5232C93.5365 32.5892 93.5101 32.6677 93.5076 32.7487C93.5052 32.8297 93.5268 32.9097 93.5696 32.9784C93.6125 33.0472 93.6748 33.1017 93.7486 33.1352C93.8225 33.1686 93.9045 33.1795 93.9845 33.1664C94.0645 33.1533 94.1388 33.1168 94.1981 33.0615C94.2574 33.0062 94.299 32.9347 94.3177 32.8558C94.3364 32.7769 94.3313 32.6943 94.3031 32.6183C94.2749 32.5423 94.2249 32.4764 94.1593 32.4288C94.0703 32.365 93.9598 32.3392 93.8518 32.3569C93.7439 32.3746 93.6473 32.4344 93.5834 32.5232Z" fill="#A6A6A6"/>
<path d="M97.8881 26.668C98.4143 27.0054 98.9359 27.3382 99.4409 27.6898C99.9402 28.0432 100.418 28.4262 100.871 28.8368C101.322 29.2501 101.748 29.6907 102.146 30.156C102.544 30.628 102.941 31.1 103.368 31.572C103.052 31.034 102.736 30.4982 102.365 29.9908C101.996 29.4782 101.576 29.0038 101.112 28.5748C100.644 28.1518 100.134 27.7777 99.5896 27.4586C99.0482 27.1429 98.4785 26.8782 97.8881 26.668Z" fill="#A6A6A6"/>
<path d="M103.625 31.2393C103.689 31.2902 103.736 31.3589 103.761 31.4367C103.786 31.5145 103.787 31.5979 103.765 31.6764C103.742 31.7549 103.697 31.8249 103.635 31.8777C103.572 31.9304 103.496 31.9635 103.415 31.9728C103.334 31.982 103.251 31.967 103.179 31.9296C103.106 31.8922 103.046 31.8341 103.007 31.7627C102.967 31.6912 102.95 31.6097 102.956 31.5283C102.963 31.4469 102.994 31.3693 103.045 31.3054C103.078 31.2629 103.12 31.2275 103.168 31.2012C103.215 31.1749 103.267 31.1582 103.321 31.1521C103.375 31.1459 103.43 31.1505 103.482 31.1654C103.534 31.1804 103.583 31.2055 103.625 31.2393Z" fill="#A6A6A6"/>
<path d="M97.8975 26.6492C98.4049 27.1838 98.8674 27.7592 99.2805 28.3696C99.6754 28.9853 100.019 29.6326 100.307 30.3048C100.599 30.9906 100.931 31.6588 101.301 32.3061C101.682 32.9513 102.14 33.548 102.665 34.0832C102.254 33.4691 101.88 32.8307 101.546 32.1716C101.218 31.5179 100.935 30.8382 100.633 30.1561C100.335 29.4648 99.9568 28.8105 99.507 28.2068C99.0464 27.6145 98.5045 27.0902 97.8975 26.6492Z" fill="#A6A6A6"/>
<path d="M103.005 33.8495C103.05 33.9162 103.075 33.9948 103.076 34.0755C103.077 34.1562 103.054 34.2354 103.01 34.3032C102.966 34.371 102.904 34.4244 102.83 34.4567C102.756 34.489 102.674 34.4989 102.594 34.485C102.515 34.4711 102.441 34.4341 102.383 34.3786C102.324 34.3231 102.283 34.2515 102.265 34.1729C102.247 34.0943 102.252 34.0121 102.28 33.9365C102.309 33.8609 102.359 33.7954 102.424 33.748C102.469 33.716 102.519 33.6933 102.573 33.6811C102.626 33.6689 102.682 33.6675 102.736 33.6769C102.79 33.6864 102.841 33.7065 102.887 33.7361C102.934 33.7658 102.973 33.8043 103.005 33.8495Z" fill="#A6A6A6"/>
<path d="M97.8975 26.6492C97.5578 26.4176 97.1985 26.2162 96.8237 26.0474C96.636 25.9569 96.4429 25.8781 96.2455 25.8114C96.0523 25.7394 95.8553 25.6779 95.6555 25.6273C94.8588 25.4184 94.0426 25.2926 93.22 25.2521C92.401 25.2025 91.5821 25.1978 90.7703 25.2072C90.362 25.2072 89.9584 25.2072 89.5549 25.1836C89.1485 25.1825 88.7468 25.0973 88.3749 24.9335C88.7219 25.1612 89.1169 25.3058 89.5289 25.3559C89.9348 25.4196 90.3455 25.455 90.7538 25.481C91.5703 25.5376 92.3845 25.5518 93.1916 25.6084C93.9967 25.6501 94.7979 25.7479 95.5894 25.9011C96.3855 26.0587 97.1603 26.3098 97.8975 26.6492Z" fill="#A6A6A6"/>
<path d="M88.3183 25.344C88.2385 25.3312 88.1642 25.2951 88.1049 25.2402C88.0455 25.1854 88.0036 25.1143 87.9845 25.0357C87.9654 24.9572 87.9699 24.8748 87.9974 24.7988C88.0249 24.7228 88.0742 24.6566 88.1392 24.6085C88.2042 24.5604 88.2819 24.5326 88.3626 24.5285C88.4433 24.5244 88.5235 24.5442 88.593 24.5854C88.6625 24.6267 88.7183 24.6875 88.7534 24.7603C88.7885 24.8331 88.8013 24.9147 88.7903 24.9947C88.7831 25.0491 88.7651 25.1014 88.7373 25.1486C88.7094 25.1958 88.6724 25.2369 88.6284 25.2695C88.5843 25.3021 88.5342 25.3255 88.4809 25.3383C88.4276 25.3511 88.3723 25.353 88.3183 25.344Z" fill="#A6A6A6"/>
<path d="M97.8975 26.6491C99.1365 26.7294 100.366 26.4934 101.57 26.3164C102.771 26.0983 103.988 25.9721 105.209 25.9388C103.993 25.6626 102.726 25.7783 101.513 25.9624C100.907 26.0615 100.302 26.1795 99.7029 26.3022C99.1035 26.4249 98.5064 26.5524 97.8975 26.6491Z" fill="#A6A6A6"/>
<path d="M105.225 26.3495C105.307 26.3461 105.386 26.3186 105.452 26.2704C105.518 26.2222 105.568 26.1555 105.596 26.0787C105.624 26.0019 105.629 25.9185 105.61 25.8391C105.59 25.7597 105.548 25.6878 105.488 25.6325C105.427 25.5772 105.352 25.5411 105.271 25.5286C105.191 25.5162 105.108 25.528 105.034 25.5625C104.96 25.5971 104.898 25.6529 104.855 25.7228C104.813 25.7927 104.792 25.8737 104.796 25.9553C104.798 26.0095 104.811 26.0627 104.834 26.1118C104.856 26.161 104.889 26.2052 104.929 26.2418C104.968 26.2785 105.015 26.3068 105.066 26.3253C105.117 26.3438 105.171 26.352 105.225 26.3495Z" fill="#A6A6A6"/>
<path d="M97.8975 26.6491C98.4067 26.5705 98.9043 26.4302 99.3796 26.2314C99.8516 26.0426 100.324 25.8137 100.772 25.6037C101.22 25.3936 101.685 25.1836 102.155 25.0042C102.625 24.8249 103.099 24.6762 103.599 24.5322C103.083 24.5319 102.569 24.5993 102.07 24.7328C101.571 24.8689 101.086 25.0506 100.621 25.2756C99.6935 25.724 98.8368 26.2361 97.8975 26.6491Z" fill="#A6A6A6"/>
<path d="M103.715 24.9334C103.794 24.9109 103.864 24.8656 103.917 24.8032C103.969 24.7407 104.003 24.664 104.012 24.5827C104.021 24.5014 104.006 24.4192 103.968 24.3466C103.931 24.2739 103.872 24.214 103.801 24.1746C103.729 24.1351 103.647 24.1178 103.566 24.1248C103.484 24.1319 103.407 24.163 103.343 24.2142C103.279 24.2654 103.232 24.3344 103.207 24.4124C103.183 24.4905 103.182 24.5741 103.205 24.6526C103.236 24.7572 103.307 24.8454 103.402 24.898C103.498 24.9506 103.61 24.9634 103.715 24.9334Z" fill="#A6A6A6"/>
<path d="M27.376 91.6931C27.376 91.6931 29.5 90.4588 28.9171 87.353C28.3341 84.2473 26.0827 80.384 25.724 80.24C25.3653 80.096 24.5652 81.3539 24.5652 81.3539C24.5652 81.3539 24.1452 79.5273 23.6897 79.5178C23.2342 79.5084 19.7886 83.5818 19.6918 86.173C19.5951 88.7643 21.4123 91.3485 21.4123 91.3485C21.4123 91.3485 19.6895 88.677 16.9637 88.441C14.2379 88.205 13.3198 88.5968 12.2319 88.4858C11.1439 88.3749 10.1456 88.0799 9.96155 88.2144C9.77747 88.349 10.5303 89.3166 10.5303 89.3166C10.5303 89.3166 9.21815 89.0192 8.98451 89.2859C8.75087 89.5526 9.68071 90.893 9.80343 91.6223C9.92615 92.3515 10.9834 96.9252 18.0634 97.0172C18.0634 97.0172 13.9759 99.0303 13.393 100.838C12.8101 102.646 12.541 104.919 12.2555 105.558C11.9699 106.198 11.5923 106.866 13.3316 106.353C13.3316 106.353 12.4915 107.519 12.9871 107.758C13.4827 107.996 17.9431 107.368 20.093 105.711C21.6129 104.543 22.4932 103.21 22.951 100.807C22.951 100.807 22.6489 104.624 24.9405 106.124C27.232 107.625 29.6605 109.332 30.1325 109.112C30.6045 108.893 30.3968 108.303 30.7602 108.355C31.1237 108.407 31.7042 109.143 32.2116 108.949C32.4264 108.872 32.1479 107.533 32.2588 106.589C32.3697 105.645 32.9668 102.646 32.4264 101.315C31.8859 99.9838 30.3803 97.9542 28.7519 97.4208C28.7519 97.4208 31.539 99.1601 34.8289 98.4049C38.1187 97.6497 39.3129 94.5322 39.1429 94.2112C38.973 93.8902 38.3783 93.7392 38.2933 93.4206C38.2084 93.102 39.4356 92.7126 39.2019 92.1651C38.9683 91.6176 38.0951 91.9621 36.7381 91.5704C35.3811 91.1786 33.3114 89.8664 31.3101 89.9632C29.3088 90.06 27.376 91.6931 27.376 91.6931Z" fill="#DBDBDB"/>
<path d="M24.9594 94.5109C24.9594 94.5109 25.5659 94.1593 25.4007 93.2719C25.2355 92.3846 24.5936 91.2777 24.4897 91.2352C24.3859 91.1927 24.157 91.5538 24.157 91.5538C24.157 91.5538 24.039 91.0323 23.9068 91.0299C23.7746 91.0276 22.7929 92.191 22.7646 92.9344C22.7362 93.6778 23.2554 94.4142 23.2554 94.4142C23.2554 94.4142 22.7646 93.6495 21.9834 93.5811C21.2022 93.5126 20.9426 93.6259 20.6311 93.5952C20.4179 93.5478 20.2005 93.5217 19.9821 93.5174C19.9278 93.5551 20.145 93.8336 20.145 93.8336C20.145 93.8336 19.7674 93.7463 19.7013 93.8336C19.6352 93.9209 19.9019 94.2938 19.9373 94.5015C19.9727 94.7091 20.2724 96.019 22.2973 96.0449C22.2973 96.0449 21.1291 96.6208 20.9615 97.1376C20.794 97.6544 20.7255 98.3034 20.6358 98.4852C20.5462 98.6669 20.447 98.858 20.945 98.7212C20.945 98.7212 20.709 99.0563 20.8459 99.1224C20.9828 99.1884 22.2619 99.0114 22.8778 98.5371C23.102 98.3709 23.2901 98.1609 23.4308 97.92C23.5716 97.6791 23.662 97.4121 23.6968 97.1352C23.6968 97.1352 23.6094 98.2279 24.2655 98.6551C24.9216 99.0822 25.6178 99.5731 25.75 99.5118C25.8821 99.4504 25.8255 99.2758 25.9293 99.2946C26.0332 99.3135 26.196 99.5188 26.3447 99.4646C26.406 99.441 26.3258 99.061 26.3588 98.7872C26.3919 98.5135 26.5594 97.6592 26.406 97.2792C26.2526 96.8992 25.8208 96.3187 25.3558 96.1653C25.8819 96.4655 26.4989 96.5653 27.0928 96.4461C28.0368 96.2314 28.3766 95.3393 28.3271 95.2472C28.2775 95.1552 28.1076 95.1127 28.0911 95.0112C28.0746 94.9098 28.4191 94.8106 28.3507 94.6525C28.2822 94.4944 28.0344 94.5935 27.6427 94.4826C27.2509 94.3717 26.6633 93.9941 26.0898 94.0224C25.675 94.0775 25.2837 94.2466 24.9594 94.5109Z" fill="white"/>
<path d="M23.9988 95.4951C24.1631 95.1278 24.4231 94.8115 24.7517 94.5794C25.0608 94.3221 25.3912 94.0767 25.6957 93.7888C26.0033 93.5026 26.2702 93.1754 26.4886 92.8165C26.685 92.4281 26.7922 92.0007 26.8025 91.5657C26.8177 90.7392 26.7305 89.914 26.5429 89.1089C26.3681 88.3098 26.1314 87.5255 25.8349 86.7631C25.9104 87.1643 25.993 87.5607 26.0709 87.9619C26.1488 88.3631 26.2149 88.7596 26.2715 89.1585C26.3989 89.948 26.4566 90.7472 26.4438 91.5468C26.4396 91.9252 26.3552 92.2985 26.196 92.6418C26 92.9809 25.7673 93.2975 25.5022 93.5858C25.2378 93.8832 24.9358 94.1499 24.6431 94.4378C24.3281 94.7184 24.1038 95.0865 23.9988 95.4951Z" fill="#A6A6A6"/>
<path d="M23.6283 87.2516C23.1756 87.8273 22.8149 88.4698 22.5592 89.1561C22.2603 89.8574 22.1869 90.6343 22.3492 91.3792C22.5522 92.0872 22.7646 92.7622 22.9935 93.4513C23.2224 94.1404 23.4655 94.8154 23.7416 95.4903C23.6047 94.7776 23.4474 94.0696 23.2696 93.3663C23.095 92.6583 22.8896 91.9503 22.7008 91.2777C22.611 90.9506 22.5861 90.6091 22.6277 90.2724C22.6604 89.9234 22.7284 89.5787 22.8306 89.2434C23.037 88.5572 23.3039 87.8906 23.6283 87.2516Z" fill="#A6A6A6"/>
<path d="M32.4925 94.7941C31.7575 94.6491 31.0048 94.6157 30.2599 94.695C29.5126 94.7655 28.7743 94.9101 28.0557 95.1269C27.3643 95.3475 26.6528 95.4992 25.9317 95.58C25.2038 95.6657 24.467 95.6355 23.7487 95.4903C24.4457 95.777 25.198 95.9044 25.9505 95.8632C26.7041 95.8334 27.4503 95.7024 28.1689 95.4738C28.8654 95.2621 29.5749 95.0958 30.2929 94.9758C31.0194 94.8511 31.7554 94.7903 32.4925 94.7941Z" fill="#A6A6A6"/>
<path d="M28.7212 104.85C28.8202 103.935 28.7555 103.01 28.53 102.117C28.4184 101.662 28.2445 101.224 28.0132 100.817C27.7623 100.429 27.4896 100.055 27.1966 99.6982C26.6231 98.9902 26.0355 98.2964 25.4502 97.6073C25.156 97.2627 24.8712 96.9111 24.5959 96.5524C24.305 96.2057 24.0606 95.8225 23.869 95.4125C23.9973 95.8538 24.1931 96.2725 24.4496 96.6538C24.6856 97.0385 24.9593 97.4114 25.2307 97.7796C25.7688 98.5159 26.3494 99.2144 26.9111 99.9248C27.1981 100.266 27.4675 100.622 27.7182 100.992C27.9451 101.37 28.1272 101.774 28.261 102.195C28.4005 102.621 28.5047 103.057 28.5725 103.5C28.6506 103.947 28.7003 104.397 28.7212 104.85Z" fill="#A6A6A6"/>
<path d="M23.869 95.4927C22.8842 95.6758 21.9465 96.0563 21.1126 96.6113C20.4671 97.0228 19.922 97.5736 19.5172 98.2232C19.3859 98.4231 19.2433 98.6154 19.09 98.799C18.4378 99.5236 17.7179 100.184 16.9401 100.772C16.5601 101.086 16.1731 101.397 15.8191 101.751C15.4484 102.091 15.1685 102.518 15.0049 102.993C15.2266 102.556 15.5446 102.175 15.9347 101.879C16.3076 101.563 16.7064 101.275 17.1147 100.989C17.9465 100.432 18.706 99.7743 19.3756 99.0303C19.5393 98.8349 19.6891 98.6283 19.824 98.412C19.9489 98.2084 20.0877 98.0136 20.2394 97.8291C20.5489 97.4606 20.8997 97.1288 21.2848 96.8402C21.6722 96.5458 22.0862 96.2882 22.5215 96.0709C22.9554 95.8444 23.4059 95.6511 23.869 95.4927Z" fill="#A6A6A6"/>
<path d="M23.869 95.4125C23.1763 94.7341 22.3796 94.1708 21.509 93.744C20.6408 93.298 19.7097 92.9868 18.7478 92.8212C17.7755 92.6536 16.8126 92.682 15.8639 92.6159C15.3919 92.5899 14.9199 92.5498 14.4479 92.4861C13.972 92.4502 13.5042 92.3428 13.0602 92.1675C13.2617 92.3042 13.4841 92.407 13.7187 92.4719C13.9547 92.5474 14.1907 92.6064 14.4267 92.6631C14.8987 92.7622 15.3707 92.833 15.8568 92.8991C16.8174 93.0336 17.785 93.0147 18.7054 93.1846C19.6367 93.346 20.5449 93.6202 21.4099 94.0012C21.8382 94.1864 22.2544 94.3984 22.656 94.636C23.0772 94.8675 23.4825 95.1269 23.869 95.4125Z" fill="#A6A6A6"/>
<path d="M23.7959 95.5376C23.5339 96.1795 23.2767 96.8214 23.0289 97.461C22.7811 98.1006 22.5262 98.7448 22.2241 99.349C22.1535 99.4964 22.0747 99.6398 21.9881 99.7785C21.8952 99.9093 21.7884 100.03 21.6695 100.137C21.4335 100.373 21.1668 100.593 20.9072 100.815L19.3048 102.124C19.921 101.804 20.514 101.442 21.0795 101.039C21.3668 100.838 21.6426 100.621 21.9055 100.39C22.0459 100.269 22.1718 100.132 22.2808 99.9815C22.3806 99.8297 22.4712 99.6721 22.5522 99.5095C22.8522 98.8787 23.1023 98.2253 23.3003 97.5554C23.5042 96.8929 23.6697 96.2192 23.7959 95.5376Z" fill="#A6A6A6"/>
<path d="M28.4309 104.64C28.3914 104.678 28.3598 104.724 28.3379 104.774C28.3159 104.824 28.3042 104.879 28.3032 104.934C28.3022 104.988 28.312 105.043 28.3321 105.094C28.3522 105.145 28.3822 105.192 28.4203 105.231C28.4584 105.271 28.5039 105.302 28.5543 105.324C28.6046 105.346 28.6588 105.358 28.7137 105.359C28.7686 105.36 28.8231 105.35 28.8742 105.33C28.9253 105.31 28.972 105.28 29.0115 105.242C29.051 105.204 29.0826 105.158 29.1045 105.108C29.1264 105.058 29.1382 105.003 29.1392 104.949C29.1402 104.894 29.1304 104.839 29.1103 104.788C29.0902 104.737 29.0602 104.69 29.0221 104.651C28.984 104.611 28.9384 104.58 28.8881 104.558C28.8378 104.536 28.7836 104.524 28.7287 104.523C28.6738 104.522 28.6193 104.532 28.5682 104.552C28.5171 104.572 28.4704 104.602 28.4309 104.64Z" fill="#A6A6A6"/>
<path d="M12.7605 91.8654C12.6822 91.9441 12.6383 92.0506 12.6383 92.1616C12.6383 92.2726 12.6822 92.3791 12.7605 92.4578C12.7986 92.4973 12.8441 92.5289 12.8945 92.5508C12.9448 92.5728 12.999 92.5845 13.0539 92.5855C13.1088 92.5865 13.1633 92.5767 13.2144 92.5566C13.2655 92.5365 13.3122 92.5065 13.3517 92.4684C13.3912 92.4303 13.4228 92.3848 13.4447 92.3344C13.4666 92.2841 13.4784 92.2299 13.4794 92.175C13.4804 92.1201 13.4706 92.0656 13.4505 92.0145C13.4304 91.9634 13.4004 91.9167 13.3623 91.8772C13.3239 91.8363 13.2778 91.8034 13.2265 91.7806C13.1753 91.7578 13.12 91.7454 13.0639 91.7443C13.0078 91.7432 12.952 91.7534 12.8999 91.7742C12.8478 91.795 12.8004 91.826 12.7605 91.8654Z" fill="#A6A6A6"/>
<path d="M19.0098 101.822C18.9673 101.859 18.9328 101.905 18.9084 101.956C18.884 102.007 18.8701 102.062 18.8677 102.119C18.8653 102.175 18.8743 102.231 18.8943 102.284C18.9142 102.337 18.9447 102.385 18.9838 102.426C19.0229 102.467 19.0699 102.499 19.1219 102.521C19.1739 102.543 19.2298 102.554 19.2863 102.554C19.3428 102.554 19.3986 102.542 19.4505 102.52C19.5023 102.498 19.5491 102.465 19.588 102.424C19.6275 102.386 19.6591 102.34 19.6811 102.29C19.703 102.24 19.7148 102.186 19.7158 102.131C19.7167 102.076 19.7069 102.021 19.6868 101.97C19.6667 101.919 19.6367 101.872 19.5986 101.833C19.5605 101.793 19.515 101.762 19.4646 101.74C19.4143 101.718 19.3601 101.706 19.3052 101.705C19.2503 101.704 19.1958 101.714 19.1447 101.734C19.0936 101.754 19.047 101.784 19.0074 101.822H19.0098Z" fill="#A6A6A6"/>
<path d="M14.7146 102.693C14.6564 102.752 14.6169 102.826 14.6009 102.907C14.585 102.988 14.5934 103.072 14.6251 103.148C14.6568 103.224 14.7103 103.289 14.779 103.335C14.8476 103.381 14.9283 103.405 15.0108 103.405C15.0933 103.405 15.174 103.381 15.2426 103.335C15.3113 103.289 15.3648 103.224 15.3965 103.148C15.4282 103.072 15.4366 102.988 15.4207 102.907C15.4047 102.826 15.3652 102.752 15.307 102.693C15.2682 102.654 15.222 102.623 15.1712 102.602C15.1204 102.581 15.0658 102.57 15.0108 102.57C14.9558 102.57 14.9012 102.581 14.8504 102.602C14.7996 102.623 14.7534 102.654 14.7146 102.693Z" fill="#A6A6A6"/>
<path d="M32.2022 94.4944C32.1425 94.5516 32.1012 94.6252 32.0834 94.7059C32.0655 94.7866 32.0721 94.8708 32.1021 94.9478C32.1322 95.0248 32.1844 95.0911 32.2522 95.1384C32.32 95.1858 32.4003 95.2119 32.4829 95.2135C32.5656 95.2152 32.6468 95.1923 32.7164 95.1477C32.7861 95.1032 32.8409 95.039 32.874 94.9632C32.9071 94.8875 32.917 94.8037 32.9025 94.7223C32.8879 94.6409 32.8495 94.5657 32.7922 94.5062C32.7543 94.4664 32.709 94.4346 32.6588 94.4125C32.6086 94.3903 32.5545 94.3784 32.4996 94.3773C32.4448 94.3762 32.3902 94.386 32.3392 94.4061C32.2881 94.4262 32.2416 94.4562 32.2022 94.4944Z" fill="#A6A6A6"/>
<path d="M23.338 86.9495C23.2779 87.007 23.2362 87.081 23.2182 87.1622C23.2001 87.2434 23.2066 87.3282 23.2368 87.4057C23.267 87.4832 23.3195 87.55 23.3877 87.5976C23.4559 87.6452 23.5367 87.6715 23.6199 87.6732C23.7031 87.6749 23.7849 87.6518 23.8549 87.6069C23.9249 87.562 23.9801 87.4974 24.0133 87.4211C24.0466 87.3449 24.0564 87.2605 24.0417 87.1786C24.0269 87.0968 23.9882 87.0211 23.9304 86.9613C23.8923 86.9215 23.8468 86.8896 23.7964 86.8675C23.746 86.8453 23.6917 86.8333 23.6367 86.8322C23.5816 86.8311 23.5269 86.8409 23.4756 86.8611C23.4244 86.8812 23.3776 86.9113 23.338 86.9495Z" fill="#A6A6A6"/>
<path d="M25.5706 86.4634C25.531 86.5015 25.4994 86.547 25.4775 86.5974C25.4556 86.6477 25.4438 86.7019 25.4428 86.7568C25.4418 86.8117 25.4517 86.8662 25.4718 86.9173C25.4919 86.9684 25.5218 87.0151 25.5599 87.0546C25.5981 87.0941 25.6436 87.1257 25.6939 87.1476C25.7443 87.1695 25.7984 87.1813 25.8533 87.1823C25.9082 87.1833 25.9628 87.1735 26.0139 87.1534C26.065 87.1333 26.1116 87.1033 26.1511 87.0652C26.1906 87.0271 26.2223 86.9815 26.2442 86.9312C26.2661 86.8809 26.2779 86.8267 26.2789 86.7718C26.2799 86.7169 26.27 86.6623 26.2499 86.6113C26.2298 86.5602 26.1999 86.5135 26.1617 86.474C26.1236 86.4345 26.0781 86.4029 26.0278 86.381C25.9774 86.359 25.9232 86.3472 25.8684 86.3463C25.8135 86.3453 25.7589 86.3551 25.7078 86.3752C25.6567 86.3953 25.6101 86.4253 25.5706 86.4634Z" fill="#A6A6A6"/>
<path d="M80.3084 16.0763C80.3084 16.0763 80.0299 14.2049 77.6369 13.7329C75.2438 13.2609 71.8266 13.7635 71.6212 13.983C71.4159 14.2025 72.0932 15.1323 72.0932 15.1323C72.0932 15.1323 70.6631 14.9105 70.5262 15.2338C70.3893 15.5571 72.3269 19.1963 74.1606 20.0057C75.9943 20.8152 78.3661 20.2417 78.3661 20.2417C78.3661 20.2417 75.9542 20.7137 75.0078 22.6017C74.0615 24.4897 74.078 25.2591 73.6862 26.0096C73.2945 26.7601 72.7989 27.3902 72.8414 27.5601C72.8838 27.73 73.7972 27.4681 73.7972 27.4681C73.7972 27.4681 73.2072 28.3248 73.3252 28.5678C73.4432 28.8109 74.6774 28.5277 75.2368 28.6481C75.7961 28.7684 79.3762 29.323 81.4695 24.2585C81.4695 24.2585 81.7456 27.7678 82.8855 28.7024C84.0254 29.6369 85.5688 30.4794 85.9394 30.8665C86.3099 31.2535 86.6875 31.7137 86.8173 30.319C86.8173 30.319 87.4144 31.263 87.7259 30.9703C88.0374 30.6777 88.8634 27.3052 88.2899 25.2851C87.8864 23.8691 87.1807 22.8472 85.5877 21.8324C85.5877 21.8324 88.2404 23.1398 89.9726 21.9244C91.7048 20.709 93.6259 19.4464 93.5999 19.0547C93.574 18.6629 93.0902 18.644 93.2318 18.408C93.3734 18.172 94.0625 17.962 94.0743 17.5348C94.0743 17.3578 93.043 17.1761 92.3892 16.8268C91.7355 16.4775 89.7602 15.1937 88.651 15.2008C87.5418 15.2079 85.6538 15.7082 84.8066 16.723C84.8066 16.723 86.8503 15.2197 87.2492 12.6425C87.648 10.0654 85.7553 8.31431 85.4744 8.34735C85.1936 8.38039 84.9175 8.76271 84.665 8.73203C84.4124 8.70135 84.488 7.70071 84.016 7.71251C83.544 7.72431 83.544 8.44883 82.8855 9.31023C82.2271 10.1716 80.6884 11.2808 80.1857 12.744C79.683 14.2072 80.3084 16.0763 80.3084 16.0763Z" fill="#DBDBDB"/>
<path d="M81.656 18.6087C81.6133 18.4294 81.5154 18.268 81.3761 18.1474C81.2368 18.0267 81.0631 17.9528 80.8796 17.9361C80.3075 17.839 79.7213 17.8631 79.1591 18.0069C79.1001 18.0706 79.2937 18.3373 79.2937 18.3373C79.2937 18.3373 78.8854 18.2736 78.8453 18.3656C78.8051 18.4576 79.3597 19.4984 79.886 19.7297C80.272 19.865 80.6881 19.8895 81.0873 19.8005C81.0873 19.8005 80.3981 19.935 80.1267 20.4754C79.8553 21.0159 79.8624 21.2354 79.7491 21.4501C79.6571 21.5905 79.5781 21.739 79.5131 21.8938C79.5249 21.9434 79.7845 21.8678 79.7845 21.8678C79.7845 21.8678 79.617 22.1038 79.6524 22.1841C79.6878 22.2643 80.0394 22.1723 80.1999 22.2053C80.3604 22.2384 81.3799 22.3988 81.9817 20.9498C81.9817 20.9498 82.0619 21.9528 82.3853 22.2218C82.7086 22.4909 83.1523 22.7292 83.2585 22.8402C83.3647 22.9511 83.4732 23.0762 83.511 22.6844C83.511 22.6844 83.6809 22.9511 83.7706 22.8708C83.9804 22.355 84.0362 21.7893 83.9311 21.2424C83.8754 21.0346 83.7783 20.84 83.6457 20.6705C83.5131 20.501 83.3477 20.36 83.1593 20.256C83.1593 20.256 83.9169 20.6312 84.4125 20.2819C84.9081 19.9326 85.458 19.5739 85.4509 19.4606C85.4438 19.3474 85.3046 19.3403 85.3471 19.2718C85.3895 19.2034 85.5831 19.1444 85.5831 19.0217C85.5831 18.9721 85.2881 18.9178 85.1111 18.8187C84.9341 18.7196 84.3582 18.3467 84.042 18.3467C83.6337 18.3474 83.2408 18.5025 82.9422 18.781C83.3106 18.49 83.5619 18.0761 83.6502 17.6151C83.7635 16.8764 83.2231 16.3761 83.1405 16.3856C83.0579 16.395 82.9823 16.5036 82.9045 16.4965C82.8266 16.4894 82.8525 16.2038 82.7204 16.2062C82.5882 16.2086 82.5882 16.4162 82.3971 16.664C82.2059 16.9118 81.7669 17.2281 81.6253 17.6458C81.5452 17.9633 81.5558 18.2969 81.656 18.6087Z" fill="white"/>
<path d="M82.0761 19.5881C81.8591 19.3654 81.7066 19.0881 81.6348 18.7857C81.538 18.4907 81.4554 18.1839 81.3351 17.8865C81.2174 17.5838 81.0585 17.2987 80.8631 17.0393C80.6391 16.7881 80.3628 16.5891 80.0536 16.4563C79.4648 16.2082 78.8472 16.0354 78.2151 15.9419C77.5912 15.8362 76.9599 15.7802 76.3271 15.7743C76.6363 15.8357 76.9431 15.8876 77.2499 15.956C77.5567 16.0245 77.8635 16.0811 78.1656 16.1543C78.7686 16.2874 79.3585 16.4737 79.9285 16.7112C80.1956 16.8248 80.4365 16.9918 80.6365 17.2021C80.8244 17.4416 80.9866 17.7003 81.1203 17.9738C81.2572 18.2476 81.3563 18.5426 81.4861 18.8352C81.6034 19.1393 81.8088 19.4015 82.0761 19.5881Z" fill="#A6A6A6"/>
<path d="M76.0533 17.4877C76.3378 17.977 76.696 18.4196 77.1153 18.7998C77.5329 19.2161 78.07 19.4917 78.6517 19.5881C79.2157 19.6447 79.7633 19.6872 80.3226 19.7179C80.8819 19.7486 81.4365 19.7674 81.9982 19.7651C81.4491 19.6597 80.8984 19.5708 80.3462 19.4984C79.7939 19.4229 79.2275 19.3686 78.6942 19.3096C78.4333 19.2805 78.1807 19.2003 77.9508 19.0736C77.7055 18.9544 77.473 18.8105 77.2569 18.6441C76.8214 18.296 76.4185 17.9089 76.0533 17.4877Z" fill="#A6A6A6"/>
<path d="M84.0018 13.2844C83.6874 13.7702 83.4487 14.301 83.2938 14.8585C83.1316 15.4147 83.0241 15.9854 82.9729 16.5625C82.9339 17.1212 82.839 17.6746 82.6897 18.2145C82.5431 18.7614 82.3105 19.2816 82.0005 19.7555C82.4056 19.3368 82.712 18.8328 82.8974 18.2805C83.0922 17.732 83.212 17.1596 83.2537 16.579C83.3013 16.0163 83.3857 15.4574 83.5062 14.9057C83.6232 14.3517 83.7891 13.8092 84.0018 13.2844Z" fill="#A6A6A6"/>
<path d="M90.152 18.8636C89.5228 18.5315 88.8395 18.3141 88.1342 18.2216C87.7756 18.1721 87.4119 18.1721 87.0533 18.2216C86.7031 18.2907 86.3572 18.3798 86.0172 18.4883C85.3446 18.696 84.6815 18.9202 84.0183 19.1444C83.6856 19.2577 83.3528 19.3615 83.0177 19.4559C82.6852 19.5646 82.3402 19.6304 81.9911 19.6518C82.3446 19.6845 82.701 19.6638 83.0484 19.5904C83.3953 19.522 83.7375 19.4394 84.0797 19.3544C84.7617 19.1774 85.4296 18.9603 86.0998 18.7597C86.4302 18.6606 86.7724 18.5497 87.0958 18.486C87.4328 18.4319 87.7749 18.4169 88.1153 18.4411C88.4602 18.4625 88.8028 18.5122 89.1395 18.5898C89.4823 18.6603 89.8204 18.7518 90.152 18.8636Z" fill="#A6A6A6"/>
<path d="M82.036 19.673C81.8869 20.4317 81.8925 21.2127 82.0525 21.9693C82.1309 22.354 82.2611 22.7263 82.4395 23.0761C82.5341 23.249 82.6389 23.416 82.7534 23.5764C82.8596 23.7277 82.9566 23.8854 83.0437 24.0484C83.377 24.7238 83.6449 25.4295 83.8437 26.1559C83.9617 26.5193 84.0797 26.8851 84.2261 27.2415C84.3649 27.6059 84.592 27.9303 84.8868 28.1855C84.635 27.9021 84.4517 27.5646 84.3511 27.199C84.2308 26.8427 84.1387 26.4745 84.0467 26.104C83.8878 25.3479 83.6332 24.6151 83.2891 23.9233C83.1976 23.7492 83.0935 23.582 82.9776 23.423C82.8679 23.2721 82.7678 23.1145 82.6779 22.951C82.5028 22.6237 82.3651 22.2778 82.2672 21.9197C82.1667 21.5578 82.1004 21.1872 82.069 20.8129C82.0284 20.4343 82.0173 20.0532 82.036 19.673Z" fill="#A6A6A6"/>
<path d="M81.9793 19.6494C81.2949 19.9526 80.6632 20.3629 80.1079 20.8648C79.54 21.3609 79.0507 21.9402 78.6565 22.5829C78.2977 23.2358 77.9732 23.907 77.6841 24.5936C77.5284 24.9287 77.3655 25.2591 77.1838 25.5801C77.0217 25.911 76.8109 26.2157 76.5584 26.484C76.714 26.379 76.8512 26.2491 76.9643 26.0993C77.0847 25.9553 77.2003 25.8043 77.3018 25.6509C77.5095 25.3417 77.6959 25.0184 77.8776 24.6927C78.2458 24.0414 78.5101 23.3428 78.8948 22.7292C79.2779 22.1074 79.7352 21.5344 80.2565 21.0229C80.5134 20.7607 80.7877 20.5163 81.0778 20.2913C81.3637 20.0576 81.6649 19.8432 81.9793 19.6494Z" fill="#A6A6A6"/>
<path d="M82.0477 19.7367C82.4324 20.1096 82.8218 20.4754 83.2112 20.8388C83.6006 21.2023 83.9876 21.5657 84.3322 21.9551C84.4167 22.0486 84.4955 22.1471 84.5682 22.2501C84.6355 22.3537 84.6909 22.4645 84.7334 22.5805C84.8349 22.8165 84.9151 23.0714 85.0024 23.3215L85.4744 24.8461C85.4195 24.3128 85.3288 23.7837 85.203 23.2625C85.1392 22.9979 85.0604 22.7371 84.967 22.4814C84.92 22.3464 84.8574 22.2173 84.7806 22.0967C84.702 21.9819 84.6161 21.8723 84.5234 21.7687C84.1589 21.3737 83.7644 21.0076 83.3434 20.6736C82.9299 20.3366 82.4973 20.0237 82.0477 19.7367Z" fill="#A6A6A6"/>
<path d="M89.916 19.0122C89.9321 19.0516 89.9557 19.0875 89.9857 19.1177C90.0156 19.1479 90.0512 19.172 90.0905 19.1884C90.1297 19.2049 90.1718 19.2134 90.2144 19.2135C90.2569 19.2137 90.2991 19.2054 90.3384 19.1892C90.3975 19.1649 90.4481 19.1236 90.4837 19.0706C90.5194 19.0176 90.5385 18.9552 90.5387 18.8913C90.5389 18.8274 90.5202 18.7648 90.4849 18.7116C90.4496 18.6583 90.3993 18.6167 90.3404 18.592C90.2814 18.5673 90.2165 18.5606 90.1538 18.5728C90.091 18.585 90.0333 18.6155 89.9879 18.6605C89.9425 18.7054 89.9114 18.7628 89.8986 18.8254C89.8858 18.888 89.8919 18.953 89.916 19.0122Z" fill="#A6A6A6"/>
<path d="M76.2587 26.6066C76.283 26.6657 76.3243 26.7163 76.3773 26.7519C76.4304 26.7876 76.4928 26.8067 76.5567 26.8069C76.6206 26.8071 76.6831 26.7884 76.7364 26.7531C76.7896 26.7178 76.8312 26.6675 76.8559 26.6085C76.8806 26.5496 76.8873 26.4847 76.8751 26.4219C76.8629 26.3592 76.8324 26.3015 76.7875 26.2561C76.7425 26.2107 76.6851 26.1796 76.6225 26.1668C76.5599 26.154 76.4949 26.1601 76.4357 26.1842C76.3565 26.2171 76.2935 26.2799 76.2604 26.359C76.2273 26.4381 76.2267 26.5271 76.2587 26.6066Z" fill="#A6A6A6"/>
<path d="M85.196 24.9688C85.2203 25.0279 85.2616 25.0785 85.3146 25.1141C85.3676 25.1498 85.43 25.1689 85.4939 25.1691C85.5578 25.1693 85.6204 25.1506 85.6736 25.1153C85.7269 25.08 85.7685 25.0297 85.7932 24.9707C85.8179 24.9118 85.8245 24.8469 85.8124 24.7841C85.8002 24.7214 85.7697 24.6637 85.7247 24.6183C85.6798 24.5729 85.6223 24.5418 85.5597 24.529C85.4971 24.5162 85.4321 24.5223 85.373 24.5464C85.2938 24.5793 85.2308 24.6421 85.1977 24.7212C85.1645 24.8003 85.1639 24.8893 85.196 24.9688Z" fill="#A6A6A6"/>
<path d="M84.5871 28.2988C84.6232 28.3713 84.685 28.4276 84.7606 28.4566C84.8361 28.4857 84.9198 28.4853 84.995 28.4557C85.0703 28.4261 85.1318 28.3693 85.1672 28.2965C85.2027 28.2238 85.2096 28.1404 85.1866 28.0628C85.1738 28.0199 85.1523 27.98 85.1233 27.9459C85.0943 27.9117 85.0586 27.8839 85.0183 27.8642C84.978 27.8446 84.9341 27.8336 84.8893 27.8318C84.8445 27.83 84.7999 27.8376 84.7582 27.854C84.7165 27.8704 84.6786 27.8953 84.6471 27.9272C84.6155 27.959 84.5909 27.997 84.5748 28.0388C84.5587 28.0806 84.5515 28.1254 84.5536 28.1701C84.5558 28.2149 84.5672 28.2587 84.5871 28.2988Z" fill="#A6A6A6"/>
<path d="M83.7021 13.4072C83.7264 13.4663 83.7677 13.5168 83.8207 13.5525C83.8738 13.5881 83.9362 13.6072 84.0001 13.6075C84.064 13.6077 84.1265 13.5889 84.1798 13.5536C84.233 13.5183 84.2746 13.468 84.2993 13.4091C84.324 13.3501 84.3307 13.2852 84.3185 13.2225C84.3063 13.1598 84.2758 13.102 84.2309 13.0566C84.1859 13.0112 84.1285 12.9802 84.0659 12.9674C84.0033 12.9546 83.9383 12.9606 83.8791 12.9847C83.8397 13.0008 83.8039 13.0245 83.7736 13.0544C83.7434 13.0843 83.7194 13.1199 83.7029 13.1592C83.6865 13.1984 83.6779 13.2405 83.6778 13.2831C83.6777 13.3256 83.6859 13.3678 83.7021 13.4072Z" fill="#A6A6A6"/>
<path d="M75.756 17.6104C75.772 17.6498 75.7957 17.6856 75.8256 17.7159C75.8556 17.7461 75.8912 17.7701 75.9304 17.7866C75.9697 17.803 76.0118 17.8115 76.0543 17.8117C76.0969 17.8118 76.1391 17.8036 76.1784 17.7874C76.2375 17.763 76.2881 17.7218 76.3237 17.6687C76.3594 17.6157 76.3785 17.5533 76.3787 17.4894C76.3789 17.4255 76.3602 17.363 76.3249 17.3097C76.2896 17.2565 76.2393 17.2149 76.1803 17.1902C76.1214 17.1655 76.0565 17.1588 75.9937 17.171C75.931 17.1832 75.8733 17.2137 75.8279 17.2586C75.7825 17.3036 75.7514 17.361 75.7386 17.4236C75.7258 17.4862 75.7318 17.5512 75.756 17.6104Z" fill="#A6A6A6"/>
<path d="M76.0439 15.8686C76.0678 15.928 76.1089 15.9789 76.1618 16.015C76.2148 16.051 76.2772 16.0705 76.3413 16.0709C76.4053 16.0714 76.468 16.0529 76.5215 16.0177C76.575 15.9825 76.6168 15.9322 76.6417 15.8732C76.6665 15.8142 76.6733 15.7491 76.6611 15.6862C76.649 15.6234 76.6184 15.5655 76.5734 15.5201C76.5283 15.4746 76.4707 15.4435 76.408 15.4308C76.3452 15.418 76.2801 15.4242 76.2209 15.4486C76.1419 15.481 76.0789 15.5434 76.0458 15.6221C76.0126 15.7008 76.0119 15.7894 76.0439 15.8686Z" fill="#A6A6A6"/>
<path d="M104.194 57.3268C104.704 57.0625 105.896 57.518 106.247 58.1811C106.599 58.8443 106.743 60.711 106.276 60.9588C105.808 61.2066 104.102 60.147 103.826 59.4272C103.55 58.7074 103.649 57.61 104.194 57.3268Z" fill="#EBEBEB"/>
<path d="M66.5 107.505C66.8753 107.071 68.1521 107.059 68.7232 107.545C69.2943 108.031 70.1132 109.716 69.771 110.118C69.4288 110.519 67.4511 110.16 66.939 109.594C66.4269 109.027 66.0965 107.97 66.5 107.505Z" fill="#EBEBEB"/>
<path d="M26.432 26.9041C26.6373 27.4398 26.0497 28.5726 25.3535 28.8487C24.6573 29.1248 22.7835 29.0588 22.5899 28.5655C22.3964 28.0723 23.6401 26.4982 24.3835 26.3023C25.1269 26.1064 26.196 26.3377 26.432 26.9041Z" fill="#EBEBEB"/>
<path d="M48.4579 68.2158C48.9818 68.8742 50.9311 67.8358 51.8657 65.9242C52.8003 64.0126 52.4014 62.5541 51.8539 62.2426C51.3064 61.9311 49.2013 62.776 48.7694 63.956C48.3375 65.136 48.144 67.8122 48.4579 68.2158Z" fill="#DBDBDB"/>
<path d="M108.888 53.1495C109.608 52.5029 107.375 48.2124 105.752 47.5351C104.128 46.8578 102.164 47.1669 101.565 48.0189C100.965 48.8709 102.308 51.0562 103.432 51.7807C104.555 52.5053 108.071 53.8835 108.888 53.1495Z" fill="#EBEBEB"/>
<path d="M54.011 86.376C56.371 93.8619 61.655 98.9005 70.4012 99.3442C79.1473 99.7879 84.9175 95.3062 88.0162 88.0964C91.1149 80.8866 89.536 71.9941 84.1859 68.1922C80.3816 65.49 74.9371 66.5402 72.0673 66.3868C69.1976 66.2334 63.8876 64.6545 59.8331 66.9603C54.1219 70.2005 51.651 78.8901 54.011 86.376Z" fill="#EBEBEB"/>
<path opacity="0.1" d="M53.1755 79.1238C52.9954 81.5722 53.2788 84.0327 54.011 86.3761C56.371 93.862 61.655 98.9006 70.4012 99.3443C79.1473 99.7879 84.9175 95.3063 88.0162 88.0965C88.9796 85.839 89.5096 83.4204 89.5785 80.9669C89.4264 82.9998 88.9192 84.9903 88.0799 86.8481C85.0119 93.6236 79.3007 96.7388 70.5546 96.2881C61.8084 95.8373 56.4536 92.1722 54.0747 85.1182C53.4269 83.188 53.1225 81.1591 53.1755 79.1238Z" fill="black"/>
<path opacity="0.3" d="M53.1401 79.6689C53.5838 74.871 55.9438 70.505 59.7481 68.4495C63.8003 66.2665 69.0064 67.6636 71.8785 67.8099C74.7507 67.9562 80.3061 67.1019 84.1199 69.6837C87.6953 72.1098 89.6021 76.6929 89.5479 81.5097C89.8617 76.1218 87.9643 70.8897 84.1765 68.1899C80.3887 65.49 74.9277 66.5379 72.0579 66.3845C69.1881 66.2311 63.8781 64.6522 59.8237 66.9579C55.7692 69.2637 53.3738 74.2763 53.1401 79.6689Z" fill="white"/>
<path opacity="0.2" d="M63.1441 70.3847C64.8268 74.1725 60.5481 86.3217 58.4595 85.6704C56.3709 85.019 54.7779 78.7296 55.1933 75.9141C55.7573 72.0839 62.0514 67.9232 63.1441 70.3847Z" fill="white"/>
<path opacity="0.2" d="M62.5164 70.6844C63.5808 73.0821 60.973 76.7897 59.5829 76.8039C58.2896 76.818 57.079 75.605 57.3409 73.8208C57.6996 71.3947 61.832 69.1244 62.5164 70.6844Z" fill="white"/>
<path opacity="0.2" d="M86.4255 80.0441C83.308 79.7491 76.1383 71.8809 77.795 70.5144C79.4517 69.148 83.8791 70.5829 85.1676 72.1074C86.9188 74.1842 88.4528 80.24 86.4255 80.0441Z" fill="white"/>
<path opacity="0.3" d="M81.2548 68.2347C78.0546 67.8382 74.8096 68.9946 71.6331 68.9144C69.3628 68.7114 66.8234 67.8548 64.5531 67.5857C63.7326 67.4671 62.9012 67.4425 62.0751 67.5126C64.4752 68.079 66.6842 69.0702 69.0654 69.7097C73.1718 71.0691 77.264 69.0017 81.2666 68.2347H81.2548Z" fill="white"/>
<path d="M66.7455 20.7421C66.7455 20.7421 70.1203 30.4181 69.2046 41.6423C68.4423 50.9855 68.3456 56.1114 69.004 60.5105C69.4128 63.3003 70.1209 66.038 71.1162 68.6761C71.8634 68.7969 72.6205 68.8467 73.3771 68.8248C73.3771 68.8248 71.8266 66.8707 70.9203 60.5884C70.2831 56.1681 70.8495 50.4805 71.4749 41.3284C72.2537 30.0004 70.5427 21.6413 70.3256 21.2826C70.092 20.879 66.8139 20.3291 66.7455 20.7421Z" fill="#C7C7C7"/>
<path d="M63.4675 67.8995C66.4411 67.6092 69.3675 68.6996 72.3222 68.6075C75.2651 68.6547 78.2954 67.824 81.2265 68.4895C78.2269 68.3243 75.3265 69.2471 72.3245 69.2235C69.2825 69.2848 66.4647 68.1048 63.4675 67.8948V67.8995Z" fill="#A6A6A6"/>
<path d="M74.2999 29.3372C75.4114 29.6771 80.5114 28.3366 85.7011 31.6642C90.8907 34.9918 95.5682 42.152 96.0851 46.3882C96.6019 50.6244 94.164 59.0001 94.2749 59.727C94.3859 60.4538 94.0389 62.3041 93.8029 62.3088C93.5669 62.3135 92.715 61.6008 89.8145 60.2155C86.9141 58.8302 81.033 57.1121 78.9113 54.2801C76.7897 51.4481 73.396 45.3734 73.396 41.3331C73.396 37.2928 73.868 31.8129 73.5848 30.6919C73.4489 30.0911 73.2339 29.5109 72.9453 28.9667C72.9453 28.9667 72.9759 28.9313 74.2999 29.3372Z" fill="#DBDBDB"/>
<path opacity="0.1" d="M72.9476 28.9667C73.2365 29.5111 73.4523 30.0911 73.5895 30.6919C73.8703 31.8129 73.396 37.2999 73.3983 41.3308C73.4007 45.3616 76.7873 51.4481 78.9113 54.2801C81.0353 57.1121 86.9093 58.842 89.8121 60.2226C92.7149 61.6032 93.5551 62.3041 93.8029 62.3041C94.0507 62.3041 94.3835 60.4562 94.2749 59.7222C94.1663 58.9883 96.6042 50.6197 96.085 46.3835C95.8844 44.7315 95.0537 42.6382 93.8029 40.5024C94.4103 41.68 94.8269 42.9466 95.0372 44.2548C95.5092 48.0662 93.3073 55.5828 93.4064 56.2507C93.5055 56.9186 93.2035 58.5682 92.9816 58.5729C92.7598 58.5776 92.0022 57.931 89.3921 56.6849C86.7819 55.4388 81.5002 53.8883 79.591 51.3419C77.6817 48.7954 74.635 43.3391 74.635 39.7047C74.635 36.0703 75.048 31.1521 74.812 30.1444C74.7388 29.8494 74.6586 29.5968 74.576 29.3844C74.4834 29.3773 74.3918 29.3615 74.3022 29.3372C72.9759 28.9313 72.9476 28.9667 72.9476 28.9667Z" fill="black"/>
<path d="M78.6588 34.8195C77.8682 37.124 77.2141 39.4731 76.7 41.8546C76.1973 44.2335 75.7843 46.6549 75.7914 49.0927C75.8213 48.7907 75.8496 48.4886 75.8764 48.1865C76.4097 43.6647 77.5567 39.2185 78.6517 34.8195H78.6588Z" fill="#C7C7C7"/>
<path d="M82.4442 40.6062C81.603 44.3452 80.9633 48.1266 80.5279 51.9342C80.4122 53.2039 80.2518 54.4925 80.3981 55.7645C80.358 54.4878 80.5798 53.2228 80.7356 51.9602C81.2382 48.314 81.9297 44.2477 82.4442 40.6039V40.6062Z" fill="#C7C7C7"/>
<path d="M78.8027 54.129C79.2417 51.1177 79.8553 47.8349 80.2518 44.8188C79.8435 46.3387 79.5438 47.8868 79.2795 49.435C79.009 50.9862 78.8513 52.555 78.8075 54.129H78.8027Z" fill="#C7C7C7"/>
<path d="M88.5 33.8542C84.8042 32.1314 80.3674 31.2936 76.3035 31.7137C80.463 31.7071 84.5913 32.4316 88.5 33.8542Z" fill="#C7C7C7"/>
<path d="M95.3015 43.5421C91.4429 40.5307 85.7081 38.7607 80.9385 37.8002C83.1192 38.3949 85.2951 39.0699 87.4309 39.818C90.1543 40.8021 92.8872 41.9231 95.3015 43.5421Z" fill="#C7C7C7"/>
<path d="M95.6673 52.5407C94.4407 51.7132 93.117 51.0395 91.7262 50.5347C90.3451 50.0042 88.9248 49.582 87.4781 49.2721C90.2039 50.2657 93.0737 51.2191 95.6579 52.5407H95.6673Z" fill="#C7C7C7"/>
<path d="M95.934 50.7565C93.9094 49.6412 91.7417 48.8083 89.4912 48.2809C91.5798 49.1541 93.8053 49.9777 95.934 50.7565Z" fill="#C7C7C7"/>
<path d="M88.2027 59.5192C88.3348 57.2135 88.5968 54.6977 88.6747 52.3896C88.4335 53.5576 88.2695 54.7402 88.1838 55.9296C88.0716 57.1212 88.0716 58.3206 88.1838 59.5121L88.2027 59.5192Z" fill="#C7C7C7"/>
<path d="M84.3653 39.2704C83.3726 38.7688 82.2924 38.4636 81.184 38.3712C82.2012 38.8163 83.2749 39.1189 84.3747 39.2704H84.3653Z" fill="#C7C7C7"/>
<path d="M88.3301 46.2797C87.3354 45.7767 86.2526 45.4713 85.1417 45.3805C86.158 45.8257 87.2309 46.1283 88.3301 46.2797Z" fill="#C7C7C7"/>
<path d="M78.2198 34.1256C77.5708 35.5634 77.1115 37.0794 76.8534 38.6356C77.4634 37.1835 77.9213 35.6721 78.2198 34.1256Z" fill="#C7C7C7"/>
<path d="M81.3799 32.7167C79.7533 32.2178 78.0357 32.0896 76.3531 32.3415C78.0051 32.4642 79.7255 32.5775 81.3799 32.7167Z" fill="#C7C7C7"/>
<path d="M68.2725 22.5356C68.2725 22.5356 67.5527 24.4874 67.8311 24.7446C68.1096 25.0018 70.0189 26.8521 73.5636 30.4204C77.1083 33.9887 82.0596 40.5188 84.3535 45.0524C87.6905 51.6321 92.9321 59.7245 92.9321 59.7245C92.9321 59.7245 87.1808 49.324 85.2739 45.3616C82.4738 39.5553 78.8727 34.1708 74.576 29.3655C71.5411 26.0001 68.2725 22.5356 68.2725 22.5356Z" fill="#C7C7C7"/>
<path d="M67.5951 96.6114C71.4466 103.675 77.7596 107.703 86.6427 106.412C95.5257 105.122 100.444 99.4812 102.134 91.6153C103.823 83.7494 100.482 75.1212 94.3457 72.3553C89.9844 70.3894 84.7145 72.5134 81.8023 72.9359C78.89 73.3583 73.2308 72.8132 69.6105 75.9331C64.5082 80.3227 63.7412 89.5526 67.5951 96.6114Z" fill="#03B104"/>
<path opacity="0.1" d="M102.134 91.6152C100.444 99.4811 95.5257 105.126 86.6426 106.412C77.7596 107.699 71.4466 103.675 67.5951 96.6113C65.1572 92.1439 64.5672 86.8079 65.759 82.3805C64.9921 86.3331 65.6254 90.4294 67.5502 93.9658C70.9062 100.116 76.405 103.618 84.141 102.5C91.8771 101.381 96.1605 96.4627 97.6332 89.6139C99.1058 82.7652 96.1912 75.2463 90.8482 72.8391C88.7242 71.8833 86.3642 72.039 84.2402 72.4237C87.1736 71.7346 91.0228 70.8567 94.3457 72.3553C100.479 75.1212 103.84 83.7541 102.134 91.6152Z" fill="black"/>
<path d="M84.2119 72.4308C83.4213 72.6149 82.6991 72.7871 82.0714 72.9028C82.7392 72.7352 83.459 72.5677 84.2119 72.4308Z" fill="#03B104"/>
<path opacity="0.3" d="M65.3932 90.0411C64.8882 85.1276 66.3986 80.2684 69.8206 77.4505C73.4621 74.4533 78.975 74.8286 81.892 74.4085C84.8089 73.9884 90.2299 72.0272 94.5746 73.8704C98.6503 75.605 101.475 79.8365 102.384 84.691C101.633 79.2087 98.6857 74.307 94.3457 72.3553C90.0057 70.4036 84.7145 72.5134 81.8023 72.9358C78.8901 73.3583 73.2308 72.8131 69.6105 75.933C65.9903 79.053 64.5601 84.5706 65.3932 90.0411Z" fill="white"/>
<path opacity="0.2" d="M72.924 77.8801C75.6474 81.1369 74.8592 94.3151 72.6101 94.2632C70.361 94.2113 67.0287 88.4623 66.644 85.5713C66.1272 81.6254 71.1587 75.7561 72.924 77.8801Z" fill="white"/>
<path opacity="0.2" d="M98.943 83.8343C95.7475 84.1552 86.9825 77.6605 88.3772 75.9566C89.772 74.2527 94.5132 74.8238 96.1086 76.1029C98.2798 77.8446 101.02 83.6266 98.943 83.8343Z" fill="white"/>
<path opacity="0.3" d="M91.4051 72.9807C88.1011 73.2167 85.0732 75.0198 81.8636 75.5767C79.5414 75.8127 76.818 75.4634 74.4698 75.6428C73.6211 75.6856 72.7801 75.8257 71.9634 76.0605C74.4886 76.1549 76.9076 76.7142 79.4258 76.8865C83.8248 77.4411 87.5324 74.5454 91.4051 72.9902V72.9807Z" fill="white"/>
<path opacity="0.5" d="M72.4685 78.5408C74.5925 80.8489 73.0632 86.0504 71.4938 86.6003C70.033 87.1124 68.1898 86.199 67.8122 84.0798C67.2859 81.1959 71.0879 77.0423 72.4685 78.5408Z" fill="white"/>
<path opacity="0.5" d="M72.334 87.7685C73.278 88.6535 72.0839 90.6972 71.2272 90.9214C70.4271 91.1338 69.2448 90.1615 69.1999 89.3355C69.148 88.2121 71.7251 87.1903 72.334 87.7685Z" fill="white"/>
<path opacity="0.1" d="M85.1417 101.631C89.8287 99.5071 93.8336 95.7617 95.7617 90.9473C96.3927 89.3304 96.8669 87.6565 97.1777 85.9489C97.2556 88.1772 96.8531 90.3963 95.9977 92.4554C94.1215 96.9819 89.9538 100.571 85.1606 101.631H85.1417Z" fill="black"/>
<path d="M65.9691 23.3003C65.9691 23.3003 71.5104 32.6554 73.0255 45.5127C74.2857 56.2105 75.3052 62.0091 76.9336 66.8117C77.9479 69.8386 79.2636 72.756 80.8607 75.5201C81.6482 75.4827 82.4297 75.3633 83.1924 75.1637C83.1924 75.1637 81.1911 73.3205 78.8995 66.4553C77.2877 61.6244 76.6245 55.0872 75.2675 44.6347C73.5872 31.6807 70.0566 22.3799 69.7569 22.0283C69.4241 21.6271 65.9479 22.8213 65.9691 23.3003Z" fill="#37474F"/>
<path d="M73.7854 76.195C76.7 75.284 79.8789 75.756 82.8195 75.048C85.7813 74.4746 88.644 73.0043 91.7261 73.0538C88.6817 73.5258 85.963 75.0575 82.9516 75.664C79.9096 76.372 76.8345 75.7749 73.7854 76.195Z" fill="#263238"/>
<path d="M71.0053 19.9138C71.0053 19.9138 66.021 27.1401 63.956 39.4239C62.8916 45.7959 62.33 53.801 61.3364 57.787C59.5546 64.919 56.8925 68.6761 54.4145 71.6544C54.4145 71.6544 53.6499 71.7087 52.2905 70.7104C52.2905 70.7104 57.1427 65.4122 58.9882 56.6778C60.3806 50.0887 60.1186 44.04 61.3978 37.2763C63.6704 25.2733 66.4269 20.7232 66.7786 20.4353C67.1302 20.1474 71.1068 19.4559 71.0053 19.9138Z" fill="#37474F"/>
<path d="M45.9138 67.1775C48.793 68.02 51.1058 70.1346 53.9001 71.1588C56.6259 72.3034 59.7576 72.6645 62.2427 74.3826C59.5074 73.1058 56.4559 72.8793 53.6711 71.7347C50.8132 70.6491 48.6278 68.4944 45.9138 67.1775Z" fill="#263238"/>
<path d="M28.9123 81.3823C28.1689 89.6825 31.2912 96.779 39.6834 100.782C48.0755 104.784 55.5591 102.752 61.5393 96.9513C67.5196 91.1504 69.6035 81.7906 65.9101 75.8788C63.2857 71.678 57.525 70.4744 54.7732 69.1623C52.0215 67.8501 47.4572 64.126 42.5484 64.7302C35.636 65.5751 29.6557 73.0846 28.9123 81.3823Z" fill="#03B104"/>
<path opacity="0.1" d="M61.5393 96.9512C55.5591 102.752 48.0873 104.786 39.6834 100.781C31.2794 96.7765 28.1689 89.6894 28.9123 81.3822C29.4834 75.0102 33.1462 69.089 37.9535 66.3113C34.0548 68.8648 31.1402 73.7925 30.6658 79.0907C30.0144 86.3312 32.7402 92.5214 40.061 96.0166C47.3817 99.5118 53.9118 97.7347 59.1274 92.6725C64.343 87.6103 66.1626 79.4565 62.9412 74.2881C61.9405 72.6856 60.416 71.5859 58.8159 70.7481C61.4119 71.7912 64.2698 73.2473 65.91 75.8716C69.6034 81.7905 67.5219 91.155 61.5393 96.9512Z" fill="black"/>
<path opacity="0.1" d="M42.2156 96.0851C47.3085 96.8049 52.7011 95.783 56.8948 92.741C58.2925 91.7131 59.5878 90.5529 60.7629 89.2765C59.8608 90.8084 58.7062 92.1769 57.348 93.3239C53.2581 96.7836 47.259 97.9117 42.2156 96.0851Z" fill="black"/>
<path opacity="0.3" d="M30.798 74.4557C33.191 69.9339 37.2856 66.6157 41.8546 66.1579C46.7162 65.6694 51.2474 69.1669 54.0039 70.4814C56.7603 71.7959 62.5541 73.2285 65.2374 77.3254C67.7508 81.1651 67.7485 86.4374 65.7378 91.1409C68.2464 85.9866 68.5249 80.0748 65.91 75.8905C63.2952 71.7063 57.525 70.4861 54.7732 69.174C52.0215 67.8618 47.4572 64.1377 42.5484 64.7419C37.6396 65.3461 33.2264 69.2637 30.798 74.4557Z" fill="white"/>
<path opacity="0.2" d="M46.1238 68.8554C45.5999 73.2214 35.0979 81.9794 33.5426 80.2471C31.9874 78.5149 33.958 71.9163 35.8649 69.5752C38.468 66.3892 46.4636 66.014 46.1238 68.8554Z" fill="white"/>
<path opacity="0.5" d="M44.6842 68.8531C44.5426 71.9872 39.7707 74.5572 38.2768 73.8303C36.8821 73.153 36.2402 71.2084 37.4721 69.4431C39.1524 67.0382 44.7786 66.814 44.6842 68.8531Z" fill="white"/>
<path opacity="0.5" d="M38.0361 75.2486C38.0644 76.5372 35.7799 77.1366 35.0153 76.6835C34.3073 76.2634 34.161 74.7389 34.7179 74.1276C35.4731 73.2945 38.0172 74.4108 38.0361 75.2486Z" fill="white"/>
<path opacity="0.2" d="M63.2669 88.4127C60.331 86.8504 56.5173 76.2115 58.6979 75.5484C60.8786 74.8852 64.6357 78.0995 65.2729 80.1197C66.1437 82.8691 65.1761 89.4275 63.2669 88.4127Z" fill="white"/>
<path d="M61.2514 23.265C59.2572 23.3074 51.4574 18.722 41.3354 21.8065C31.2133 24.891 20.1567 34.5505 17.3295 41.3001C14.5022 48.0497 14.6438 63.0121 14.1199 64.1779C13.5959 65.3438 13.2939 68.5392 13.6998 68.6619C14.1057 68.7847 15.8238 67.9893 21.2659 67.0595C26.7081 66.1297 37.2125 66.0046 42.0339 62.3112C46.8554 58.6178 55.2735 50.1713 57.1568 43.4973C59.0401 36.8232 60.8077 27.5531 61.7942 25.8303C62.2988 24.9015 62.9241 24.0437 63.6539 23.2791C63.6539 23.2791 63.6303 23.213 61.2514 23.265Z" fill="#455A64"/>
<path opacity="0.1" d="M63.6587 23.2815C62.9289 24.0461 62.3035 24.9039 61.799 25.8327C60.8125 27.5555 59.0449 36.8255 57.1616 43.4996C55.2783 50.1737 46.8625 58.6249 42.0363 62.3159C37.2101 66.0069 26.6963 66.1297 21.2683 67.0619C15.8403 67.9941 14.1105 68.787 13.7163 68.6643C13.3222 68.5416 13.6125 65.3414 14.1364 64.1803C14.6603 63.0192 14.5211 48.0615 17.346 41.3025C18.4481 38.6711 20.7963 35.5983 23.8525 32.6483C22.1179 34.6048 20.7845 36.5447 20.0765 38.2746C17.5348 44.3539 17.6599 57.8036 17.1926 58.8514C16.7253 59.8993 16.4469 62.7737 16.815 62.8823C17.1832 62.9909 18.729 62.2781 23.6189 61.4427C28.5088 60.6073 37.9583 60.4987 42.2959 57.1735C46.6336 53.8482 54.2045 46.2561 55.899 40.2546C57.5935 34.2531 59.1817 25.9153 60.0691 24.3647C60.2934 23.9703 60.5376 23.5875 60.8007 23.2178C60.956 23.2502 61.1141 23.2668 61.2727 23.2673C63.628 23.2131 63.6587 23.2815 63.6587 23.2815Z" fill="black"/>
<path d="M51.5023 30.2954C51.7308 34.4692 51.7151 38.6527 51.4551 42.8247C51.1766 46.9877 50.7329 51.1814 49.5883 55.2052C49.678 54.6907 49.77 54.1763 49.8692 53.6665C51.0916 45.9517 51.2592 38.0905 51.5023 30.3025V30.2954Z" fill="#37474F"/>
<path d="M42.5555 38.0905C42.2079 44.6615 41.506 51.209 40.4528 57.7044C40.0539 59.8544 39.7188 62.0563 38.8834 64.0906C39.5442 62.002 39.766 59.8072 40.0988 57.6501C40.9602 51.3914 41.713 44.3515 42.5555 38.0905Z" fill="#37474F"/>
<path d="M42.2817 62.1271C42.9591 56.9493 43.4617 51.2404 44.2193 46.0791C44.1863 48.7813 43.9715 51.4741 43.6765 54.1574C43.3815 56.8407 42.985 59.5217 42.2817 62.1342V62.1271Z" fill="#37474F"/>
<path d="M35.6997 24.1216C42.6027 22.9982 50.3317 23.6755 56.8429 26.2597C49.9989 24.2679 42.8057 23.6378 35.6997 24.1216Z" fill="#37474F"/>
<path d="M19.949 36.9623C27.737 33.7834 38.0243 33.5262 46.3504 34.1563C42.4705 34.1256 38.5624 34.2295 34.6872 34.4725C29.7312 34.8313 24.6926 35.4165 19.949 36.9623Z" fill="#37474F"/>
<path d="M15.1606 51.658C17.5513 50.8061 20.086 50.4261 22.6041 50.1807C25.1271 49.9444 27.6647 49.9049 30.1938 50.0627C25.2378 50.4356 20.0458 50.6786 15.1606 51.658Z" fill="#37474F"/>
<path d="M15.55 48.5877C19.415 47.6858 23.3852 47.3173 27.35 47.4926C23.4914 47.9646 19.4346 48.2903 15.55 48.5877Z" fill="#37474F"/>
<path d="M24.2466 66.6582C25.101 62.7902 25.8396 58.5091 26.7671 54.6576C26.6203 56.7032 26.3404 58.7371 25.9293 60.7464C25.5116 62.7524 25.0325 64.7584 24.2466 66.6582Z" fill="#37474F"/>
<path d="M40.0043 34.9941C41.8823 34.626 43.8139 34.626 45.6919 34.9941C43.8051 35.2561 41.8911 35.2561 40.0043 34.9941Z" fill="#37474F"/>
<path d="M30.1938 44.7268C32.072 44.3598 34.0033 44.3598 35.8814 44.7268C33.9948 44.9911 32.0805 44.9911 30.1938 44.7268Z" fill="#37474F"/>
<path d="M52.5477 29.3538C52.9526 32.0304 53.0066 34.7485 52.7082 37.4391C52.3776 34.7566 52.3239 32.0473 52.5477 29.3538Z" fill="#37474F"/>
<path d="M47.9835 25.5541C50.903 25.4869 53.8005 26.0748 56.463 27.2746C53.6735 26.7082 50.7848 26.0946 47.9835 25.5541Z" fill="#37474F"/>
<path opacity="0.1" d="M28.8864 59.6892C34.6283 58.4337 40.618 56.8572 45.1067 52.8712C45.7309 52.2886 46.3129 51.6624 46.8484 50.9973C46.4643 51.7813 45.989 52.5172 45.4324 53.1898C41.5785 57.695 34.6495 59.7104 28.877 59.6892H28.8864Z" fill="black"/>
<path d="M74.373 14.8326C74.373 14.8326 74.6562 18.3915 74.0757 18.6889C73.4951 18.9862 69.4807 21.1504 61.9641 25.3984C54.4475 29.6464 43.2352 38.1282 37.3352 44.5427C28.7637 53.86 16.3312 64.7915 16.3312 64.7915C16.3312 64.7915 30.68 50.268 35.6667 44.6347C44.7102 34.4065 54.1738 27.3265 60.77 23.1823C67.3662 19.0382 74.373 14.8326 74.373 14.8326Z" fill="#37474F"/>
<path d="M94.78 75.5106L92.0848 76.0086L91.483 78.8477L90.8836 76.0086L88.1885 75.5106L90.8718 74.8545L91.483 72.1736L92.0966 74.8545L94.78 75.5106Z" fill="white"/>
<path d="M58.7781 98.3743L56.8854 98.7236L56.463 100.718L56.0405 98.7236L54.1478 98.3719L56.0311 97.9117L56.463 96.0284L56.8925 97.9117L58.7781 98.3743Z" fill="white"/>
<path d="M56.3922 45.6188L54.5018 45.9681L54.077 47.9623L53.6546 45.9681L51.7642 45.6164L53.6475 45.1562L54.077 43.2729L54.5089 45.1562L56.3922 45.6188Z" fill="white"/>
<path d="M33.5309 86.7843L31.6381 87.1336L31.2157 89.1278L30.7933 87.1336L28.9029 86.7843L30.7862 86.3218L31.2157 84.4385L31.6476 86.3218L33.5309 86.7843Z" fill="white"/>
<path d="M27.0031 34.5221L25.1127 34.8713L24.6903 36.8655L24.2678 34.8713L22.3751 34.5221L24.2584 34.0619L24.6903 32.1786L25.1198 34.0619L27.0031 34.5221Z" fill="white"/>
<path d="M36.7853 79.9214C36.682 79.9214 36.583 79.9624 36.5099 80.0354C36.4369 80.1085 36.3959 80.2075 36.3959 80.3108C36.3959 80.4141 36.4369 80.5131 36.5099 80.5861C36.583 80.6592 36.682 80.7002 36.7853 80.7002C36.8885 80.7002 36.9876 80.6592 37.0606 80.5861C37.1336 80.5131 37.1747 80.4141 37.1747 80.3108C37.1747 80.2075 37.1336 80.1085 37.0606 80.0354C36.9876 79.9624 36.8885 79.9214 36.7853 79.9214Z" fill="white"/>
<path d="M59.328 94.9806C59.2247 94.9806 59.1257 95.0216 59.0526 95.0946C58.9796 95.1677 58.9386 95.2667 58.9386 95.37C58.9386 95.4733 58.9796 95.5723 59.0526 95.6453C59.1257 95.7184 59.2247 95.7594 59.328 95.7594C59.4313 95.7594 59.5303 95.7184 59.6033 95.6453C59.6764 95.5723 59.7174 95.4733 59.7174 95.37C59.7174 95.2667 59.6764 95.1677 59.6033 95.0946C59.5303 95.0216 59.4313 94.9806 59.328 94.9806Z" fill="white"/>
<path d="M40.8044 65.7402C40.7011 65.7402 40.6021 65.7813 40.529 65.8543C40.456 65.9273 40.415 66.0264 40.415 66.1296C40.415 66.2329 40.456 66.332 40.529 66.405C40.6021 66.478 40.7011 66.519 40.8044 66.519C40.9077 66.519 41.0067 66.478 41.0797 66.405C41.1528 66.332 41.1938 66.2329 41.1938 66.1296C41.1938 66.0264 41.1528 65.9273 41.0797 65.8543C41.0067 65.7813 40.9077 65.7402 40.8044 65.7402Z" fill="white"/>
<path d="M81.3232 99.3726C81.2255 99.3802 81.1342 99.4244 81.0677 99.4964C81.0011 99.5683 80.9641 99.6627 80.9641 99.7608C80.9641 99.8588 81.0011 99.9532 81.0677 100.025C81.1342 100.097 81.2255 100.141 81.3232 100.149C81.421 100.141 81.5122 100.097 81.5788 100.025C81.6454 99.9532 81.6823 99.8588 81.6823 99.7608C81.6823 99.6627 81.6454 99.5683 81.5788 99.4964C81.5122 99.4244 81.421 99.3802 81.3232 99.3726Z" fill="white"/>
<path d="M88.1885 77.6205C88.12 77.6268 88.0563 77.6586 88.0099 77.7094C87.9636 77.7603 87.9379 77.8266 87.9379 77.8954C87.9379 77.9642 87.9636 78.0306 88.0099 78.0814C88.0563 78.1323 88.12 78.164 88.1885 78.1704C88.257 78.164 88.3207 78.1323 88.367 78.0814C88.4134 78.0306 88.4391 77.9642 88.4391 77.8954C88.4391 77.8266 88.4134 77.7603 88.367 77.7094C88.3207 77.6586 88.257 77.6268 88.1885 77.6205Z" fill="white"/>
<path d="M97.2603 95.108C97.1917 95.1144 97.1281 95.1461 97.0817 95.197C97.0353 95.2478 97.0096 95.3142 97.0096 95.383C97.0096 95.4518 97.0353 95.5181 97.0817 95.569C97.1281 95.6198 97.1917 95.6516 97.2603 95.6579C97.3288 95.6516 97.3925 95.6198 97.4388 95.569C97.4852 95.5181 97.5109 95.4518 97.5109 95.383C97.5109 95.3142 97.4852 95.2478 97.4388 95.197C97.3925 95.1461 97.3288 95.1144 97.2603 95.108Z" fill="white"/>
<path d="M52.9017 40.8682C52.8285 40.8682 52.7583 40.8973 52.7065 40.949C52.6547 41.0008 52.6256 41.0711 52.6256 41.1443C52.6256 41.2175 52.6547 41.2877 52.7065 41.3395C52.7583 41.3913 52.8285 41.4204 52.9017 41.4204C52.975 41.4204 53.0452 41.3913 53.097 41.3395C53.1488 41.2877 53.1778 41.2175 53.1778 41.1443C53.1778 41.0711 53.1488 41.0008 53.097 40.949C53.0452 40.8973 52.975 40.8682 52.9017 40.8682Z" fill="white"/>
<path d="M36.7122 37.3518C36.6389 37.3518 36.5687 37.3809 36.5169 37.4327C36.4651 37.4845 36.436 37.5547 36.436 37.6279C36.436 37.7012 36.4651 37.7714 36.5169 37.8232C36.5687 37.875 36.6389 37.904 36.7122 37.904C36.7854 37.904 36.8556 37.875 36.9074 37.8232C36.9592 37.7714 36.9883 37.7012 36.9883 37.6279C36.9883 37.5547 36.9592 37.4845 36.9074 37.4327C36.8556 37.3809 36.7854 37.3518 36.7122 37.3518Z" fill="white"/>
<path d="M68.5745 22.531C67.6966 22.531 67.6942 23.8974 68.5745 23.8974C69.4548 23.8974 69.4548 22.531 68.5745 22.531Z" fill="white"/>
<path d="M23.338 39.884C22.4577 39.884 22.4577 41.2505 23.338 41.2505C24.2183 41.2505 24.2159 39.884 23.338 39.884Z" fill="white"/>
<path d="M94.8106 78.8358C93.9327 78.8358 93.9304 80.2023 94.8106 80.2023C95.6909 80.2023 95.6909 78.8358 94.8106 78.8358Z" fill="white"/>
</svg>
